<svg width="37" height="29" viewBox="0 0 37 29" fill="none" xmlns="http://www.w3.org/2000/svg">
<g clip-path="url(#clip0_2024_560)">
<path d="M4.08185 3.7896C4.01237 1.81828 5.57425 0 7.68516 0H29.3177C31.4287 0 32.9905 1.81828 32.9211 3.7896C32.8535 5.68392 32.9406 8.13748 33.5689 10.1377C34.1972 12.1379 35.261 13.4104 37 13.5759V15.4241C35.261 15.5867 34.1982 16.8554 33.5689 18.8623C32.9397 20.8693 32.8545 23.3161 32.9211 25.2152C32.9905 27.1865 31.4287 29.0048 29.3177 29.0048H7.68516C5.57425 29.0048 4.01237 27.1865 4.08185 25.2152C4.1484 23.3209 4.06129 20.8673 3.43399 18.8623C2.80669 16.8573 1.73999 15.5896 -1.52588e-05 15.4241V13.5759C1.73901 13.4133 2.80376 12.1446 3.43399 10.1377C4.06423 8.13074 4.1484 5.68392 4.08185 3.7896Z" fill="url(#paint0_linear_2024_560)"/>
<path d="M19.3025 22.2091C22.7208 22.2091 24.7828 20.5632 24.7828 17.8478C24.7828 15.7956 23.3149 14.3094 21.1315 14.0745V13.9889C22.7345 13.7319 23.993 12.2678 23.993 10.6324C23.993 8.30208 22.1229 6.7822 19.2721 6.7822H12.8562V22.2091H19.3025ZM15.3498 8.74101H18.6673C20.471 8.74101 21.4956 9.53223 21.4956 10.9645C21.4956 12.4931 20.3046 13.3478 18.1448 13.3478H15.3498V8.74101ZM15.3498 20.2532V15.1738H18.6448C21.0053 15.1738 22.2296 16.0285 22.2296 17.6967C22.2296 19.3648 21.0395 20.2532 18.7936 20.2532H15.3498Z" fill="url(#paint1_linear_2024_560)" stroke="white"/>
</g>
<defs>
<linearGradient id="paint0_linear_2024_560" x1="3.72563" y1="2.96372" x2="35.6422" y2="28.7215" gradientUnits="userSpaceOnUse">
<stop stop-color="#9013FE"/>
<stop offset="1" stop-color="#6610F2"/>
</linearGradient>
<linearGradient id="paint1_linear_2024_560" x1="13.6685" y1="7.98347" x2="20.7198" y2="20.1072" gradientUnits="userSpaceOnUse">
<stop stop-color="white"/>
<stop offset="1" stop-color="#F1E5FC"/>
</linearGradient>
<clipPath id="clip0_2024_560">
<rect width="37" height="29" fill="white"/>
</clipPath>
</defs>
</svg>
