<svg xmlns="http://www.w3.org/2000/svg" fill="none" viewBox="0 0 126 126"><path fill="#000" d="M57.414.095C50.26.833 43.207 2.717 36.918 5.544 25.028 10.89 14.411 20.642 8.097 32.023 2.52 42.08 0 51.755 0 63.085c0 9.217 1.782 17.466 5.601 26.046 6.162 13.8 18.638 25.996 32.666 31.852 8.199 3.437 15.939 4.99 24.901 4.99 10.108 0 18.917-2.088 28.109-6.671 6.212-3.08 11.406-6.874 16.549-12.043 9.395-9.445 15.531-21.667 17.568-35.008.229-1.477.484-4.863.56-7.511.306-10.566-1.68-19.91-6.263-29.28-6.34-13.01-16.524-23.144-29.56-29.382C84.555 3.43 79.387 1.801 72.945.681 70.221.197 60.062-.185 57.414.095Zm15.15 1.63c11.075 1.833 21.183 6.365 29.712 13.29 9.446 7.638 16.677 18.637 20.292 30.757 1.655 5.55 2.317 10.54 2.292 17.313 0 6.416-.408 9.624-1.91 15.506-3.106 12.195-9.93 23.118-19.681 31.495-5.652 4.888-13.393 9.267-20.522 11.661-10.77 3.615-23.092 4.175-34.117 1.553-8.988-2.139-18.408-6.875-25.46-12.807-9.93-8.326-17.263-20.114-20.344-32.666-1.375-5.602-1.68-8.402-1.68-14.87.025-7.485.662-11.915 2.699-18.51C8.708 28.612 20.292 15.04 35.415 7.454 41.375 4.45 48.606 2.285 55.25 1.47c1.197-.127 2.571-.306 3.055-.357 2.343-.28 11.203.102 14.258.612Z"/><path fill="#000" d="M56.14 2.234c-25.053 2.851-46.108 21.209-52.296 45.6C2.495 53.155 1.96 57.33 1.96 62.958c0 9.522 1.884 17.873 5.907 26.224 3.31 6.85 6.747 11.712 11.992 16.932 9.828 9.751 21.49 15.531 35.263 17.466 4.176.585 11.458.585 15.76 0 25.64-3.463 46.365-22.508 51.813-47.637 1.324-6.035 1.706-14.615.917-20.674-2.648-20.344-15.353-38.14-33.557-47.027-5.78-2.826-10.668-4.43-16.855-5.525-2.445-.432-4.303-.56-9.166-.61-3.361-.052-6.9 0-7.893.127Zm13.495 4.965c10.388 1.222 20.852 5.652 28.898 12.22 2.088 1.732 6.416 6.086 8.3 8.403 5.856 7.154 10.057 16.626 11.687 26.352.662 3.87.789 11.177.28 15.352a57.306 57.306 0 0 1-5.347 18.129c-7.053 14.41-19.732 25.002-35.161 29.381-9.217 2.597-19.885 2.75-29.051.408-22.838-5.856-39.184-24.57-42.112-48.249-.331-2.724-.331-9.089 0-12.093 1.859-16.83 10.77-31.546 24.799-40.916 6.569-4.405 14.232-7.409 21.82-8.58 1.884-.28 3.87-.56 4.43-.611 2.775-.255 8.504-.127 11.457.204Z"/><path fill="#000" d="M58.509 7.835c-13.036 1.171-24.62 6.442-33.787 15.379-3.488 3.411-5.524 5.83-7.765 9.19C3.616 52.444 4.812 78.77 19.91 97.61c5.042 6.289 11.712 11.559 19.147 15.124 8.096 3.895 14.869 5.448 23.959 5.448 9.089 0 16.065-1.604 24.187-5.576 6.136-3.004 10.286-5.983 15.073-10.846 4.328-4.405 7.104-8.198 9.777-13.341 4.252-8.199 6.187-16.168 6.187-25.588-.026-12.17-3.768-23.399-11.152-33.201-1.935-2.597-6.798-7.613-9.293-9.624-7.74-6.238-17.186-10.338-27.014-11.763-3.437-.51-9.14-.688-12.272-.408Zm2.444 2.52c.127.205-1.197.536-2.19.536-.941 0-.407-.484.637-.586.586-.05 1.146-.102 1.248-.127.101-.026.229.05.305.178Zm4.481.026c.28.179-.102.255-1.222.255-1.018 0-1.553-.102-1.451-.255.204-.33 2.164-.33 2.673 0Zm3.947.255c.662.178.585.204-.56.23-.713 0-1.4-.103-1.477-.23-.178-.28.891-.28 2.037 0Zm-12.73.23c-.383.33-2.674.61-2.674.305 0-.255.764-.433 2.164-.51.433 0 .637.077.51.204Zm16.422.305c.687.152 1.222.356 1.145.458-.153.28-2.673-.23-2.673-.51s-.026-.28 1.528.052Zm-20.751.458c-.153.28-2.368.662-2.597.458-.153-.178 1.324-.636 2.164-.662.331-.025.535.077.433.204Zm25.104.585c1.12.332 1.375.815.306.56-1.019-.254-1.859-.585-1.859-.738 0-.203.484-.152 1.553.178ZM69 12.418c10.77 1.35 20.547 5.83 28.338 13.01 8.427 7.792 13.672 17.365 15.887 29.102.611 3.336.739 11.483.204 15.226-1.324 9.548-5.118 18.255-11.025 25.486-2.011 2.419-6.314 6.569-8.733 8.377-15.098 11.279-35.237 13.418-52.092 5.525-5.347-2.495-9.625-5.449-13.928-9.625-4.659-4.557-7.638-8.63-10.337-14.156-3.59-7.383-5.092-13.952-5.092-22.405 0-13.596 4.71-25.435 14.004-35.11 6.314-6.595 14.054-11.305 22.609-13.75 2.546-.738 3.997-1.018 8.707-1.756 1.4-.23 9.446-.153 11.458.076Zm-20.878.204c0 .23-1.68.815-2.291.815-.51 0-.077-.331.84-.688.993-.356 1.451-.407 1.451-.127Zm33.532.967c.61.23 1.095.535 1.095.662 0 .28-.84.051-2.037-.585-1.12-.586-.51-.611.942-.077Zm-37.733.56c-.153.128-.738.408-1.324.637-1.273.51-1.502.102-.255-.433.917-.407 1.935-.534 1.579-.203Zm41.628 1.07c.56.28 1.019.636 1.019.764 0 .152-.56-.026-1.273-.382-.688-.357-1.273-.713-1.273-.764 0-.255.56-.102 1.527.382Zm-45.575.636c0 .23-2.087 1.172-2.367 1.07-.178-.051.152-.331.713-.637.967-.509 1.654-.687 1.654-.433Zm49.522 1.452c.789.509 1.145.967.763.967-.203 0-2.164-1.273-2.164-1.4 0-.28.56-.102 1.4.433Zm-53.34.585c0 .28-2.037 1.452-2.343 1.35-.153-.051.204-.408.815-.79 1.12-.662 1.527-.814 1.527-.56ZM93.185 19.7c1.146.764 1.4 1.35.331.738-.89-.483-1.603-1.018-1.603-1.247 0-.28.229-.178 1.272.509Zm-61.742 1.502c-1.324 1.146-1.807 1.146-.585 0 .534-.484 1.094-.89 1.273-.89.178.024-.128.406-.688.89Zm65.689 1.502c.433.331.687.688.611.764-.178.178-2.266-1.35-2.266-1.655 0-.305.611.026 1.655.891Zm-68.108.357c0 .254-1.91 1.833-2.19 1.833-.127 0 .255-.458.79-1.018.968-.993 1.4-1.248 1.4-.815Zm70.934 2.215c.509.484.866.967.764 1.07-.102.101-.662-.306-1.248-.892-1.273-1.298-.865-1.451.484-.178Zm-75.211 1.986c-.586.585-1.07.942-1.07.815 0-.357 1.808-2.216 1.987-2.037.076.076-.331.636-.917 1.222Zm78.215 1.222c.739.866.917 1.502.281.993-.637-.51-1.452-1.782-1.197-1.782.153 0 .56.356.916.789Zm-80.303.967c0 .357-1.273 1.808-1.578 1.808-.128 0 .127-.458.56-1.018.84-1.044 1.018-1.197 1.018-.79Zm83.13 2.572c.382.56.636 1.095.534 1.197-.076.076-.178.102-.229.05-.713-.89-1.451-1.96-1.451-2.087 0-.459.509-.077 1.146.84Zm-86.338 1.935c-.382.662-.764 1.07-.815.891-.101-.33 1.197-2.444 1.4-2.24.052.076-.203.687-.585 1.349Zm88.655 1.63c.356.534.611 1.145.56 1.323-.102.28-1.477-1.756-1.477-2.164 0-.382.28-.127.917.84Zm-90.284.916c0 .382-1.375 2.444-1.477 2.19-.102-.357.967-2.343 1.273-2.343.102 0 .204.077.204.153Zm92.422 2.928c.306.56.484 1.171.433 1.324-.102.306-1.197-1.63-1.197-2.113 0-.484.255-.255.764.79Zm-94.867 1.859c-.229.636-.56 1.273-.763 1.451-.484.407-.459.153.178-1.324.687-1.553 1.095-1.655.585-.127Zm96.751 2.419c.229.61.357 1.17.306 1.247-.178.153-1.146-1.96-1.171-2.495 0-.56.382 0 .865 1.247Zm-98.278 1.222c-.23.916-.866 2.19-1.019 2.036-.178-.178.739-2.724.993-2.724.102 0 .102.306.026.688Zm99.857 3.742.102.79-.382-.866a6.997 6.997 0 0 1-.535-1.655l-.102-.79.382.866c.229.459.459 1.197.535 1.655ZM12.196 50.406c-.407 1.527-.611.738-.204-.891.23-.866.382-1.146.433-.764.05.305-.05 1.044-.23 1.655Zm102.556 2.75c-.153.61-.688-.943-.662-1.86.025-.763.051-.763.382.332.203.636.331 1.324.28 1.528Zm-103.32.916c-.23 1.197-.382 1.553-.586 1.35-.178-.179.408-2.776.611-2.648.102.076.102.661-.025 1.298Zm103.905 2.266c.077 1.375 0 1.655-.254.891-.28-.916-.306-2.444-.026-2.164.128.153.255.713.28 1.273ZM10.923 58.171c0 .535-.102 1.197-.23 1.477-.152.356-.229.102-.229-.968-.025-.814.077-1.45.23-1.45.152 0 .254.432.229.941Zm104.771 3.87c-.127.255-.255-.102-.382-.993-.102-.764-.102-1.502-.026-1.655.23-.356.612 2.164.408 2.648Zm-105 .917c0 .764-.102 1.4-.255 1.4-.127 0-.255-.636-.255-1.4 0-.764.128-1.4.255-1.4.153 0 .255.636.255 1.4Zm104.949 2.597-.255 1.222-.025-1.528c-.026-1.094.051-1.425.254-1.222.204.204.23.637.026 1.528Zm-104.72 2.19c.025.585-.077.916-.23.814-.127-.076-.254-.764-.229-1.477 0-.967.077-1.196.23-.814.127.28.229.942.229 1.477Zm104.44 1.782c-.077 1.35-.535 1.91-.535.662 0-1.044.255-2.088.458-1.884.102.076.128.636.077 1.222Zm-104.058 1.63c.101.534.229 1.17.305 1.4.077.254.026.458-.102.458-.152 0-.381-.586-.534-1.273-.331-1.553-.331-1.528-.051-1.528.127 0 .305.433.382.942Zm103.269 3.105c-.153.586-.382 1.044-.484 1.044-.204 0 .076-1.731.407-2.546.306-.738.382.408.077 1.502ZM12.349 76.35c.127.815.076 1.019-.102.713-.153-.229-.331-.916-.408-1.528-.127-.814-.076-1.018.102-.712.153.229.331.916.408 1.527Zm100.977 2.292c-.611 1.4-.687.764-.102-.942.306-.866.484-1.095.535-.713.025.28-.153 1.018-.433 1.655Zm-99.755 1.553c.229.687.28 1.222.152 1.222-.28 0-.585-.739-.865-2.037-.255-1.248.204-.687.713.815Zm98.558 2.062c-.407 1.171-.865 1.808-.865 1.146.025-.484.993-2.597 1.145-2.444.077.05-.051.662-.28 1.298Zm-96.98 1.884c.23.51.357 1.044.306 1.197-.102.305-.764-.84-1.07-1.859-.28-.942.331-.407.764.662Zm95.096 2.343c-.28.585-.636 1.044-.764 1.044-.152 0 .051-.612.408-1.35.382-.713.738-1.197.789-1.018.051.152-.127.764-.433 1.324Zm-93.186 1.553c.56 1.12.636 1.375.254 1.145-.407-.254-1.323-2.164-1.018-2.164.127 0 .484.459.764 1.019Zm91.048 2.317c-.382.56-.764.967-.841.89-.076-.076.153-.61.535-1.196.382-.56.764-.967.84-.891.077.076-.153.611-.534 1.197ZM19.07 91.397c.204.331.535.84.739 1.146.229.357.254.586.101.586-.28 0-1.578-1.732-1.578-2.088 0-.382.382-.204.738.356Zm87.127 1.91c-.535.942-1.273 1.706-1.451 1.553-.204-.229 1.069-1.986 1.451-1.986.153 0 .153.153 0 .433ZM22.66 96.49c-.025.178-.407-.128-.89-.662-1.172-1.299-1.147-1.834 0-.611.483.534.89 1.094.89 1.273Zm80.991.127c-.331.636-1.528 1.706-1.706 1.553-.076-.076.229-.56.662-1.07.866-.967 1.477-1.247 1.044-.483Zm-78.012 3.284c-.204.204-1.96-1.578-1.96-2.011 0-.153.483.178 1.069.764.586.585.993 1.146.891 1.247Zm74.957.026c-.357.687-1.528 1.706-1.732 1.528-.102-.102.23-.586.688-1.07.916-.942 1.451-1.171 1.044-.458Zm-72.665 1.909c.458.459.84.917.84 1.044 0 .255-2.037-1.4-2.037-1.68 0-.357.382-.178 1.197.636Zm69.584.942c0 .306-1.782 1.63-1.96 1.477-.128-.153 1.45-1.68 1.782-1.706.102 0 .178.102.178.229Zm-66.147 1.834c.535.432.942.865.866.942-.204.178-2.19-1.171-2.19-1.477 0-.407.254-.306 1.324.535Zm62.837.865c0 .179-1.884 1.401-2.164 1.401-.382-.026 1.451-1.528 1.833-1.528.178 0 .331.051.331.127Zm-59.4 1.528c.942.56 1.426 1.146.942 1.146-.204 0-2.393-1.528-2.393-1.655 0-.255.356-.102 1.451.509Zm55.58.866c0 .254-1.654 1.298-2.062 1.298-.458 0 .026-.509.994-1.018 1.12-.586 1.069-.56 1.069-.28Zm-51.94 1.298c.867.458 1.529 1.019 1.172 1.019-.33 0-2.444-1.146-2.444-1.324 0-.306.178-.255 1.273.305Zm48.122.891c0 .229-2.088 1.171-2.368 1.07-.178-.051.153-.331.713-.637.967-.509 1.655-.687 1.655-.433Zm-43.462 1.324c.408.204.662.433.611.509-.203.204-2.47-.712-2.47-.993 0-.28.79-.05 1.86.484Zm39.388.357c0 .28-1.528.993-2.19.993-.636 0-.229-.306.993-.79a44.7 44.7 0 0 0 1.146-.458c.026-.025.051.102.051.255Zm-35.212 1.12c.509.204.84.458.764.535-.153.152-2.725-.611-2.725-.815 0-.229 1.095-.076 1.96.28Zm31.138.356c0 .28-1.375.79-2.113.79-.713 0-.33-.331.79-.662 1.221-.382 1.323-.408 1.323-.128Zm-26.352 1.07c.331.305-.534.28-1.73-.051-.536-.127-.892-.357-.816-.458.128-.255 2.139.178 2.546.509Zm22.151.203c-.356.306-2.673.561-2.673.281 0-.23.79-.408 2.164-.484.433 0 .637.076.51.203Zm-17.822.586c.178.178-.153.229-1.019.102-.687-.077-1.375-.28-1.527-.433-.179-.204.102-.229 1.018-.102.713.102 1.4.306 1.528.433Zm3.946.204c.611 0 .79.076.586.28-.331.331-2.623.025-2.623-.331 0-.153.255-.204.586-.102.305.076.967.153 1.451.153Zm9.166 0c-.917.305-2.291.305-2.291 0 0-.153.636-.255 1.476-.229 1.095.025 1.299.076.815.229Zm-3.946.254c-.077.128-.79.255-1.553.255-.764 0-1.375-.127-1.375-.255 0-.152.687-.254 1.553-.254.942 0 1.476.102 1.375.254Z"/><path fill="#000" d="M59.196 13.08c-8.987 1.044-15.353 3.055-21.769 6.925A51.607 51.607 0 0 0 25.36 30.14c-2.037 2.317-4.863 6.161-4.685 6.365.076.05 5.449-3.004 11.941-6.798 6.493-3.794 15.378-8.962 19.707-11.508 4.354-2.521 8.07-4.736 8.274-4.914.408-.382.357-.382-1.4-.204ZM64.925 13.03c0 .05.484.381 1.095.712.585.356 5.474 3.208 10.871 6.365a7307.88 7307.88 0 0 0 18.205 10.617c4.634 2.7 8.835 5.194 9.369 5.55.561.332 1.044.587 1.095.535.051-.05-.56-1.018-1.349-2.138-8.122-11.483-19.63-18.816-32.921-20.98-3.157-.51-6.365-.84-6.365-.662ZM58.305 15.753a900.544 900.544 0 0 1-8.147 4.736c-4.354 2.52-5.423 3.234-3.692 2.495 3.666-1.578 9.013-2.826 13.367-3.131l2.673-.179.077-3.131c.025-1.706-.026-3.106-.128-3.106-.102 0-1.986 1.043-4.15 2.316ZM63.397 16.594v3.131l2.75.153c3.31.178 7.256.942 10.49 2.062 1.324.459 2.648.917 2.928 1.019.407.153.433.127.127-.102-.534-.382-16.065-9.42-16.193-9.42-.05 0-.102 1.425-.102 3.157Z"/><path fill="#000" d="M58.356 20.846c-2.928.305-7.358 1.375-9.98 2.367-2.674 1.044-5.856 2.623-5.856 2.928 0 .128.28.993.636 1.936.84 2.19 1.35 4.659 1.553 7.409l.178 2.138 4.736-.05 4.736-.077.178-1.35c.356-2.367 1.833-4.582 3.92-5.804 1.02-.586 1.63-.815 3.489-1.223l.688-.152v-8.402l-1.07.025c-.61.025-2.062.153-3.208.255ZM63.397 24.894v4.328h.637c1.044 0 3.131.917 4.354 1.91 1.324 1.095 2.546 3.106 2.775 4.557.33 2.113-.127 1.935 5.194 1.935h4.787l.152-2.368c.128-2.291.815-5.576 1.553-7.332.84-2.088.968-1.91-1.935-3.285-4.404-2.088-8.733-3.31-13.672-3.793-1.451-.153-2.903-.28-3.234-.28h-.61v4.328ZM84.173 27.109c-1.018 2.037-2.19 7.205-2.19 9.828 0 .687.052.713.968.636.917-.076.942-.102.993-1.222.127-2.113.611-4.837 1.222-6.696.764-2.292.764-2.317 0-2.826-.61-.407-.636-.382-.993.28ZM40.38 27.236l-.636.586.51 1.527c.687 1.961 1.221 4.94 1.247 6.799v1.476h1.12c.637 0 1.197-.102 1.299-.229.152-.28-.306-4.481-.662-6.009-.51-2.087-1.553-4.71-1.884-4.71-.204 0-.637.255-.993.56Z"/><path fill="#000" d="M85.854 29.018c-.611 1.68-1.248 4.634-1.452 6.875l-.178 1.731h8.886l.178-2.113.178-2.088-1.476-1.35c-1.324-1.196-4.583-3.767-5.347-4.2-.178-.128-.458.28-.79 1.145ZM36.383 30.088c-1.45 1.171-2.979 2.47-3.36 2.902-.688.713-.713.79-.535 2.7l.178 1.934h8.326v-1.858c-.026-.993-.178-2.521-.357-3.361-.432-1.986-1.222-4.456-1.425-4.456-.077 0-1.35.968-2.827 2.139ZM34.627 29.553c-1.197.738-4.71 2.826-7.842 4.634l-5.653 3.31 3.361.076 3.387.077.636-.84c1.706-2.216 4.278-4.915 6.365-6.671 1.273-1.07 2.215-1.935 2.114-1.935-.102 0-1.172.61-2.368 1.35ZM89.75 29.044c2.112 1.553 4.379 3.743 6.288 6.034l2.113 2.546h3.259c1.783 0 3.234-.05 3.234-.102 0-.152-15.2-9.064-15.455-9.064-.102 0 .128.28.56.586ZM60.699 30.266c-2.215.636-4.609 3.106-5.22 5.398-.687 2.546.306 5.881 2.24 7.587 1.681 1.477 2.801 1.884 5.17 1.884 1.934 0 2.316-.076 3.513-.738 4.608-2.572 5.5-8.479 1.833-12.12-1.91-1.935-4.99-2.75-7.536-2.011Zm4.633.764c2.928 1.095 4.889 4.15 4.583 7.103-.178 1.884-1.298 3.972-2.648 5.016-3.691 2.8-8.656 1.604-10.82-2.622-1.426-2.801-.204-7.104 2.495-8.759 2.24-1.375 4.099-1.604 6.39-.738Z"/><path fill="#000" d="M60.342 31.514c-4.15 1.935-5.372 7.027-2.495 10.311 2.8 3.183 7.18 3.208 9.98.102 2.801-3.132 1.986-8.045-1.68-10.032-1.782-.967-4.201-1.12-5.805-.381ZM94.077 35.766c-.102.738-.102 1.45 0 1.604.178.28 2.674.356 2.674.05 0-.101-.56-.814-1.248-1.578l-1.222-1.4-.204 1.324ZM30.324 36.02c-.586.688-1.044 1.299-1.044 1.4 0 .128.51.204 1.146.204h1.145v-1.4c0-.764-.05-1.4-.102-1.4-.076 0-.585.534-1.145 1.196ZM21.896 38.566c0 .23 3.386 2.113 3.768 2.113.306 0 1.324-1.553 1.324-2.01 0-.18-.814-.281-2.546-.281-1.4 0-2.546.076-2.546.178ZM28.16 38.999c-.637.713-1.579 2.368-1.426 2.52.56.408 3.411 1.961 3.488 1.885.203-.23 1.095-3.005 1.247-3.972l.179-1.044h-1.452c-1.222 0-1.553.102-2.037.611ZM32.513 38.566c-.102.077-.178.51-.178.942 0 .433-.28 1.579-.636 2.546-.331.968-.56 1.834-.51 1.935.077.102 1.68 1.07 3.59 2.165 2.775 1.604 3.514 1.91 3.692 1.63.611-.943 1.782-4.482 2.215-6.62.433-2.165.433-2.42.077-2.572-.535-.23-8.046-.255-8.25-.026ZM41.628 38.694c-.05.178-.229 1.069-.382 1.985-.407 2.292-.967 4.176-1.807 6.086-.408.89-.713 1.655-.688 1.68.662.433 1.96 1.146 2.063 1.146.229 0 1.629-3.59 2.215-5.602.28-1.043.585-2.75.687-3.768l.153-1.833h-1.07c-.61 0-1.094.127-1.17.306ZM44.684 39.967c-.28 2.673-.892 5.04-1.96 7.663-.561 1.375-.968 2.52-.943 2.572 1.451.967 1.604 1.018 1.884.534 1.986-3.437 6.824-7.536 10.388-8.809 1.07-.382 1.07-.382.611-2.139l-.33-1.273-4.736-.076-4.736-.051-.178 1.579ZM71.418 38.694c-.255.814-.662 2.546-.586 2.622.05.025 1.07.535 2.266 1.12 3.564 1.732 6.569 4.38 9.191 8.122.382.56.408.56 1.197.127.433-.254.79-.56.79-.661 0-.102-.28-.739-.612-1.4-.89-1.783-1.91-5.22-2.266-7.817l-.33-2.292-4.762-.076c-3.692-.051-4.787 0-4.888.255ZM82.136 38.617c-.483.79.993 6.9 2.343 9.573.764 1.579.687 1.503 1.247 1.172 1.172-.663 1.172-.663.51-1.961-.84-1.68-1.68-4.481-2.063-6.9-.305-1.96-.305-1.986-1.094-2.062-.433-.051-.866.025-.943.178Z"/><path fill="#000" d="M84.479 38.515c-.204.204.458 3.998.942 5.525.585 1.808 1.68 4.278 1.91 4.278.127 0 3.488-1.884 7.103-4.023.306-.178.28-.433-.153-1.579-.305-.764-.662-2.062-.84-2.877l-.28-1.451h-4.278c-2.342 0-4.328.05-4.404.127ZM94.205 39.075c0 .662 1.07 4.049 1.375 4.329.153.153 3.386-1.604 3.615-1.986.077-.153-.254-.891-.763-1.655l-.917-1.375H95.86c-1.63 0-1.655 0-1.655.688ZM98.839 38.566c.28.662 1.375 2.343 1.477 2.292.942-.459 3.819-2.114 3.819-2.215 0-.077-1.222-.179-2.699-.204-1.477-.051-2.648.025-2.597.127ZM20.369 38.974c0 .05.738 1.4 1.63 2.978l1.654 2.852.764-1.528c.866-1.706.917-1.578-1.12-2.724-.688-.382-1.655-.916-2.088-1.197-.458-.28-.84-.458-.84-.381ZM105.076 39.075c-.101.153-1.069.764-2.164 1.35-1.069.61-2.011 1.12-2.062 1.171-.153.127 1.273 2.903 1.477 2.903.254 0 3.106-5.169 3.004-5.449-.051-.153-.153-.153-.255.026ZM17.593 42.08c-3.615 7.434-5.219 17.008-4.353 25.893.509 5.27 2.24 11.585 4.379 15.913l1.095 2.24.076-11.66c.026-6.416.026-16.855 0-23.17l-.076-11.508-1.12 2.292ZM107.19 62.907c0 12.705.051 23.093.127 23.093.28 0 2.241-4.583 3.183-7.435 3.819-11.483 3.259-24.086-1.554-35.314-.712-1.63-1.374-3.055-1.527-3.208-.127-.127-.229 8.326-.229 22.864ZM19.63 50.15c0 5.5.051 9.88.102 9.752.076-.152.331-1.833.611-3.768.357-2.444.866-4.532 1.68-6.95l1.146-3.463-1.578-2.775c-.891-1.528-1.68-2.776-1.783-2.776-.127 0-.203 4.507-.178 9.98ZM104.44 42.844c-.865 1.451-1.578 2.8-1.578 2.979 0 .178.356 1.222.763 2.291.892 2.317 1.706 5.55 2.165 8.606.305 1.986.331 1.375.356-7.206.026-5.143-.025-9.344-.051-9.344-.051 0-.815 1.197-1.655 2.674ZM25.257 43.71c-.458.814-.815 1.68-.815 1.909 0 .484 1.222 2.699 1.477 2.699.255 0 2.266-1.986 3.03-2.98.79-1.018.738-1.12-1.451-2.342l-1.426-.763-.815 1.476ZM53.264 43.277c-2.8 1.4-5.78 3.844-7.536 6.136-.79 1.018-1.426 1.986-1.426 2.113s1.248.891 2.724 1.731l2.724 1.502.764-.993c2.674-3.437 6.62-5.703 10.668-6.136 1.4-.152 1.477-.178 1.4-.789-.076-.56-.254-.687-1.476-.942-1.757-.33-3.514-1.35-4.66-2.673-.458-.56-.916-1.019-.967-1.019-.05 0-1.044.484-2.215 1.07Zm1.986.178c0 .28-1.502.916-1.68.713-.077-.077.178-.306.585-.535.84-.458 1.095-.484 1.095-.178Zm-3.437 1.96c-.866.662-1.4.917-1.4.637 0-.331 1.043-1.044 1.527-1.044.28.025.255.102-.127.407Zm-3.26 2.572c-.356.382-.763.585-.865.484-.102-.102.127-.484.535-.815.942-.815 1.222-.535.33.33Zm-1.96 2.037c0 .33-1.222 1.731-1.375 1.604-.178-.178.84-1.782 1.146-1.782.128 0 .23.076.23.178ZM69.814 42.513c.101.458-1.732 2.062-3.183 2.775-.535.28-1.477.611-2.037.687-.916.153-1.07.28-1.146.892-.076.636 0 .687.764.687 1.451 0 3.947.713 5.805 1.655 1.808.916 4.558 3.259 5.602 4.786l.585.866 2.19-1.273c1.197-.713 2.24-1.324 2.291-1.35.051-.05-.102-.381-.33-.763-.612-.891-.23-1.171.407-.28.28.382.61.687.738.687 1.197 0-2.979-4.914-6.034-7.052-1.095-.764-4.201-2.317-5.016-2.521-.56-.127-.713-.076-.636.204Zm3.539 2.19c-.357.127-1.808-.663-1.808-.994 0-.152.458 0 1.044.331.56.306.916.611.764.662Zm2.47 1.221c.534.382.763.866.381.866-.127-.025-.534-.305-.967-.636-.866-.713-.357-.892.585-.23Zm3.207 3.387c-.203.203-1.374-1.07-1.374-1.477 0-.255.28-.076.738.484.407.483.713.942.636.993ZM98.024 43.225c-.891.56-1.68 1.095-1.731 1.248-.102.306 3.208 3.845 3.615 3.845.306 0 1.681-2.114 1.681-2.572 0-.382-1.604-3.539-1.757-3.513-.077 0-.891.458-1.808.992ZM29.993 45.466c-.23.382-1.146 1.4-2.062 2.266l-1.63 1.579 2.063 3.564c1.145 1.96 2.164 3.59 2.265 3.59.128 0 1.044-.687 2.063-1.502 1.655-1.35 2.291-2.088 4.532-5.118l.636-.865-3.666-2.114c-2.011-1.17-3.692-2.113-3.717-2.113-.051 0-.255.306-.484.713ZM91.455 47.045c-1.858 1.095-3.462 2.062-3.539 2.139-.28.254 1.579 2.775 3.361 4.557 1.859 1.859 3.845 3.36 4.023 3.055.076-.127 1.044-1.807 2.19-3.793l2.062-3.59-2.19-2.215c-1.171-1.197-2.24-2.19-2.342-2.165-.102.026-1.706.917-3.565 2.012ZM23.22 48.369c-.662 1.757-.254 1.884 1.706.56.102-.077-.967-1.884-1.12-1.884-.051 0-.306.61-.586 1.324ZM101.487 47.936c-.306.56-.408.993-.255 1.145.28.28 2.139 1.07 2.139.917 0-.33-1.12-2.953-1.248-2.953-.102 0-.382.407-.636.89Z"/><path fill="#000" d="M59.96 48.7c-2.877.636-5.27 1.985-7.307 4.099-1.63 1.68-2.114 2.368-1.808 2.673.153.153.586-.204 1.197-.967 2.087-2.674 5.525-4.736 8.784-5.245 1.196-.178 1.807-.382 1.807-.611 0-.408-.687-.408-2.673.05ZM63.397 48.649c0 .254.586.458 1.91.662 2.673.432 5.448 1.858 7.333 3.768.789.815 1.63 1.731 1.858 2.062.204.306.51.51.637.433.789-.51-3.107-4.405-5.627-5.652-2.597-1.222-6.11-1.986-6.11-1.273ZM37.07 50.915c-1.12 1.604-3.818 4.328-5.473 5.576l-.866.636.611.942c.331.51.688.942.79.942.381 0 3.971-3.055 5.117-4.353 1.12-1.273 2.979-3.845 2.979-4.125 0-.127-1.706-1.197-1.91-1.197-.05 0-.61.713-1.247 1.579Z"/><path fill="#000" d="M60.087 49.87c-2.139.408-4.812 1.961-6.67 3.87-.968.968-1.732 1.86-1.681 1.987.051.153 1.502 1.095 3.259 2.113l3.183 1.884 1.018-.89c.535-.46 1.528-1.02 2.164-1.198l1.146-.33.076-3.87.077-3.845-.713.025c-.408.026-1.222.128-1.859.255ZM63.448 53.435l.077 3.87 1.196.357c.662.178 1.605.738 2.114 1.197l.916.865 3.234-1.858c1.757-1.019 3.259-1.96 3.31-2.114.152-.483-3.361-3.742-4.94-4.557-1.502-.79-4.175-1.604-5.397-1.604h-.586l.076 3.844ZM86.337 50.075c-.713.534-.585.84 1.146 3.08 1.655 2.14 5.703 5.856 6.365 5.856.127 0 .433-.356.662-.764l.433-.763-1.451-1.12c-1.782-1.35-4.252-3.947-5.373-5.576-.432-.662-.89-1.197-.993-1.197-.101 0-.458.229-.789.484ZM24.824 50.1c-.076.127-.61.382-1.17.535-.536.178-1.121.458-1.274.636-.305.357-1.375 5.525-1.604 7.715l-.127 1.35 1.069-.153c1.604-.255 5.5-1.63 6.849-2.394l1.171-.687-2.062-3.641c-1.935-3.36-2.47-3.997-2.852-3.36ZM98.304 53.41c-1.146 1.96-2.088 3.692-2.139 3.845-.127.687 6.544 3.284 8.428 3.284h.636l-.152-2.139c-.153-2.164-1.095-6.721-1.452-7.129-.152-.153-2.979-1.426-3.208-1.426-.025 0-.967 1.604-2.113 3.565ZM40.177 52.391c-1.298 1.986-4.125 4.965-6.034 6.366-.866.61-1.553 1.196-1.553 1.298 0 .127 1.069 1.96 3.895 6.747l.611 1.044 1.63-.407 1.63-.382-.077-3.387c-.128-3.946.254-6.06 1.655-9.573.483-1.247.84-2.291.789-2.342-.025-.026-.433-.23-.84-.459l-.764-.381-.942 1.476ZM83.842 51.398l-.79.51.841 1.833c1.451 3.157 1.757 4.685 1.808 9.191l.05 4.074 1.248.33c.662.204 1.375.383 1.553.408.204.026 1.299-1.604 2.623-3.844 1.247-2.14 2.266-3.921 2.266-3.972 0-.026-.637-.51-1.4-1.044-1.706-1.171-5.042-4.634-6.34-6.595-.51-.789-.968-1.425-.993-1.4-.026 0-.408.23-.866.51Z"/><path fill="#000" d="M43.436 52.952c-1.782 2.724-2.903 9.293-2.24 13.061.178.968.229 1.018 1.349 1.171 1.63.23 3.208 1.095 4.71 2.572 1.07 1.044 1.35 1.196 1.604.89.23-.305.127-.865-.51-2.749-.763-2.266-.788-2.546-.686-5.449.101-2.647.229-3.31.89-4.99l.765-1.935L47 54.25l-2.317-1.298-.357.865c-.178.484-.433.866-.56.866-.306 0-.28-.127.127-1.146.433-1.018.102-1.426-.458-.585Zm-.458 4.277c-.153.56-.357 1.019-.484 1.019-.306 0-.28-.255.05-1.248.408-1.146.74-.968.434.229Zm-.713 3.692c0 .636-.102 1.146-.255 1.146-.28 0-.356-1.248-.102-1.885.255-.662.357-.458.357.739Zm0 3.844c0 .535-.102.84-.255.739-.127-.077-.254-.56-.254-1.044 0-.535.102-.84.254-.738.153.076.255.56.255 1.043ZM80.329 53.512c-.993.56-2.215 1.298-2.725 1.604l-.942.56.51 1.018c1.654 3.412 1.63 9.115-.026 12.578-.484.993-.51 1.095-.076 1.4.382.28.585.153 1.604-.865 1.298-1.35 3.793-2.648 5.015-2.648 1.095 0 1.223-.51 1.197-4.456 0-2.266-.153-3.59-.56-5.092-.51-1.96-1.68-4.838-2.037-5.067-.102-.05-.993.382-1.96.968Zm2.291 1.247c.433 1.044.127 1.324-.33.306-.306-.637-.434-1.604-.179-1.375.05.076.28.56.51 1.07Zm1.146 3.87c0 .586-.077.688-.255.382-.127-.203-.254-.738-.254-1.145 0-.586.076-.688.254-.382.128.203.255.713.255 1.145Zm.51 3.336c0 .483-.103.865-.255.865-.128 0-.255-.458-.255-1.043 0-.611.102-.968.254-.866.153.076.255.56.255 1.044Zm-.154 3.768c-.076.356-.28.662-.407.662-.153 0-.178-.178-.102-.407.076-.23.153-.637.153-.942 0-.382.076-.459.28-.255.127.127.178.56.076.942Z"/><path fill="#000" d="M49.394 57.662c-.866 2.317-1.171 5.041-.815 7.282.356 2.342 1.248 4.76 1.731 4.76.459 0 .484.103-.33-1.934-.612-1.553-.688-2.114-.688-4.685-.026-2.903.076-3.36 1.247-6.442.128-.305.051-.432-.203-.432-.255 0-.611.56-.942 1.45ZM75.364 56.338c0 .102.305 1.018.687 2.011.586 1.553.662 2.215.688 4.609 0 2.317-.102 3.055-.586 4.328-.866 2.266-.891 2.419-.484 2.419.51 0 1.426-2.445 1.783-4.761.229-1.4.229-2.343 0-3.794-.331-2.113-1.273-4.71-1.757-4.889-.178-.05-.331 0-.331.077Z"/><path fill="#000" d="M50.31 58.731c-1.044 3.183-.865 7.104.459 9.624.229.459.458.84.509.84.076 0 6.034-3.411 6.467-3.717.05-.025-.051-.56-.23-1.196-.203-.84-.203-1.502-.025-2.394.204-.916.204-1.298-.025-1.527-.331-.306-5.423-3.26-6.085-3.514-.306-.127-.535.306-1.07 1.884ZM71.418 58.604c-2.674 1.604-3.056 1.935-3.005 2.47.178 1.68.178 2.724.026 3.539l-.204.89 3.208 1.86c1.757.992 3.31 1.782 3.412 1.705.127-.076.483-.79.79-1.604.508-1.222.585-1.935.585-4.506.025-2.674-.051-3.234-.611-4.558-.357-.84-.739-1.553-.891-1.578-.128-.026-1.63.763-3.31 1.782ZM28.643 58.273c-1.349.79-5.117 2.088-6.925 2.393l-1.095.178v2.292l1.222-.153c3.107-.458 9.217-2.75 9.217-3.488 0-.255-.967-2.037-1.095-1.986-.025 0-.61.331-1.324.764ZM95.172 58.833l-.407.866 2.19 1.044c2.24 1.069 5.041 1.909 7.256 2.24l1.197.153v-.917c0-.535-.128-.967-.306-1.018-.178-.051-1.349-.331-2.622-.637-1.91-.458-3.234-.967-6.646-2.47-.127-.076-.433.28-.662.739Z"/><path fill="#000" d="M60.851 58.986c-1.044.535-1.935 1.757-2.291 3.055-.739 2.75 2.139 5.933 4.965 5.5 4.2-.611 5.397-6.06 1.833-8.351-1.273-.84-3.157-.942-4.507-.204ZM29.305 61.608c-1.782.866-4.99 1.808-8.147 2.394-.586.127-.611.178-.433 2.088.306 3.564.942 6.772 1.96 9.853.943 2.851 3.081 7.765 3.387 7.765.076 0 1.247-.662 2.622-1.45 1.375-.79 2.98-1.707 3.59-2.063.586-.331 1.07-.662 1.07-.739 0-.076-.179-.763-.408-1.553-.84-2.902-.102-5.881 2.088-8.224l1.222-1.298-.586-1.044c-2.01-3.59-3.946-6.798-4.073-6.773-.077 0-1.12.484-2.292 1.044ZM92.397 63.645c-.993 1.731-2.037 3.488-2.291 3.921l-.459.764 1.146 1.146c2.113 2.062 3.08 5.245 2.393 7.867-.152.636-.356 1.375-.432 1.68-.102.459.381.815 3.513 2.623 2.8 1.63 3.666 2.037 3.845 1.757.127-.179.585-1.07 1.018-1.986 2.47-5.296 3.896-10.618 4.074-15.404l.076-2.037-1.527-.178c-2.063-.255-5.474-1.35-7.562-2.394-.942-.483-1.782-.865-1.833-.865-.077 0-.942 1.4-1.96 3.106ZM67.318 66.675c-.61.662-2.291 1.655-3.208 1.859l-.713.152V76.325h.637c2.673 0 6.212-1.68 8.606-4.1.942-.967 1.706-1.858 1.706-1.986 0-.127-1.172-.89-2.597-1.706-1.452-.789-2.928-1.654-3.285-1.91-.662-.457-.687-.457-1.146.052ZM54.868 68.177c-1.68.968-3.08 1.859-3.106 1.96-.128.357 2.419 3.081 3.64 3.922 1.452.993 4.049 1.96 5.831 2.164l1.4.178v-7.715l-.687-.152c-1.07-.255-2.444-.993-2.979-1.604-.28-.306-.611-.535-.764-.535-.153.025-1.655.815-3.335 1.782ZM19.605 76.757c0 5.602.076 10.261.178 10.338.153.178 2.342-.968 4.455-2.266l.942-.611-1.17-2.47c-1.783-3.82-3.107-8.071-3.616-11.687-.255-1.756-.535-3.259-.637-3.335-.076-.102-.152 4.43-.152 10.031Z"/><path fill="#000" d="M105.916 68.152c0 2.673-2.011 9.65-3.971 13.698-.637 1.324-1.121 2.444-1.07 2.47.688.483 5.118 2.953 5.194 2.876.153-.152.128-19.579-.025-19.732-.077-.076-.128.23-.128.688ZM38.344 68.533c-3.64 1.553-5.55 5.194-4.608 8.86.84 3.336 3.462 5.526 6.874 5.755 4.481.28 8.122-3.132 8.122-7.587-.026-5.296-5.576-9.039-10.388-7.028Zm5.703.688c4.43 1.96 5.5 7.74 2.088 11.254-1.553 1.629-2.673 2.087-5.016 2.087-2.342 0-3.462-.458-5.016-2.087-2.418-2.496-2.698-6.34-.636-9.014 2.139-2.8 5.372-3.64 8.58-2.24Z"/><path fill="#000" d="M38.267 69.68c-5.168 2.444-4.99 9.624.306 12.017 2.164.993 5.067.484 7.053-1.273 2.851-2.495 2.698-7.587-.331-9.98-2.063-1.63-4.583-1.91-7.028-.765ZM82.722 68.253c-4.125 1.171-6.416 5.805-4.965 10.057 1.248 3.667 5.83 5.78 9.65 4.481 1.578-.534 3.666-2.444 4.404-4.048.866-1.858.866-4.634-.05-6.416-1.63-3.284-5.576-5.041-9.04-4.074Zm5.143.993c.662.28 1.528.866 1.96 1.299 3.489 3.64 2.521 9.09-2.036 11.559-1.273.687-4.583.636-5.933-.102-2.47-1.324-3.946-3.743-3.946-6.441 0-5.194 5.041-8.403 9.955-6.315Z"/><path fill="#000" d="M82.747 69.323c-1.553.51-2.8 1.579-3.692 3.208-1.324 2.419-.916 5.525.968 7.562 1.731 1.884 5.092 2.648 7.333 1.655 1.553-.688 2.877-1.91 3.513-3.234.662-1.35.739-4.379.128-5.525-.612-1.196-2.14-2.775-3.26-3.335-1.298-.662-3.513-.815-4.99-.331ZM50.667 70.698c0 .407 1.782 2.444 3.106 3.539 1.731 1.451 3.36 2.266 5.754 2.877 2.24.56 3.106.611 3.106.153 0-.204-.687-.433-1.935-.637-3.259-.509-6.798-2.597-8.63-5.117-.688-.943-1.401-1.375-1.401-.815ZM73.836 71.665c-1.808 2.419-5.194 4.405-8.453 4.94-1.298.203-1.986.432-1.986.661 0 .408.459.408 2.623-.05 2.24-.459 3.997-1.273 5.958-2.776 1.349-1.018 3.386-3.31 3.386-3.819 0-.483-.764.026-1.528 1.044Z"/><path fill="#000" d="M49.19 71.436c-.254.178-.229.535.102 1.859.484 1.858.356 4.328-.28 5.55-.382.764-.382.764.713 1.63 2.648 2.19 7.307 4.023 11.1 4.404l1.834.179-.076-3.285-.077-3.284-1.527-.178c-3.947-.51-7.97-2.801-10.312-5.933-.917-1.222-.968-1.247-1.477-.942Zm1.986 8.708c.535.458.739.763.51.763-.357 0-1.783-1.12-1.783-1.4 0-.28.433-.05 1.273.637Zm3.768 2.24c.077.255-.076.255-.738-.025-.458-.178-.891-.484-.942-.637-.076-.254.076-.254.738.026.459.178.892.483.942.636Zm2.826.713c.433.102.79.28.79.407 0 .306-1.528.051-1.884-.305-.306-.305-.051-.331 1.094-.102Zm4.482.866c.101.153-.255.254-.866.254-.586 0-1.044-.127-1.044-.254 0-.153.382-.255.866-.255.483 0 .967.102 1.044.255ZM75.466 72.174c-2.572 3.387-6.416 5.627-10.414 6.136l-1.527.179-.077 2.622-.076 2.597h.79c.941 0 1.018.433.076.56-.357.051-.739.23-.79.433-.178.51 2.98.153 5.755-.636 3.208-.942 8.478-4.023 8.045-4.71-.076-.153-.28-.204-.458-.153-.484.203-.51-4.838-.026-6.315.357-.993.357-1.247.077-1.425-.51-.332-.611-.306-1.375.712Zm-.357 8.173c0 .255-1.527 1.146-1.68.993-.153-.153 1.146-1.196 1.451-1.196.128 0 .23.102.23.203Zm-3.055 1.706c0 .051-.356.306-.79.51-1.018.534-1.603.33-.61-.204.738-.408 1.4-.56 1.4-.306Zm-3.717 1.4c-.382.382-1.884.612-1.884.306 0-.255.61-.458 1.655-.535.305-.025.407.051.229.23ZM30.477 82.282c-1.808 1.019-3.412 2.012-3.565 2.165-.178.178-.025.662.611 1.654 2.47 3.947 6.747 8.403 11.076 11.509l2.266 1.604.636-.815c1.4-1.833 4.074-4.405 5.933-5.703 1.094-.79 1.96-1.553 1.91-1.731-.052-.153-1.045-1.961-2.241-3.998l-2.14-3.717-1.043.407c-.586.204-1.833.382-2.928.382-2.342 0-4.38-.84-6.009-2.546-.585-.611-1.12-1.095-1.17-1.095-.026 0-1.554.84-3.336 1.884Z"/><path fill="#000" d="m47.026 81.697-1.197 1.222 1.935 3.386c1.07 1.859 2.088 3.641 2.292 3.947l.356.56 1.655-.764c2.394-1.07 5.78-1.986 8.275-2.215l2.164-.178v-1.783l-2.037-.178c-3.615-.33-8.198-2.088-10.973-4.226l-1.273-.993-1.197 1.222ZM76.637 81.34c-2.954 2.266-7.358 4.023-10.974 4.329l-2.138.203v1.783l1.935.178c2.622.229 5.015.815 7.638 1.859 1.222.483 2.291.89 2.419.89.127 0 1.222-1.73 2.444-3.844l2.24-3.82-1.222-1.221-1.196-1.222-1.146.865ZM91.022 81.442c-1.35 1.4-2.75 2.164-4.634 2.52-1.324.255-1.858.255-3.513-.127-1.07-.229-1.986-.381-2.011-.33-.051.025-.84 1.45-1.808 3.131-.942 1.68-1.935 3.36-2.19 3.743-.28.382-.484.738-.484.815 0 .05.484.382 1.095.738 1.68.993 4.838 3.794 6.162 5.5.662.865 1.324 1.553 1.451 1.553.433 0 2.928-1.732 5.22-3.641 2.75-2.292 5.677-5.55 7.689-8.555 1.375-2.037 1.4-2.139.916-2.495-.56-.408-6.62-3.896-6.772-3.896-.051 0-.56.459-1.12 1.044ZM23.118 86.483c-1.35.79-2.546 1.502-2.622 1.604-.076.077 1.884 1.324 4.38 2.776 2.494 1.425 6.135 3.539 8.096 4.684 3.615 2.139 5.55 3.183 5.092 2.75-.127-.127-1.146-.891-2.24-1.706-2.521-1.884-6.01-5.576-8.097-8.555-.891-1.298-1.732-2.47-1.884-2.648-.204-.254-.84 0-2.725 1.095Z"/><path fill="#000" d="M98.482 87.73c-2.037 2.98-6.289 7.46-8.835 9.32-.89.636-1.527 1.17-1.4 1.17.102 0 1.63-.84 3.386-1.883 8.122-4.736 12.96-7.537 13.367-7.69.789-.305.357-.763-2.139-2.19l-2.546-1.425-1.833 2.699ZM60.342 88.698c-3.59.56-6.11 1.248-8.224 2.317l-1.197.586.382.764c.204.407.484.789.611.865.128.077.942-.178 1.834-.585 2.062-.917 4.634-1.553 7.027-1.731l1.858-.153v-1.095c0-1.095-.025-1.12-.814-1.095a21.4 21.4 0 0 0-1.477.127ZM63.397 89.666v1.171h.917c2.291 0 5.83.866 8.81 2.14l.916.406.535-.916.534-.891-1.706-.79c-2.087-.942-5.652-1.858-8.147-2.113l-1.859-.178v1.171ZM21.413 90.76c2.698 3.998 7.485 9.09 11.05 11.815 7.79 5.957 16.6 9.344 26.733 10.286 2.19.204 2.139.127-1.527-1.986-1.553-.891-5.55-3.183-8.912-5.118-3.36-1.935-7.536-4.354-9.293-5.372-1.757-1.018-6.645-3.87-10.897-6.34-4.252-2.47-7.766-4.48-7.842-4.48-.076 0 .255.534.688 1.196ZM103.854 90.277c-.611.382-2.775 1.68-4.812 2.852-2.036 1.145-6.085 3.513-9.038 5.22a3142.78 3142.78 0 0 1-12.094 7.001c-10.363 5.983-12.781 7.409-12.654 7.536.204.204 5.194-.382 7.766-.916 9.394-1.961 17.593-6.289 24.57-12.985 3.284-3.132 7.917-8.886 7.51-9.293-.051-.077-.611.203-1.248.585Z"/><path fill="#000" d="M57.541 91.881c-2.19.56-4.583 1.451-5.016 1.859-.203.204.179 1.044 1.553 3.386 1.019 1.706 1.91 3.183 1.986 3.259.077.076.993-.127 2.012-.484 1.044-.356 2.495-.713 3.233-.814l1.324-.179v-7.561l-1.578.025c-.891 0-2.47.23-3.514.51ZM63.397 95.09v3.844l1.452.178c.814.102 2.24.458 3.208.815.967.356 1.858.534 1.96.407.102-.102 1.019-1.63 2.011-3.386 1.426-2.495 1.732-3.208 1.452-3.361-1.35-.764-6.009-2.037-7.919-2.164l-2.164-.153v3.82ZM48.35 93.129c-2.724 1.884-6.34 5.601-6.34 6.492 0 .178.331.458.739.637.713.28.814.254 1.604-.688 1.375-1.63 3.31-3.386 4.914-4.455.84-.586 1.578-1.095 1.63-1.146.177-.127-.688-1.859-.917-1.833-.128 0-.84.458-1.63.993ZM75.415 92.976l-.535.891 1.655 1.044c.891.585 2.622 2.113 3.82 3.386l2.189 2.292.865-.459.84-.458-.56-.79c-1.374-1.96-4.99-5.142-7.485-6.594-.153-.101-.484.179-.79.688ZM48.961 95.93c-2.724 2.01-5.041 4.557-4.608 4.99.381.382 4.048 1.909 6.11 2.546l1.451.433 1.095-.993c.611-.535 1.375-1.171 1.706-1.401l.637-.407-1.935-3.284c-1.07-1.783-2.037-3.31-2.165-3.336-.127-.05-1.17.611-2.291 1.452Z"/><path fill="#000" d="m72.589 97.763-1.885 3.335.739.535c.407.305 1.171.942 1.731 1.425l.968.866 2.342-.789c3.31-1.146 5.245-2.063 5.245-2.47 0-.84-6.136-6.289-7.053-6.263-.101.025-1.044 1.527-2.087 3.36ZM58.763 100.589c-.942.331-1.807.687-1.91.789-.101.102.128.789.535 1.502 1.223 2.292 1.197 2.266 3.336 2.419l1.91.127v-5.423h-1.07c-.611 0-1.859.28-2.8.586ZM63.397 102.651v2.699h1.095c2.495 0 2.775-.153 3.82-1.961.508-.916.941-1.756.941-1.858 0-.357-2.775-1.273-4.353-1.452l-1.503-.152v2.724ZM54.308 102.957c-.611.509-1.095.993-1.095 1.12 0 .102.764.331 1.731.484.942.178 1.91.356 2.19.458.407.102.331-.102-.382-1.426-.484-.865-.967-1.553-1.12-1.553-.127 0-.739.407-1.324.917ZM69.304 103.415c-.942 1.604-.967 1.655-.356 1.553.23-.051 1.197-.229 2.164-.407.942-.153 1.706-.382 1.706-.509 0-.204-2.24-2.012-2.52-2.012-.103 0-.535.611-.994 1.375ZM45.193 102.524c.076.127.84.636 1.731 1.12.866.484 4.482 2.571 8.046 4.608 3.539 2.063 6.492 3.692 6.518 3.667.05-.051-.688-1.375-1.604-2.979l-1.706-2.928-2.546-.408c-3.233-.56-6.009-1.349-8.555-2.444-1.12-.458-1.96-.764-1.884-.636ZM78.547 103.338c-2.114.917-5.627 1.859-8.53 2.317-1.604.255-2.19.459-2.444.841-.738 1.12-3.106 5.346-3.03 5.423.051.051 14.716-8.326 15.913-9.09.713-.483-.127-.229-1.91.509ZM59.604 106.674c.178.331.89 1.553 1.604 2.75l1.298 2.164.077-2.521c.05-1.859-.026-2.597-.255-2.75-.178-.102-.942-.203-1.68-.203-1.324 0-1.324 0-1.044.56ZM63.5 106.445c-.077.203-.077 1.425-.052 2.749l.077 2.394 1.12-1.91c.636-1.044 1.35-2.291 1.63-2.75l.483-.814h-1.553c-1.07 0-1.604.101-1.706.331Z"/></svg>