<svg xmlns="http://www.w3.org/2000/svg" fill="none" viewBox="0 0 434 434"><path fill="#000" d="M188.029 2.068c-66.547 8.856-125.29 48.31-159.485 107.142-13.59 23.322-22.533 49.625-26.917 78.734-1.929 12.626-2.192 44.014-.526 56.114 7.102 50.852 28.934 94.253 65.144 129.324 32.88 31.914 71.633 51.115 118.716 58.831 12.011 2.017 48.222 2.28 60.497.526 49.976-7.189 93.815-29.547 128.096-65.32 25.339-26.478 43.576-58.656 53.308-94.516 12.976-47.784 8.066-102.319-13.151-147.122C380.919 56.603 316.915 10.398 241.688 1.63c-14.905-1.754-38.754-1.578-53.659.438Zm55.851 3.069c40.068 5.26 75.227 20.253 107.141 45.68 42.348 33.843 69.09 81.014 77.77 137.127 1.929 12.363 2.192 42.787.438 55.237-6.575 47.696-25.251 87.326-57.077 121.257-14.116 14.993-35.422 31.301-53.571 41.209-15.87 8.504-36.825 16.308-54.448 20.253-17.974 3.946-23.585 4.472-48.485 4.472-26.304-.088-34.282-1.052-56.377-7.102-49.976-13.678-93.026-45.592-123.011-91.272-6.05-9.206-17.536-32.791-21.306-43.751-3.945-11.661-7.978-28.057-9.907-40.682-2.192-14.116-2.105-47.258.087-61.375 3.332-21.656 9.557-41.734 18.851-60.935C41.17 89.658 65.281 61.689 97.722 39.857c27.793-18.763 57.516-29.986 91.885-34.72 12.1-1.666 41.559-1.666 54.273 0Z"/><path fill="#000" d="M201.181 7.855c-22.358 2.542-34.458 4.997-51.029 10.521-43.838 14.642-81.803 43.751-107.755 82.68-46.995 70.492-47.17 161.94-.35 231.994 9.205 13.853 13.414 18.938 25.689 31.388 17.974 18.15 33.843 29.723 56.639 40.946 7.803 3.857 18.237 8.417 23.322 10.083 77.069 26.478 161.765 6.838 217.966-50.59 10.96-11.135 16.659-17.974 24.111-28.758 19.728-28.496 32.09-61.813 35.86-96.884 1.14-10.17 1.14-33.756 0-43.838-6.225-55.676-32.703-104.512-76.279-140.81-15.694-13.064-42.874-28.32-62.777-35.247-11.047-3.857-27.706-7.978-39.805-9.82-8.768-1.315-39.017-2.454-45.592-1.665Zm39.016 10.083c62.163 6.75 120.293 45.154 151.243 99.864 44.19 78.296 31.301 177.108-31.564 240.324-16.483 16.483-31.125 27.267-51.291 37.701-19.903 10.258-43.312 17.623-65.758 20.516-12.275 1.666-37.613 1.842-49.099.439-43.663-5.349-83.381-23.848-114.77-53.483-51.115-48.398-72.684-118.277-58.393-188.682 5.875-28.846 22.533-62.689 42.348-86.274 35.159-41.91 87.502-68.301 141.336-71.37 12.45-.701 23.673-.35 35.948.965Z"/><path fill="#000" d="M199.252 20.393c-3.682.263-6.839.702-7.014.965-.263.263-.176 2.805.087 5.699l.527 5.26 5.699-.263c3.156-.175 6.838-.438 8.154-.701 2.367-.526 2.455-.614 2.191-5.874-.263-6.138.264-5.875-9.644-5.086ZM211.702 24.163c0 2.542.351 5.085.702 5.699.35.614 3.507 1.052 8.066 1.227l7.452.176.263-5.787.263-5.874H211.702v4.559ZM231.868 25.215c0 2.718-.088 5.173-.175 5.524-.351.877 14.466 2.893 15.168 2.104.351-.263.877-2.718 1.14-5.436.701-5.874.964-5.699-9.031-6.488l-7.102-.701v4.997ZM177.508 23.374c-2.63.438-4.997.964-5.173 1.14-.701.613 1.929 10.872 2.894 10.872.526 0 4.033-.439 7.803-1.053 7.54-1.14 7.452-1.052 6.225-8.855-.526-3.069-.702-3.244-3.77-3.156-1.754.087-5.349.526-7.979 1.052ZM251.683 24.601c-.263.877-.701 3.42-.965 5.611l-.613 4.034 7.628 1.49c4.208.877 7.715 1.403 7.891 1.228.789-.965 2.893-9.996 2.367-10.434-.526-.526-13.327-3.42-15.081-3.42-.438 0-.964.702-1.227 1.491ZM159.797 28.02c-3.77 1.228-6.839 2.63-6.839 3.157 0 2.28 3.157 9.47 4.209 9.47.613 0 4.033-.878 7.715-1.93 6.576-1.929 6.576-1.929 6.05-4.647-1.052-5.085-2.367-8.329-3.332-8.329-.613.088-4.121 1.052-7.803 2.28ZM270.183 32.493c-.702 2.806-1.228 5.26-.965 5.611.439.79 14.379 5.524 14.642 5.086 1.14-1.754 3.244-9.645 2.806-10.346-.351-.702-13.327-5.349-14.817-5.349-.088 0-.877 2.28-1.666 4.998ZM142.7 34.07c-9.645 3.683-9.294 3.245-6.927 8.417 1.14 2.368 2.28 4.647 2.631 4.91.526.526 12.538-3.77 13.94-4.91.79-.789-2.279-9.995-3.419-10.258-.438-.175-3.244.702-6.225 1.842ZM201.619 33.282c-27.355 3.069-47.872 8.943-69.177 19.903l-6.839 3.507 22.182 5.962c12.275 3.331 24.024 6.488 26.128 6.926l3.946.965 18.412-18.237c10.17-9.995 18.587-18.5 18.763-18.939.35-.613-8.067-.613-13.415-.087ZM237.742 51.694l19.114 18.938 23.673-6.313c13.064-3.507 24.462-6.663 25.338-7.014 5.349-1.929-29.547-16.045-51.028-20.516-9.907-2.105-25.602-4.034-32.879-4.034h-3.332l19.114 18.939ZM288.946 38.805c-1.754 4.121-2.28 6.225-1.491 6.225.176 0 3.332 1.403 7.015 3.069l6.663 2.981 2.192-4.296c1.227-2.367 2.192-4.735 2.192-5.26 0-.878-12.275-7.015-13.941-7.015-.438 0-1.578 1.929-2.63 4.296ZM198.551 53.36c-14.467 14.466-17.624 17.973-16.308 18.5 1.227.438 5.173-2.982 17.973-15.783 8.944-8.943 16.659-16.308 17.01-16.308.438 0 8.066 7.278 17.009 16.22 15.081 15.081 18.676 17.975 18.676 15.081 0-1.227-34.195-35.684-35.51-35.684-.526 0-8.943 8.066-18.85 17.973ZM123.323 43.189c-3.595 1.928-6.663 3.682-6.926 3.945-.263.175.876 2.543 2.455 5.173l2.805 4.735 6.664-3.508c3.682-1.928 6.839-3.682 7.014-3.77.614-.526-3.858-9.995-4.735-9.995-.438 0-3.77 1.578-7.277 3.42Z"/><path fill="#000" d="m201.707 58.094-14.73 14.817 2.893.877c5.349 1.666 26.216 7.19 27.356 7.19.789 0 24.111-5.962 29.372-7.54 1.227-.351-27.619-30.162-29.197-30.162-.526 0-7.54 6.664-15.694 14.818ZM306.394 47.397c-1.228 2.368-2.28 4.384-2.368 4.647-.35.614 12.275 7.891 13.415 7.891.438 0 1.929-2.016 3.332-4.471 2.016-3.683 2.279-4.647 1.315-5.26-4.384-2.982-11.574-6.927-12.538-6.927-.526 0-2.017 1.84-3.156 4.12ZM106.665 53.272c-7.979 5.436-7.803 4.997-4.033 9.995l3.244 4.384 6.488-4.296c3.507-2.368 6.4-4.56 6.4-4.735 0-.877-5.436-9.206-5.962-9.206-.351 0-3.156 1.753-6.137 3.858ZM323.579 57.042c-1.754 2.28-3.157 4.471-3.157 4.734 0 .351 2.806 2.63 6.225 5.173l6.313 4.56 3.332-3.858c1.841-2.017 3.331-4.033 3.419-4.297 0-.701-3.156-3.419-8.505-7.277l-4.559-3.244-3.068 4.209ZM114.819 63.617c-16.396 11.048-31.126 24.638-42.699 39.28-6.137 7.803-15.168 21.042-14.291 21.042.175 0 7.364-1.928 15.957-4.296a1996.23 1996.23 0 0 1 24.9-6.663c5.173-1.315 9.732-2.631 10.258-2.981.527-.263 3.946-11.749 7.541-25.427 3.682-13.677 6.926-25.163 7.189-25.601.965-1.666-1.315-.526-8.855 4.647ZM303.764 60.462c-2.192.614-12.801 3.507-23.498 6.4-10.784 2.806-20.078 5.612-20.604 6.138-2.63 2.63 3.945 1.666 24.111-3.77 12.1-3.244 22.27-5.524 22.621-5.173.351.35 1.227 3.069 2.016 5.962 3.332 13.327 9.645 36.123 10.346 37.438.526.877 1.491 1.578 2.192 1.578.877 0 1.14-.526.877-1.578-.263-.789-3.244-11.661-6.576-24.199-3.331-12.45-6.4-22.971-6.839-23.322-.35-.35-2.455-.175-4.646.526ZM311.654 59.672c0 1.754 13.152 49.713 13.766 50.239.35.351 4.033 1.491 8.153 2.543 11.223 2.806 38.842 10.346 40.595 11.047 2.806 1.14 2.017-.35-7.365-13.59-11.749-16.658-28.495-33.054-45.241-44.452-9.469-6.4-9.908-6.663-9.908-5.787ZM125.34 60.988c-1.052 2.981-12.713 46.732-12.713 47.521 0 .263.614.526 1.315.526 1.754 0 2.192-1.14 8.505-24.812 2.981-11.223 5.523-20.517 5.611-20.692.176-.176 10.083 2.367 22.183 5.611 21.305 5.7 24.637 6.313 25.251 4.296.263-.877-44.891-13.502-48.311-13.502-.789 0-1.665.526-1.841 1.052ZM90.094 65.722c-3.244 2.806-6.138 5.173-6.313 5.349-.175.087 1.403 2.104 3.595 4.471l3.945 4.209 5.348-4.472c2.981-2.455 5.612-4.734 5.962-5.085.614-.614-3.244-6.751-5.348-8.505-.877-.789-2.63.263-7.19 4.033ZM338.659 69.492l-3.244 4.12 5.611 4.998c3.069 2.718 5.962 4.998 6.313 4.998 1.14 0 7.277-6.488 7.277-7.54 0-.965-11.31-10.872-12.275-10.872-.263.087-1.929 1.929-3.682 4.296Z"/><path fill="#000" d="M126.304 78.962c-1.841 7.101-4.296 16.307-5.523 20.34-1.14 4.034-1.929 7.541-1.666 7.716.175.263 7.014-1.315 15.08-3.507l14.642-3.945 10.872-10.872c5.875-5.875 10.785-10.96 10.785-11.223 0-.263-8.593-2.806-19.026-5.611-10.522-2.806-19.728-5.349-20.429-5.524-1.052-.263-2.104 2.543-4.735 12.626ZM283.86 71.596c-10.784 2.894-19.552 5.524-19.552 5.787 0 .614 5.436 6.313 14.642 15.256l7.015 6.839 12.187 3.331c6.663 1.842 13.414 3.683 14.905 3.946l2.805.614-2.981-11.223c-1.665-6.138-4.12-15.431-5.436-20.604-1.315-5.26-2.718-9.382-3.244-9.382-.438.088-9.644 2.543-20.341 5.436ZM178.209 74.051c-.876.526-1.578 1.228-1.578 1.666 0 1.228 3.244 1.052 4.033-.088.877-1.49-.789-2.542-2.455-1.578ZM253.349 73.877c-.263.438.175 1.49.965 2.192.701.789 1.753 1.227 2.191.964 1.228-.877.877-2.805-.613-3.42-1.754-.7-1.929-.7-2.543.264ZM74.925 79.663l-5.611 5.699 2.981 3.156c5.085 5.26 5.26 5.26 11.223-.789l5.436-5.436-3.595-4.208c-1.929-2.28-3.858-4.121-4.209-4.121-.263 0-3.156 2.542-6.225 5.699ZM183.646 76.155c-.614.702-.965 1.49-.79 1.666.176.088 5.086 1.49 10.96 2.981 10.258 2.718 17.886 3.595 17.886 2.017 0-.351-5.523-2.192-12.362-3.946-6.751-1.841-12.801-3.42-13.415-3.682-.614-.263-1.666.175-2.279.964ZM241.951 77.12c-4.296 1.14-10.346 2.718-13.327 3.507-5.962 1.578-6.576 2.981-1.315 2.981 3.419 0 22.883-4.91 24.111-6.05.351-.35.175-1.14-.438-1.578-.79-.701-3.332-.35-9.031 1.14ZM163.918 87.992c-7.979 8.066-9.294 9.645-7.541 9.645 1.491 0 4.823-2.63 11.135-8.943 4.998-4.91 9.119-9.207 9.119-9.645 0-2.543-4.384.526-12.713 8.943ZM258.171 79.05c0 .964 11.398 12.888 15.431 16.044 1.754 1.403 4.034 2.543 5.086 2.543 1.402 0-.526-2.368-7.804-9.645-8.329-8.417-12.713-11.486-12.713-8.943ZM172.51 87.379c-4.471 4.471-6.926 7.627-5.962 7.364 16.045-4.12 33.756-9.03 33.756-9.381 0-.263-4.559-1.666-9.995-3.156l-10.083-2.63-7.716 7.803ZM353.126 82.907l-3.595 3.77 5.348 5.874 5.436 5.787 4.297-3.683 4.208-3.77-5.436-5.786c-2.981-3.244-5.699-5.875-6.05-5.875-.35 0-2.192 1.666-4.208 3.683ZM248.965 80.89c-.964.439-4.647 1.403-8.066 2.28-3.507.877-6.401 1.753-6.401 2.104 0 .439 24.375 7.365 33.318 9.47 1.666.35.438-1.228-5.261-7.103-7.54-7.715-9.206-8.504-13.59-6.75ZM214.157 84.222c-.877.176-1.578.702-1.578 1.053 0 1.14 4.822 1.84 7.54 1.052l2.543-.702-2.455-1.052c-2.543-.964-3.42-1.052-6.05-.35ZM197.674 88.869c-3.157.877-11.837 3.244-19.289 5.26-7.453 1.93-14.643 3.946-15.958 4.472-2.192.877-6.049 4.296-4.822 4.296.526 0 47.784-12.538 51.73-13.677 2.542-.79.701-2.105-2.718-2.017-1.754 0-5.787.79-8.943 1.666ZM223.626 87.905c-.35.526-.438.964-.175.964.438 0 48.836 12.801 51.642 13.678 2.192.701 1.841-1.14-.614-2.718-2.63-1.754-39.542-11.749-45.767-12.45-2.894-.351-4.735-.088-5.086.526ZM62.3 94.217c-2.367 2.981-4.296 5.962-4.384 6.751 0 .702 1.754 2.631 3.946 4.209l4.033 2.981 4.471-5.699c2.455-3.069 4.647-5.962 4.735-6.4.263-.79-6.839-7.19-7.89-7.19-.352 0-2.544 2.455-4.91 5.348ZM209.949 91.412c-3.156.876-6.225 1.666-6.839 1.929-.526.175 5.611.35 13.765.35s14.73-.087 14.555-.263c-.439-.438-13.766-3.682-14.818-3.594-.526 0-3.507.789-6.663 1.578ZM366.102 97.461l-3.858 3.332 4.647 6.313c2.543 3.507 4.822 6.312 4.998 6.312.263 0 1.49-.789 2.718-1.753a210.74 210.74 0 0 1 4.296-3.332l2.016-1.49-4.647-6.313c-2.455-3.507-4.909-6.4-5.436-6.4-.438 0-2.63 1.49-4.734 3.331ZM197.937 97.11c-3.507.614-6.576 1.316-6.927 1.666-.701.702.351 8.33 1.315 8.856.351.263 3.771-.088 7.628-.702l6.927-1.052.263-4.998c.263-5.699.964-5.435-9.206-3.77ZM209.072 100.705v4.823h15.519l.613-3.332c1.052-6.576 1.403-6.313-7.803-6.313h-8.329v4.822ZM227.221 96.497c-.439.877-.877 9.031-.439 9.031.176.087 3.42.613 7.277 1.315 3.858.701 7.278 1.315 7.541 1.315.35 0 .789-1.14 1.052-2.543.263-1.403.789-3.507 1.052-4.734.526-2.105.351-2.28-4.121-3.069-7.979-1.578-12.012-1.929-12.362-1.315ZM179.261 101.67c-3.595 1.227-6.663 2.367-6.839 2.543-.701.701 3.683 9.206 4.56 8.855.526-.263 3.77-1.315 7.101-2.367 3.42-1.052 6.226-2.017 6.401-2.104.088-.088-.263-2.192-.877-4.735-1.14-5.26-1.315-5.26-10.346-2.192ZM245.458 100.443c-1.666 4.997-2.017 7.803-1.052 8.154.613.263 4.033 1.315 7.715 2.455l6.751 2.104 1.052-3.419c.527-1.929 1.228-4.034 1.403-4.647.351-.789-1.753-1.842-6.4-3.42-7.716-2.542-8.943-2.718-9.469-1.227ZM150.679 101.933c-3.595 2.192-4.472 3.595-2.28 3.595 1.841 0 6.313-3.157 6.313-4.472 0-1.227-.964-.964-4.033.877ZM279.214 101.056c0 .964 5.436 4.472 6.926 4.472 1.666 0 1.052-1.666-.964-2.981-2.806-1.754-5.962-2.543-5.962-1.491ZM131.477 106.58c-11.486 3.244-15.606 5.085-14.204 6.488.351.35 5.612-.702 11.749-2.368 8.33-2.192 11.837-3.507 13.853-5.348 1.403-1.315 2.28-2.367 1.754-2.367-.439.087-6.401 1.666-13.152 3.595ZM163.48 103.774c-1.228.439-3.946 1.228-6.05 1.754-2.806.789-5.436 2.455-9.469 6.313-3.069 2.981-5.524 5.699-5.524 6.05 0 .438 2.104-.79 4.647-2.718 2.455-1.929 8.329-5.524 12.888-7.891 7.628-3.946 9.119-5.436 3.508-3.508ZM266.939 103.161c0 .175 3.682 2.104 8.154 4.384 4.384 2.279 10.17 5.699 12.713 7.628 2.455 1.928 4.559 3.156 4.559 2.718 0-1.491-11.31-11.399-13.677-11.925-1.403-.35-4.297-1.139-6.401-1.841-3.858-1.227-5.348-1.49-5.348-.964ZM289.735 103.774c0 1.842 5.611 4.209 16.308 7.015 5.962 1.578 11.135 2.63 11.486 2.279 1.402-1.403-2.718-3.244-13.766-6.137-6.488-1.754-12.362-3.42-12.888-3.595-.614-.175-1.14 0-1.14.438ZM53.708 106.141c-2.981 3.507-7.803 11.924-7.102 12.538.35.351 2.543 1.666 4.734 2.981l4.034 2.279 4.033-6.137c2.28-3.332 4.12-6.4 4.12-6.839 0-.614-7.452-6.313-8.241-6.313-.088 0-.877.702-1.578 1.491ZM162.164 108.772c-3.331 1.665-6.312 3.244-6.488 3.419-.35.263 4.121 8.242 4.647 8.242 1.228 0 13.678-6.488 13.678-7.102 0-2.367-2.981-7.803-4.296-7.803-.789.087-4.121 1.49-7.541 3.244ZM261.591 109.56c-.965 2.28-1.579 4.209-1.491 4.297.175.175 3.069 1.578 6.401 3.156 3.419 1.578 6.4 2.981 6.663 3.156.614.351 5.173-6.312 5.173-7.628 0-.964-11.573-7.014-13.59-7.014-.789 0-2.104 1.754-3.156 4.033ZM144.191 109.122c-3.244 1.316-34.107 32.266-35.597 35.773-.702 1.666-1.14 3.068-.965 3.244.176.175 9.294-8.768 20.341-19.815 11.135-11.135 19.728-20.166 19.289-20.078-.526 0-1.841.438-3.068.876ZM199.866 109.122c-7.278 1.053-17.01 4.034-26.041 7.891-7.54 3.244-17.71 8.943-18.675 10.434-.438.701 3.858 3.156 27.794 15.694l12.012 6.313 10.17-20.166c5.524-11.135 10.083-20.429 10.083-20.692 0-.613-9.381-.35-15.343.526ZM219.593 108.772c0 1.402 19.026 39.454 19.991 40.068.526.263 3.594-.964 6.926-2.806 3.244-1.928 12.187-6.663 19.815-10.608 7.541-4.034 13.766-7.453 13.766-7.628 0-.176-2.192-1.754-4.91-3.507-7.628-4.91-20.868-10.434-31.038-12.977-9.995-2.542-24.55-4.033-24.55-2.542ZM287.104 108.421c0 .175 8.856 9.206 19.728 20.078 11.573 11.486 19.727 19.026 19.727 18.149 0-.789-1.49-3.419-3.419-5.787-4.384-5.436-31.126-31.826-32.353-31.826-.526 0-1.491-.264-2.28-.527-.789-.263-1.403-.35-1.403-.087ZM378.114 112.892c-2.28 1.491-4.209 3.069-4.209 3.507 0 1.491 7.19 12.801 8.154 12.801 1.491 0 8.505-4.384 8.505-5.348 0-1.052-6.751-12.801-7.716-13.327-.351-.263-2.455.877-4.734 2.367ZM135.335 111.227c-.263.175-4.384 1.402-9.206 2.718-4.735 1.227-9.119 2.718-9.645 3.244-.964 1.052-5.874 19.026-5.348 19.552.175.175 6.137-5.612 13.327-12.801 7.277-7.277 12.713-13.152 12.187-13.152-.526 0-1.14.176-1.315.439ZM111.487 112.278c-.351.263-.614 1.053-.614 1.754 0 1.753 2.455 1.315 3.507-.614.789-1.49.702-1.753-.701-1.753-.877 0-1.929.263-2.192.613ZM298.502 112.016c0 .263 5.787 6.225 12.801 13.239 7.102 7.014 12.626 12.099 12.45 11.223-.263-.877-1.578-5.612-2.893-10.522l-2.455-8.943-4.033-1.315c-3.682-1.227-14.642-4.033-15.519-4.033a.377.377 0 0 0-.351.351ZM319.721 112.717c.526 1.403 3.156 2.981 3.857 2.192.79-.789-1.315-3.244-2.893-3.244-.701 0-1.14.438-.964 1.052ZM107.279 112.893c-.263.263-10.872 3.244-23.585 6.663-12.801 3.42-23.498 6.488-23.936 6.927-.614.613 1.666 9.995 8.767 36.386 3.244 11.748 5.524 16.045 5.524 10.258 0-2.192-7.89-33.317-10.609-41.647-.438-1.403-.701-2.63-.614-2.805.176-.088 10.171-2.806 22.183-6.05 19.902-5.436 24.111-7.014 24.111-9.382 0-.789-1.227-.964-1.841-.35ZM207.757 131.042c-5.086 10.346-9.207 19.201-9.207 19.639 0 .527 4.297 3.069 9.47 5.612l9.469 4.647 7.803-3.946c12.713-6.4 12.45-3.507 1.841-25.075-5.085-10.259-9.381-18.939-9.644-19.202-.263-.175-4.647 7.979-9.732 18.325ZM325.683 113.769c0 .614.526 1.579 1.14 2.105.526.438 10.872 3.507 22.971 6.751 12.012 3.244 22.007 5.874 22.095 5.962.087.088-.877 3.507-2.017 7.628-4.734 16.22-9.82 37-9.381 38.227.876 2.367 1.929 1.228 3.244-3.419 5.348-18.5 11.748-44.102 11.222-44.628-.35-.351-11.047-3.419-23.848-6.839-12.801-3.332-23.76-6.313-24.286-6.576-.614-.175-1.14.176-1.14.789ZM147.26 117.803c-3.332 2.367-6.138 4.822-6.138 5.348 0 1.403 4.209 6.839 5.261 6.927.526 0 2.279-1.14 3.945-2.455 1.666-1.403 4.296-3.245 5.875-4.121l2.805-1.666-2.367-4.209c-1.315-2.279-2.543-4.208-2.806-4.208-.263.088-3.156 2.016-6.575 4.384ZM277.635 117.364l-2.718 3.858 5.875 4.12c3.156 2.192 6.225 4.209 6.751 4.384.789.351 7.102-6.488 6.488-7.014-3.156-2.455-10.434-7.54-11.836-8.242-1.579-.876-2.192-.526-4.56 2.894ZM110.172 118.855c-.965 1.227-7.453 25.251-6.927 25.777.175.175 1.14-.526 2.104-1.666 2.455-2.543 8.593-25.163 6.839-25.163-.614 0-1.49.526-2.016 1.052ZM321.299 118.153c0 1.929 6.4 22.884 7.54 24.55 1.666 2.63 3.332 3.069 2.63.701-.263-.789-1.841-6.488-3.507-12.625-1.666-6.138-3.244-11.574-3.595-12.1-.526-.789-3.068-1.315-3.068-.526Z"/><path fill="#000" d="M100.352 120.871c-2.192.614-10.434 2.806-18.412 4.91-7.979 2.017-14.818 4.034-15.256 4.384-.701.614 3.156 16.571 8.855 36.649l1.316 4.735 10.52-10.434c5.787-5.786 10.873-11.135 11.399-12.099.438-.877 2.542-7.891 4.559-15.519 4.121-15.431 4.296-14.817-2.981-12.626ZM331.03 132.62c1.842 7.189 3.683 13.853 4.034 14.817.701 1.754 22.182 24.199 22.708 23.673.614-.613 10.96-40.331 10.609-40.682-.526-.526-38.403-10.872-39.805-10.872-.702 0 .175 4.472 2.454 13.064ZM40.293 128.411c-1.754 3.332-2.981 6.664-2.718 7.365.35 1.052 7.628 4.823 9.206 4.823.438 0 5.436-9.47 6.927-13.152.263-.789-7.453-5.261-9.031-5.261-.614 0-2.543 2.806-4.384 6.225ZM292.541 127.535c-1.666 1.929-2.806 3.77-2.631 4.121.176.35 2.631 2.805 5.524 5.523l5.261 4.998 3.331-2.893c1.754-1.491 3.245-3.157 3.245-3.595 0-.789-7.628-8.505-10.522-10.609-1.052-.789-1.929-.351-4.208 2.455ZM132.091 130.341l-5.436 5.523 3.507 3.42 3.507 3.419 5.699-5.611 5.699-5.699-2.718-3.332c-1.491-1.754-3.156-3.244-3.77-3.244-.526 0-3.507 2.455-6.488 5.524ZM51.34 135.601c-11.135 23.235-16.922 45.68-18.938 73.386l-.526 7.453 19.201-19.201 19.201-19.114-1.49-5.436c-.877-2.893-3.595-13.064-6.05-22.445-5.436-20.517-6.225-22.797-6.926-22.797-.351.088-2.368 3.683-4.472 8.154ZM391.44 128.149c-.701.263-2.981 1.402-4.997 2.542l-3.595 2.104 3.069 6.752c1.753 3.682 3.244 6.838 3.332 7.014.526.614 10.082-3.595 10.082-4.472 0-1.052-5.523-13.502-6.225-14.116-.175-.175-.964-.087-1.666.176ZM375.834 135.513c-6.663 24.988-10.521 39.105-11.047 40.683-.439 1.49 2.542 4.91 17.886 20.253l18.412 18.412v-6.4c0-13.853-4.647-37.351-10.609-53.571-3.244-8.943-11.31-26.566-12.099-26.566-.351 0-1.491 3.244-2.543 7.189ZM142.525 137.618c-4.472 4.208-10.434 10.784-13.415 14.729-5.261 7.015-16.308 28.145-15.256 29.197.526.614 44.19-5.348 44.891-6.138.263-.263-.789-7.715-2.28-16.483-1.578-8.855-3.156-18.675-3.682-21.831-.438-3.157-1.14-6.05-1.578-6.401-.351-.438-4.296 2.718-8.68 6.927ZM279.389 151.382c-2.016 11.749-3.682 22.007-3.682 22.797 0 1.665-.702 1.49 24.111 4.997 10.171 1.491 19.114 2.893 19.99 3.157 1.403.438 1.579.175 1.053-1.579-1.491-4.91-7.891-17.36-12.451-24.286-4.559-6.927-22.708-26.391-24.637-26.391-.438 0-2.367 9.557-4.384 21.305ZM155.852 136.39c.351 1.578 1.841 10.433 3.332 19.727 1.578 9.294 3.156 17.36 3.507 17.886.438.789 2.893.702 9.995-.351 5.173-.701 9.557-1.578 9.82-1.841.263-.175-5.086-8.066-11.749-17.36-6.751-9.294-12.538-17.535-12.889-18.237-1.402-2.893 3.683 3.683 12.889 16.659 5.348 7.453 10.609 14.73 11.749 16.045l1.929 2.455 4.471-8.768c2.367-4.91 4.384-9.206 4.384-9.644 0-.965-35.071-19.377-36.824-19.377-.702 0-.877.877-.614 2.806ZM259.048 142.791c-9.381 4.997-17.185 9.469-17.36 9.907-.175.526 1.754 4.91 4.208 9.733 2.981 5.962 5.086 9.118 6.401 9.644 2.543.964 18.938 3.069 19.464 2.543.351-.351 7.453-39.192 7.453-40.683 0-1.402-5.173.877-20.166 8.856Zm15.168-2.894c-14.817 20.342-23.234 31.564-22.796 30.249.877-2.28 24.55-34.72 25.427-34.808.438 0-.79 2.104-2.631 4.559ZM120.079 143.931c-4.471 5.962-4.822 6.838-3.507 7.628 3.069 1.841 5.787 4.12 5.349 4.646-.263.264-2.105-.613-4.034-1.928l-3.507-2.28-1.753 2.806c-2.543 4.033-6.401 12.099-6.05 12.362.175.088 2.192 1.052 4.384 2.104l4.121 1.929 3.682-7.189c2.104-3.946 6.05-10.083 8.856-13.678 2.805-3.595 4.91-6.839 4.647-7.189-.176-.351-1.929-1.842-3.771-3.332l-3.331-2.63-5.086 6.751ZM305.166 140.511l-3.332 3.419 4.56 5.787c2.455 3.156 4.734 5.787 4.91 5.787.964 0 7.364-4.472 7.364-5.173 0-.965-7.101-10.697-8.855-12.1-1.14-.876-1.929-.526-4.647 2.28ZM32.49 146.473c-1.403 3.77-2.718 7.277-2.894 7.803-.35.877 9.908 4.559 10.61 3.77.525-.701 4.91-12.625 4.91-13.59 0-.701-8.155-4.734-9.645-4.734-.263 0-1.578 3.069-2.981 6.751ZM319.457 146.999c1.929 2.542 5.524 8.329 7.979 12.888 4.472 8.154 4.822 7.891 2.104-1.49-.964-3.507-2.542-5.875-6.751-10.346-2.981-3.157-5.787-5.699-6.137-5.699-.351 0 .876 2.104 2.805 4.647ZM111.136 148.753c-4.471 4.822-5.436 6.488-6.663 11.398-2.104 8.154-1.841 9.82.614 4.033 2.192-5.436 4.559-9.557 9.03-15.957 1.666-2.368 2.806-4.472 2.631-4.647-.176-.263-2.718 2.104-5.612 5.173ZM395.21 148.051l-4.559 2.017 2.455 7.364c1.315 4.034 2.806 7.19 3.244 7.102 7.19-1.666 9.294-2.367 9.645-3.331.526-1.316-4.296-14.73-5.436-14.993-.439-.176-2.806.701-5.349 1.841ZM103.245 148.665c-2.542 2.718-4.12 6.839-2.63 6.839 1.315 0 5.261-6.576 4.822-7.979-.175-.526-1.14 0-2.192 1.14ZM329.541 149.016c.613 2.455 4.822 7.715 5.611 6.926.526-.526-3.946-8.066-5.261-8.855-.701-.438-.789.175-.35 1.929ZM315.863 154.715l-4.209 2.718 1.666 2.367c.877 1.227 2.63 4.384 3.946 6.839l2.279 4.647 4.209-1.929c2.279-1.14 4.208-2.017 4.384-2.105.35-.263-5.524-11.836-7.015-13.677-1.052-1.491-1.403-1.403-5.26 1.14ZM192.15 162.956c-2.279 4.559-3.77 8.33-3.419 8.33s1.578-.614 2.63-1.403c2.543-1.754 13.853-5.612 16.747-5.699 1.227 0 3.068-.351 4.033-.702 1.403-.614.351-1.403-6.313-4.822-4.471-2.192-8.417-4.033-8.855-4.033-.351 0-2.543 3.77-4.823 8.329ZM228.361 159.011c-7.804 3.946-8.154 4.209-5.699 4.735 8.68 1.753 14.203 3.419 18.938 5.786 2.981 1.403 5.436 2.631 5.524 2.631.175 0-1.754-3.946-4.209-8.768-2.455-4.822-4.822-8.768-5.348-8.68-.439 0-4.647 1.929-9.206 4.296ZM86.937 165.061c-8.154 8.242-11.047 12.362-8.68 12.362 1.228 0 18.413-17.974 19.026-19.99.263-1.052.176-1.929-.175-1.929-.438 0-4.998 4.296-10.17 9.557ZM337.081 156.556c0 1.841 1.315 3.419 10.258 12.362 7.277 7.19 8.68 8.242 8.855 6.664.263-1.491-1.928-4.209-8.68-10.96-4.997-4.998-9.381-9.118-9.732-9.118-.438 0-.701.526-.701 1.052ZM100.001 159.8c-2.455 2.718-13.853 45.154-13.152 49.099.263 1.578.79 2.63 1.14 2.192.965-1.052 14.292-51.116 13.941-52.256-.175-.438-1.052 0-1.929.965ZM332.17 159.537c.614 1.49 11.662 42.611 13.064 48.31.526 2.104 1.228 3.77 1.579 3.77 1.227 0 1.402-4.91.35-9.118-.701-2.455-2.63-9.82-4.296-16.308-5.173-19.728-6.313-23.498-7.891-25.777-1.578-2.455-3.682-3.157-2.806-.877ZM25.914 166.463c-.965 4.033-1.841 7.541-1.841 7.716 0 .526 7.452 2.367 9.469 2.367 1.403 0 2.016-1.14 3.156-5.962.79-3.244 1.666-6.488 1.929-7.277.263-1.14-.614-1.841-3.682-2.893-6.84-2.28-6.927-2.28-9.031 6.049ZM340.062 166.901c.351 1.228 1.578 5.699 2.806 10.083 1.139 4.296 2.981 11.223 3.945 15.344 1.052 4.121 2.192 7.803 2.543 8.154.263.351 1.841-3.946 3.331-9.557l2.806-10.171-7.978-7.978c-5.875-5.875-7.891-7.453-7.453-5.875ZM400.91 166.638c-2.368.702-4.209 1.754-4.209 2.28.176 2.806 3.332 14.204 4.033 14.204.439 0 2.894-.351 5.436-.702 4.209-.613 4.56-.876 4.472-3.068-.088-4.56-2.893-13.766-4.296-13.941-.702 0-3.157.438-5.436 1.227ZM86.411 173.39l-7.277 7.277 2.718 9.908c2.367 8.943 3.595 12.187 3.595 9.995 0-.439 2.104-8.417 4.735-17.711 2.542-9.206 4.383-16.834 4.12-16.834-.35 0-3.857 3.332-7.89 7.365ZM201.619 169.006c-9.294 3.244-14.291 6.313-21.13 13.24-20.166 20.341-20.166 51.729.088 71.895 7.715 7.628 13.853 11.31 22.708 13.59 29.547 7.54 58.393-10.521 64.18-40.156 2.542-12.801-.088-25.865-7.365-37.088-7.277-11.135-18.149-19.026-30.6-22.27-7.89-2.104-20.516-1.666-27.881.789Zm27.618 1.053c15.958 3.682 30.688 18.149 35.51 34.72 2.016 7.189 1.929 20.692-.351 27.881-6.313 20.254-23.585 33.668-44.803 34.808-15.519.877-26.479-3.419-37.701-14.642-26.654-26.654-15.431-70.843 21.042-82.504 6.138-2.017 18.588-2.105 26.303-.263Z"/><path fill="#000" d="M210.387 170.496c-27.706 3.42-47.346 32.09-40.332 58.92 4.033 15.518 15.958 28.758 30.687 34.106 11.135 4.033 26.654 2.981 38.14-2.543 6.839-3.244 17.36-14.028 20.867-21.305 17.097-34.808-10.872-74-49.362-69.178ZM105.262 169.357c-.964 1.578-4.91 12.713-4.91 13.853 0 1.403 2.893 2.718 6.576 3.157 2.192.263 2.542-.264 4.91-6.664 1.403-3.858 2.455-7.014 2.279-7.189-.526-.439-7.628-3.858-7.978-3.858-.263 0-.614.35-.877.701ZM324.105 170.584c-2.105.877-3.683 2.192-3.508 2.718.176.614 1.228 3.946 2.455 7.453 2.105 6.313 2.105 6.4 4.823 5.787 4.471-.965 6.575-2.017 6.488-3.157-.088-2.104-4.822-14.204-5.699-14.379-.439-.088-2.455.614-4.559 1.578Z"/><path fill="#000" d="M252.034 175.407c0 .263 2.279 2.893 5.085 5.962s6.225 7.978 7.716 10.872c1.403 2.893 2.718 5.26 2.981 5.26.263.088 1.227-4.12 2.104-9.206 1.14-7.189 1.315-9.556.526-9.995-.614-.351-3.77-.964-7.102-1.227-3.244-.351-7.189-.965-8.68-1.403-1.403-.439-2.63-.526-2.63-.263ZM171.634 176.897c-4.034.613-7.541 1.315-7.804 1.666-.613.526 1.14 13.765 2.192 16.571.439 1.139 1.228.263 3.157-3.42 1.402-2.806 4.91-7.54 7.715-10.521 3.683-3.946 4.735-5.524 3.595-5.436-.964.088-4.91.614-8.855 1.14ZM73.786 178.037c-.35.263-.614 1.315-.614 2.192 0 2.28 2.104 1.49 2.455-.877.263-1.841-.701-2.542-1.841-1.315ZM358.123 178.651c0 .614.614 1.666 1.315 2.28 1.053.876 1.403.789 1.842-.264.263-.789.263-1.841-.088-2.367-.789-1.315-3.069-1.052-3.069.351ZM22.933 179.79c-.79 2.718-2.543 14.379-2.28 14.642.176.176 2.806.526 5.7.877l5.435.614.965-5.612c1.841-10.433 1.753-10.521-5.436-11.573-3.42-.526-4.033-.351-4.384 1.052ZM138.053 181.807c-8.417 1.403-16.658 2.542-18.149 2.542-1.578.088-2.893.264-2.893.439s6.751 7.014 14.993 15.168a2168.129 2168.129 0 0 1 15.255 15.081c.439.438 13.415-11.486 14.993-13.853 1.14-1.491 1.052-2.981-.526-11.574-.964-5.436-1.753-9.995-1.753-10.17 0-.702-7.804.175-21.92 2.367ZM274.479 180.667c-.175.876-1.14 5.611-1.929 10.609l-1.578 9.03 7.365 7.365c4.121 4.121 7.803 7.453 8.242 7.453.876 0 30.336-28.934 30.336-29.81 0-.439-38.14-6.225-40.945-6.138-.526 0-1.228.702-1.491 1.491ZM52.743 199.167c-9.47 9.469-17.272 17.886-17.272 18.588 0 1.315 34.018 35.948 35.334 35.948.35 0 .613-.702.613-1.666 0-.965-6.75-8.33-16.395-17.974l-16.484-16.308 17.01-17.01c14.905-14.905 18.149-18.938 15.168-18.938-.35 0-8.417 7.803-17.974 17.36ZM362.945 182.772c-.613.964 4.56 6.663 22.095 24.023l10.697 10.609-15.782 15.782c-16.747 16.659-18.237 18.325-16.659 19.903 1.052 1.052 36.035-33.142 36.035-35.334 0-1.228-34.018-35.948-35.246-35.948-.351 0-.877.438-1.14.965ZM356.896 184.087c-.263.964-1.666 6.137-3.157 11.573-2.718 10.083-3.244 14.642-1.841 15.519.965.526 1.666-1.49 5.348-15.694 2.455-9.206 2.631-10.521 1.491-11.661-1.14-1.228-1.403-1.14-1.841.263ZM75.276 184.788c-.263.701.351 4.384 1.316 8.154a475.078 475.078 0 0 1 3.331 12.713c.79 3.332 1.754 5.962 2.105 5.962 1.665 0 1.402-5.787-.614-13.239-1.228-4.559-2.543-9.732-3.069-11.574-.877-3.331-2.192-4.208-3.069-2.016ZM405.644 185.489l-4.734.877.613 7.102c.351 3.945.789 7.452 1.052 7.803.176.438 2.718.701 5.612.701h5.173l-.088-4.646c-.088-6.401-1.052-12.275-2.104-12.451-.439-.175-2.981.176-5.524.614ZM319.896 187.418c-.965 1.052-8.33 8.242-16.308 16.045l-14.467 14.116 15.87 15.87c8.767 8.768 16.308 15.869 16.834 15.869.526 0 1.929-4.208 3.068-9.469 3.244-14.905 2.806-33.405-1.139-49.274-1.228-4.998-1.579-5.349-3.858-3.157ZM99.124 186.892c-.526.877-3.156 15.343-2.805 15.694.087.088 2.28.263 4.909.439l4.735.263 1.052-6.138c1.666-9.031 1.666-8.943-1.929-9.557-1.666-.35-3.595-.789-4.296-1.052-.614-.263-1.403-.087-1.666.351ZM111.049 189.435c-4.121 13.941-4.56 35.334-1.053 51.554 1.053 4.823 2.017 8.856 2.105 8.943.087.088 7.628-7.101 16.834-15.957l16.571-16.22-16.221-15.782c-8.943-8.68-16.483-15.782-16.746-15.782-.263 0-.964 1.491-1.49 3.244ZM330.066 187.331c-2.192.438-4.033.964-4.12.964-.526.351 2.981 15.87 3.507 15.782.35-.087 2.63-.35 5.085-.701 3.595-.526 4.296-.877 3.945-2.104-.175-.789-.876-3.858-1.402-6.751-1.316-6.839-1.754-8.33-2.455-8.242-.351.088-2.368.526-4.56 1.052Z"/><path fill="#000" d="m56.952 202.849-14.905 14.905 14.905 14.905c8.154 8.154 15.08 14.906 15.43 14.906.79 0 7.804-27.18 7.804-30.074 0-2.893-7.102-29.547-7.803-29.547-.35 0-7.277 6.663-15.431 14.905ZM361.63 188.383c0 .263-1.753 6.926-3.945 14.905l-4.033 14.379 4.033 14.73c2.279 8.066 4.208 14.905 4.384 15.08.175.176 7.101-6.488 15.431-14.729l15.08-15.081-14.817-14.817c-13.327-13.327-16.133-15.87-16.133-14.467ZM20.303 198.203c-.263.438-.614 4.296-.702 8.592l-.175 7.891 5.085.263c3.507.175 5.348-.088 5.787-.877.438-.613.789-4.384.789-8.417v-7.189h-3.858c-2.104 0-4.471-.263-5.173-.526-.701-.263-1.49-.088-1.753.263ZM93.075 203.463c-.264.351-1.14 3.42-1.93 6.752-1.665 6.575-1.402 11.398.79 18.061l1.315 3.946-.35-7.453c-.264-4.121-.089-10.609.262-14.467.79-6.926.79-8.241-.088-6.839ZM341.026 217.667c0 8.242.263 14.642.526 14.292.877-.965 3.42-11.048 3.42-13.415 0-2.63-2.894-15.694-3.507-15.694-.263 0-.439 6.663-.439 14.817ZM270.271 206.532c.35 1.578.613 7.715.613 13.677l-.087 10.785 6.576-6.576 6.575-6.576-6.488-6.927c-3.595-3.857-6.839-7.014-7.189-7.101-.351 0-.351 1.227 0 2.718ZM95.53 209.074c-.351 2.63-.439 6.313-.263 8.242l.263 3.507 4.559.263 4.471.263.614-7.54c.351-4.121.439-7.804.088-8.067-.263-.263-2.455-.701-4.822-.964l-4.297-.351-.613 4.647ZM156.553 211.179c-3.595 3.595-6.313 6.663-6.137 6.751.263.175 3.156 2.893 6.488 6.138l6.137 5.874v-25.339c0 .088-2.893 2.981-6.488 6.576ZM332.083 205.217l-2.893.35v15.519l4.91.351c2.718.088 5.085 0 5.26-.351.263-.35.176-4.208-.175-8.592-.702-8.68-.088-8.154-7.102-7.277ZM405.294 205.217l-2.455.351v15.519l5.699.35 5.699.263v-17.097l-3.244.088c-1.842.088-4.384.351-5.699.526ZM84.307 213.633c-.877 2.455-.701 8.505.263 8.505 1.315 0 2.017-4.208 1.14-7.277-.614-2.367-.877-2.543-1.403-1.228ZM349.005 213.809c-.789 2.192-.614 8.329.263 8.329 1.753 0 2.542-6.313 1.052-8.592-.614-.965-.877-.877-1.315.263ZM19.426 218.368c-.614 1.14.614 16.045 1.403 16.045h10.258v-5.611c0-3.069-.263-6.839-.526-8.329-.526-2.631-.701-2.718-5.699-2.718-2.806 0-5.26.263-5.436.613ZM32.315 223.629c.263 2.279.701 7.628.964 11.748 1.315 19.553 7.891 42.086 19.114 65.671 2.98 6.137 3.682 7.102 4.296 5.699.438-.965 3.682-12.45 7.19-25.427l6.4-23.672-18.5-18.851c-10.17-10.346-18.85-18.938-19.201-19.114-.351-.175-.527 1.578-.263 3.946ZM133.056 234.588c-7.891 7.804-14.292 14.467-14.292 14.818 0 .35.351.876.702 1.14 1.139.701 39.63 6.049 40.068 5.611.789-.789 3.858-19.991 3.419-21.218-.35-.964-14.729-14.554-15.431-14.554-.175 0-6.663 6.4-14.466 14.203Zm28.232 1.578c-.263.439-1.228.877-2.017.79-1.227 0-1.14-.176.263-.79 2.367-.964 2.367-.964 1.754 0Zm-10.083 3.508c-.702.438-1.666.876-2.192.876-.439 0-.263-.438.438-.876.702-.439 1.754-.877 2.192-.877.526 0 .263.438-.438.877Zm-4.823 1.753c-.964.438-2.367.789-3.068.789-.789 0-.702-.351.438-.789.965-.438 2.367-.789 3.069-.789.789 0 .701.351-.439.789Zm-14.291 4.384c-9.907 3.419-11.223 3.858-10.521 3.069.789-.877 14.73-5.524 16.483-5.524.702 0-1.929 1.052-5.962 2.455ZM278.512 227.75c-3.945 4.033-7.189 8.066-7.189 8.943.088 2.718 3.244 18.763 3.77 19.376.964.877 40.945-5.26 40.945-6.225 0-1.227-28.232-29.459-29.459-29.459-.526 0-4.121 3.332-8.067 7.365Zm16.308 14.466c10.697 3.595 19.377 6.664 19.202 6.839-.526.439-40.946-12.801-40.946-13.414 0-.614-.526-.789 21.744 6.575ZM381.972 239.06l-17.799 17.799 2.104 7.891c1.228 4.296 4.209 15.519 6.752 24.9 2.542 9.382 4.734 17.273 4.91 17.448.438.526 6.488-12.012 10.345-21.656 4.384-10.785 7.716-22.533 10.171-35.86 2.017-10.697 3.244-28.32 2.104-28.32-.438 0-8.855 7.979-18.587 17.798ZM95.442 223.103c-.526.877 1.315 15.081 2.016 15.782.702.614 7.804-.35 8.68-1.14.176-.263.088-3.77-.263-7.803l-.701-7.365h-4.647c-2.63 0-4.91.263-5.085.526ZM328.664 230.555c-.439 4.121-.527 7.716-.176 7.891.351.263 2.543.614 4.91.965l4.296.438.526-4.647c.351-2.63.614-6.4.614-8.505v-3.682h-9.381l-.789 7.54ZM345.147 228.715c-.965 3.331-4.209 15.08-7.19 26.04-2.893 10.959-5.523 20.516-5.787 21.305-.876 2.192 1.228 1.491 2.894-.964.789-1.228 2.981-7.891 4.822-14.642 7.628-28.32 8.417-31.827 7.803-34.896-.701-2.893-.701-2.893-2.542 3.157ZM81.764 224.33c-.613.965-5.962 20.692-6.575 24.199-.439 2.192.964 4.209 2.104 3.156.263-.263 1.841-5.699 3.42-12.099 2.191-8.329 2.805-12.187 2.279-13.853-.439-1.227-.965-1.841-1.228-1.403ZM86.762 226.347c-.35 1.666 1.49 9.908 5.524 25.076 5.173 19.289 6.4 22.972 8.504 24.9 1.316 1.316 2.192 1.754 2.017 1.053-.263-.702-2.543-9.031-5.085-18.413-2.455-9.381-5.524-20.428-6.664-24.549-1.14-4.033-2.104-8.067-2.104-8.943 0-2.455-1.578-1.842-2.192.876ZM351.46 225.996c-.351 1.579.526 6.488 2.367 13.853 2.806 10.872 4.296 13.853 5.436 10.872.526-1.315-5.436-25.338-6.576-26.391-.35-.35-.877.439-1.227 1.666ZM402.4 232.309c-.351 4.121-.438 7.628-.263 7.891.263.176 2.806.614 5.699.877l5.261.614.526-4.209c.35-2.279.614-6.137.614-8.417v-4.296H403.014l-.614 7.54ZM84.307 235.728c-.263.965-1.578 5.699-2.806 10.434l-2.367 8.68 8.067 7.979c4.471 4.384 7.803 7.189 7.452 6.225-.35-.965-2.104-7.453-4.033-14.467-5.085-19.201-5.611-20.955-6.313-18.851ZM349.092 235.29c-.35.701-1.929 6.839-3.682 13.59-1.754 6.751-3.77 14.203-4.384 16.483-.701 2.367-.964 4.121-.614 3.945.351-.175 3.858-3.594 7.804-7.715l7.189-7.453-2.543-9.03c-3.156-11.486-3.156-11.486-3.77-9.82ZM23.459 237.657c-3.332.439-3.332.614-1.929 10.346.701 4.296 1.403 6.576 2.104 6.576 2.894 0 10.083-2.192 10.083-2.981 0-.526-.438-4.033-1.052-7.803l-.964-6.752-2.718.176c-1.49 0-4.034.263-5.524.438ZM264.747 244.496c-1.929 3.244-5.436 8.066-7.803 10.697-2.28 2.542-4.033 4.646-3.858 4.646 1.753 0 17.711-2.718 18.061-2.981.176-.263-.35-4.471-1.227-9.469l-1.666-8.943-3.507 6.05ZM100.615 240.288c-1.929.263-2.893.876-2.893 1.753 0 3.069 3.77 15.168 4.646 15.168.527 0 2.718-.614 4.823-1.49 3.156-1.228 3.77-1.754 3.331-3.244-.35-1.052-1.139-4.297-1.928-7.365-1.579-5.875-1.228-5.612-7.979-4.822ZM165.847 241.077c-.965 3.244-2.631 15.344-2.192 15.782.263.175 2.981.789 6.049 1.227 3.069.526 6.927 1.14 8.593 1.403l2.981.439-4.822-5.261c-2.631-2.981-6.05-7.628-7.541-10.346-2.016-3.858-2.718-4.559-3.068-3.244ZM326.559 243.532c-.526 2.017-1.49 5.348-2.104 7.365l-1.227 3.858 2.805 1.139c6.664 2.718 6.401 2.806 8.242-3.244.964-3.068 2.017-6.751 2.28-8.241.613-2.631.613-2.718-4.297-3.595l-4.822-.877-.877 3.595ZM401.523 244.058c-.789 1.228-3.068 14.204-2.63 14.905.263.351 2.28.965 4.472 1.315 2.279.263 4.559.789 5.173.965.789.351 1.578-1.929 2.63-7.54.789-4.472 1.315-8.242 1.14-8.417-.702-.702-10.434-1.754-10.785-1.228ZM113.503 253.615c0 3.419 9.47 21.305 15.958 30.073 4.91 6.751 20.867 22.182 21.744 21.13.789-.964 8.241-44.014 7.715-44.628-.263-.175-9.907-1.753-21.393-3.507-11.573-1.666-21.656-3.244-22.445-3.507-.877-.263-1.579-.087-1.579.439ZM298.766 256.333c-12.187 1.753-22.445 3.419-22.796 3.77-.526.526 6.488 44.365 7.189 45.154.176.175 2.806-1.842 5.875-4.384 7.189-6.138 16.308-16.834 21.393-24.988 3.682-5.787 11.398-22.095 10.697-22.533-.176-.176-10.259 1.227-22.358 2.981ZM73.172 255.368c0 2.104 1.578 3.244 2.806 2.017.701-.702.614-1.403-.176-2.368-1.49-1.841-2.63-1.666-2.63.351ZM358.649 255.105c-.789 2.104-.613 2.981.702 2.981 1.403 0 2.543-2.367 1.753-3.595-.701-1.227-1.841-.964-2.455.614ZM26.966 257.297c-1.666.526-2.893 1.403-2.893 2.192 0 3.156 3.068 13.677 4.12 14.116 1.579.614 9.908-2.367 9.908-3.507 0-.614-.701-3.858-1.578-7.19-1.49-5.786-1.754-6.137-4.209-6.313-1.403-.087-3.858.263-5.348.702ZM106.226 257.823c-3.945 1.579-3.945 1.929.263 11.135l2.543 5.875 4.471-2.28c2.368-1.227 4.384-2.367 4.384-2.542 0-1.579-6.488-13.678-7.277-13.59-.614 0-2.542.613-4.384 1.402ZM322.175 257.385c0 .614-1.227 3.682-2.63 6.663-1.49 3.069-2.63 5.962-2.63 6.313 0 .438 1.841 1.754 4.033 2.981l4.033 2.192 3.42-7.365c1.841-4.121 3.419-7.628 3.419-7.891 0-.438-4.472-2.455-7.716-3.419-1.315-.439-1.929-.263-1.929.526ZM77.556 259.665c0 .789 4.56 6.049 10.17 11.573 8.593 8.592 9.996 9.645 9.47 7.453-.351-1.491-.614-2.718-.702-2.806-.701-1.228-17.623-17.799-18.237-17.799-.35 0-.701.702-.701 1.579ZM346.55 266.679c-7.628 7.891-10.434 11.836-9.119 13.064.789.789 20.078-18.763 19.64-19.991-.789-2.455-2.455-1.402-10.521 6.927ZM71.506 261.768c-2.192 5.875-12.362 46.645-11.749 47.258.439.439 8.242 2.718 17.36 5.173 27.531 7.278 31.126 8.154 31.74 7.541 1.578-1.491-3.683-3.42-23.849-8.856-12.011-3.244-22.007-5.962-22.094-6.049-.176-.088.701-3.508 1.84-7.628 5.174-17.887 10.171-37.789 9.733-38.491-.877-1.49-2.192-.964-2.981 1.052ZM360.227 260.979c-.35 1.052 9.031 37.789 11.048 43.137.526 1.315.789 2.543.701 2.718-.175.088-10.17 2.806-22.182 6.05-20.341 5.348-25.427 7.277-23.848 8.943.35.351 3.682-.175 7.452-1.227 3.683-.965 14.467-3.858 23.848-6.313 9.382-2.543 17.361-4.822 17.711-5.173.526-.526-6.225-27.531-11.135-44.716-1.315-4.383-2.63-5.786-3.595-3.419ZM162.252 261.681c-.964 2.805-6.926 40.243-6.576 40.682.702.614 37.614-19.114 37.526-20.166 0-.526-2.016-4.822-4.559-9.644l-4.559-8.768-5.261-1.052c-9.907-1.929-16.132-2.368-16.571-1.052ZM258.522 262.207l-7.979 1.315-4.822 9.557c-4.822 9.557-4.91 9.645-2.981 10.784 4.822 3.069 35.86 18.939 36.211 18.588.351-.351-4.472-29.723-6.401-39.367-.613-2.806-1.665-2.894-14.028-.877ZM395.912 268.607c-1.052 3.332-2.104 6.663-2.367 7.277-.526 1.491 9.294 5.349 10.433 4.209 1.491-1.491 4.91-15.081 3.771-15.431-2.455-.79-8.067-2.192-9.031-2.192-.526 0-1.841 2.718-2.806 6.137Z"/><path fill="#000" d="M76.328 265.188c-.964 3.069-9.557 35.685-9.907 37.789-.351 1.666 0 2.455 1.227 2.806 6.05 1.841 38.403 10.17 38.841 9.995.351-.175-1.14-6.839-3.332-14.905l-3.945-14.642-11.223-11.135c-7.452-7.453-11.398-10.784-11.66-9.908ZM239.759 267.468c-3.157 1.578-8.329 3.331-11.574 3.945-3.331.614-5.962 1.315-5.962 1.578 0 .614 15.607 8.33 15.958 7.891 1.227-1.753 7.978-15.782 7.628-15.957-.176-.175-2.894.964-6.05 2.543ZM346.111 274.92c-8.241 8.417-10.784 11.573-11.573 14.291-.438 1.929-2.28 8.593-3.946 14.906-1.665 6.225-2.805 11.573-2.63 11.748.351.351 39.806-10.17 40.419-10.784.176-.175-2.016-9.294-4.997-20.253-2.894-10.96-5.261-20.079-5.261-20.254 0-1.403-2.718.965-12.012 10.346ZM188.906 265.626c0 .526 7.102 14.642 7.628 15.256.438.526 15.168-7.19 15.168-7.891 0-.263-2.543-.965-5.699-1.491-3.156-.526-8.242-2.192-11.398-3.682-3.156-1.403-5.699-2.455-5.699-2.192ZM102.631 268.169c.264 1.403 1.228 5.261 2.192 8.417 1.491 4.91 2.543 6.576 7.365 11.311 3.157 3.156 5.699 5.173 5.699 4.647 0-.527-.613-1.403-1.315-2.017-1.666-1.403-9.206-13.853-12.187-20.166-1.578-3.332-2.104-4.033-1.754-2.192ZM328.664 273.166c-1.929 3.946-5.436 10.083-7.979 13.59-2.543 3.507-4.296 6.401-4.033 6.401.263 0 2.981-2.631 6.137-5.875 3.858-4.033 5.787-6.926 6.488-9.381.439-2.017 1.491-5.348 2.105-7.453 2.104-6.225.876-5.085-2.718 2.718ZM114.205 273.868l-4.208 2.28 3.156 5.261c1.666 2.805 3.858 5.962 4.734 6.838 1.666 1.666 1.754 1.666 5.173-.789 2.017-1.315 3.595-2.718 3.595-3.068 0-.526-7.365-12.187-8.066-12.626-.175-.088-2.104.789-4.384 2.104ZM312.882 276.236c-2.806 4.997-6.05 9.293-12.45 16.746l-4.823 5.436 2.981 3.069c1.666 1.665 3.42 3.068 3.946 3.068 1.14 0 10.872-11.047 10.872-12.362 0-.439-.263-.789-.614-.789-1.14-.088-5.787-4.472-5.261-4.998.264-.263 1.929.702 3.771 2.017l3.244 2.455 2.367-2.806c1.315-1.578 3.419-4.822 4.735-7.102l2.279-4.208-4.296-2.368-4.296-2.279-2.455 4.121ZM32.753 276.323l-4.121 1.49 2.455 6.839c1.315 3.77 2.805 7.278 3.244 7.716.438.438 2.805 0 5.786-1.228 3.683-1.402 4.91-2.279 4.472-3.244-.263-.701-1.49-3.857-2.543-7.014-2.28-6.488-3.068-6.839-9.293-4.559ZM207.581 279.392c-4.997 2.455-9.031 4.822-9.031 5.173 0 1.227 17.448 36.474 18.237 37 .526.35 5.086-7.716 10.434-18.325l9.557-18.851-8.33-4.296c-4.646-2.367-9.206-4.471-10.17-4.734-1.14-.351-4.91 1.052-10.697 4.033Zm9.995 29.81c-.087 5.875-.263.789-.263-11.223 0-12.099.176-16.834.263-10.696.176 6.225.176 16.045 0 21.919ZM100.439 281.934c.439 1.578 1.842 3.858 3.069 5.085l2.28 2.192-.526-2.542c-.614-2.543-3.858-7.541-4.998-7.541-.35 0-.263 1.228.175 2.806ZM331.557 282.198c-2.806 4.208-3.156 6.137-.701 4.91 1.841-.965 3.945-5.524 3.419-7.277-.263-.614-1.403.438-2.718 2.367ZM389.073 287.984l-2.718 7.014 5.086 2.455 5.085 2.455 2.63-6.225c4.209-10.171 4.297-9.557-1.052-11.311-2.542-.789-4.997-1.49-5.436-1.49-.438 0-2.016 3.156-3.595 7.102ZM123.849 288.597c-1.841 1.316-3.244 2.718-3.331 3.157 0 1.227 9.644 11.924 10.872 11.924.613 0 2.367-1.315 3.945-2.981l2.981-3.069-5.173-5.699c-2.718-3.156-5.26-5.787-5.523-5.699-.263 0-2.017 1.14-3.771 2.367ZM180.138 293.683a1348.928 1348.928 0 0 0-20.078 10.609l-5.699 3.157 2.455 1.929c7.891 6.312 27.706 14.116 42.085 16.658 8.768 1.491 16.571 1.754 16.133.439-.789-2.368-19.64-40.244-19.991-40.244-.263 0-6.926 3.331-14.905 7.452ZM229.413 306.221c-5.436 11.048-9.82 20.341-9.82 20.604 0 .965 8.242.526 16.045-.789 8.68-1.578 17.01-3.945 24.725-7.189 5.699-2.368 18.588-9.557 19.289-10.785.351-.613-34.457-19.727-39.104-21.481-1.052-.35-3.507 3.858-11.135 19.64ZM108.418 289.825c1.14 3.682 31.477 34.545 35.685 36.386 1.578.701 3.069 1.14 3.244.965.263-.351-39.192-40.157-39.718-40.157-.087 0 .263 1.315.789 2.806ZM306.394 306.747c-10.785 10.872-19.465 19.903-19.202 20.079.176.263 1.929-.263 3.858-1.14 4.472-2.105 34.282-32.266 35.159-35.51.263-1.315.438-2.542.263-2.718-.263-.175-9.206 8.505-20.078 19.289ZM329.19 292.281c-1.491 2.104-7.891 22.357-7.891 24.988 0 1.14 2.63.263 3.419-1.14 1.052-1.929 7.19-25.777 6.751-26.216-.175-.175-1.227.877-2.279 2.368ZM102.982 291.053c0 1.315 6.225 23.497 7.102 24.988 1.14 2.104 3.682 2.28 3.069.088-.263-.789-1.754-6.05-3.244-11.574-2.631-9.294-4.647-13.94-6.225-14.028-.439 0-.702.263-.702.526ZM40.556 294.297c-2.367.964-4.209 2.192-4.209 2.718 0 1.227 4.735 11.047 6.313 13.152 1.228 1.49 1.403 1.49 5.875-1.228 2.455-1.578 4.384-3.069 4.296-3.419-.175-.263-1.666-3.42-3.244-6.927-1.666-3.419-3.42-6.313-3.946-6.225-.526.088-2.805.877-5.085 1.929ZM110.873 298.856c.088 2.017 5.086 19.026 5.787 19.64.964.877 18.763 5.611 19.289 5.173.175-.175-5.436-6.05-12.362-12.976-7.015-7.015-12.714-12.275-12.714-11.837ZM135.774 302.013c-3.858 3.945-4.121 3.332 4.822 10.696l4.822 3.946 2.893-4.121 2.894-4.033-1.929-1.578a142.668 142.668 0 0 1-6.05-4.998l-4.033-3.419-3.419 3.507ZM310.164 310.956c-10.872 10.872-14.73 15.168-11.749 13.327.526-.264 5.173-1.579 10.346-2.982l9.469-2.454 2.806-9.996c1.578-5.523 2.893-10.083 2.893-10.258.088-1.14-3.156 1.754-13.765 12.363ZM380.919 305.081c-2.017 3.683-3.507 6.752-3.332 6.839 1.842 1.315 8.68 4.91 9.294 4.91.438 0 2.455-3.156 4.472-7.014l3.682-6.926-4.384-2.28c-2.455-1.228-4.822-2.192-5.26-2.192-.439 0-2.455 2.981-4.472 6.663ZM290.173 302.889c-2.455 2.017-5.173 4.121-6.05 4.822-1.666 1.14-1.666 1.316.965 4.91 1.49 2.017 2.981 3.77 3.507 3.946.438.175 3.419-2.192 6.751-5.173l5.962-5.524-3.419-3.244-3.42-3.332-4.296 3.595ZM49.762 311.657c-2.542 1.49-4.647 2.893-4.647 3.156 0 1.052 8.154 13.415 8.856 13.415.877 0 8.68-5.261 8.68-5.875 0-.438-7.979-13.414-8.242-13.414 0 0-2.192 1.227-4.647 2.718ZM150.153 312.621c-1.14 1.578-2.455 3.332-2.718 3.946-.614.964 11.135 9.031 13.151 9.031.526 0 1.929-1.754 3.157-3.946l2.192-3.858-6.401-4.033c-3.507-2.192-6.576-3.945-6.839-3.945-.175 0-1.402 1.315-2.542 2.805ZM274.654 314.112l-6.663 3.945 2.104 4.297 2.192 4.208 6.225-3.332c8.154-4.384 8.592-5.173 5.348-9.644l-2.542-3.507-6.664 4.033ZM59.582 313.936c11.31 19.202 33.668 42.612 53.308 55.763 8.855 5.962 10.697 6.839 9.908 4.472-.263-.877-3.245-12.1-6.664-24.901-3.507-12.801-6.576-23.497-6.839-23.76-.35-.263-11.486-3.42-24.725-6.927-13.239-3.507-24.637-6.576-25.338-6.839-.965-.35-.877.176.35 2.192ZM362.507 315.165c-6.488 1.841-17.535 4.822-24.374 6.663-7.716 2.017-12.889 3.77-13.327 4.647-.965 1.753-13.239 48.398-12.889 48.748.439.439 15.168-9.644 20.78-14.291 10.521-8.592 23.234-21.744 31.476-32.528 5.348-7.102 11.047-15.87 10.521-16.308-.175-.088-5.699 1.315-12.187 3.069ZM371.012 321.389c-2.28 3.419-4.033 6.313-3.946 6.313.176.087 1.842 1.403 3.77 2.805 1.929 1.491 3.946 2.981 4.472 3.244.877.526 8.329-9.381 9.557-12.625.263-.789-1.14-2.104-3.946-3.683-2.455-1.315-4.647-2.367-5.085-2.367-.351.088-2.543 2.894-4.822 6.313ZM146.382 322.178c6.226 6.313 6.752 6.576 14.555 8.768 9.118 2.543 9.031 2.017-.526-2.718-4.822-2.367-10.872-5.962-13.415-7.891-2.542-1.929-4.91-3.507-5.173-3.507-.35 0 1.666 2.367 4.559 5.348ZM286.929 320.863c-2.279 1.754-8.066 5.085-12.713 7.453-9.382 4.647-9.294 5.436.351 2.279 4.734-1.578 7.452-3.244 12.011-7.189 3.157-2.806 5.787-5.261 5.787-5.436 0-.789-1.753.087-5.436 2.893ZM166.724 319.197c-2.104 3.507-4.121 7.54-3.946 7.716 2.28 1.929 15.432 6.751 15.87 5.874.263-.351.877-2.104 1.403-3.945.614-1.754 1.49-3.244 1.841-3.244.438 0 .263 1.665-.438 3.594-.702 2.017-1.316 3.946-1.316 4.297 0 .964 13.941 4.646 15.344 4.12 1.052-.438 2.718-8.241 1.929-9.03-.263-.263-3.946-1.316-8.154-2.28-4.296-.964-10.697-3.156-14.291-4.735-6.839-3.156-7.628-3.419-8.242-2.367ZM261.24 320.863c-10.258 4.208-9.294 3.156-7.628 8.154.789 2.455 1.753 4.471 2.192 4.471 1.14 0 12.275-4.471 13.765-5.611 1.228-.877 1.14-1.49-.877-5.085l-2.192-4.033-5.26 2.104ZM111.224 321.74c.263.789.526 1.579.526 1.754 0 .175.789.351 1.753.351 2.017 0 2.28-.877.702-2.455-1.578-1.579-3.595-1.316-2.981.35ZM320.422 321.652c-1.666 2.017-.088 3.42 1.841 1.666.877-.789 1.666-1.841 1.666-2.279 0-1.14-2.367-.79-3.507.613ZM117.011 322.88c0 1.578 2.542 2.63 14.028 5.699 6.488 1.753 12.626 3.419 13.59 3.77 1.578.438 1.578.351.526-.964-2.016-2.368-5.26-3.771-15.957-6.576-10.697-2.894-12.187-3.157-12.187-1.929ZM304.64 324.896c-5.085 1.403-10.346 3.244-11.749 4.034-2.981 1.753-4.383 4.296-1.753 3.331.964-.35 6.839-2.016 13.064-3.77 11.135-2.981 13.59-4.033 13.59-5.611 0-1.228-3.42-.789-13.152 2.016ZM243.266 326.825c-4.121.964-7.54 1.841-7.716 1.841-.088.088.263 2.28.789 4.823l.965 4.559 3.945-.614c2.104-.263 5.787-1.14 8.154-1.841l4.296-1.228-1.227-3.77a196.246 196.246 0 0 0-1.491-4.647c-.175-.526-2.805-.263-7.715.877ZM59.845 328.491c-2.28 1.49-4.121 2.981-4.209 3.244 0 .263 2.455 3.332 5.349 6.839l5.26 6.4 3.683-3.332c2.016-1.753 3.682-3.77 3.682-4.296 0-1.227-8.066-11.749-8.943-11.749-.438 0-2.543 1.316-4.822 2.894ZM112.627 327.088c0 .263 2.63 10.259 5.787 22.095 3.244 11.837 6.049 22.445 6.312 23.585.614 2.894 1.929 3.157 7.804 1.578 23.76-6.137 41.997-11.222 42.699-11.924.526-.526.175-1.052-.79-1.402-1.753-.702-3.331-.351-29.634 6.751-9.119 2.455-16.571 4.296-16.747 4.208-.088-.175-2.63-9.469-5.611-20.692-6.313-23.673-6.751-24.812-8.505-24.812-.701 0-1.315.263-1.315.613ZM318.931 327.527c-.877 1.228-11.661 40.945-11.661 43.137 0 .789-.438 1.403-.877 1.403-.526 0-10.433-2.543-22.007-5.787-11.661-3.156-22.007-5.611-22.971-5.436-4.735.702-1.578 2.368 10.083 5.436 6.926 1.842 17.535 4.647 23.585 6.313 6.05 1.666 11.661 2.981 12.45 2.981 1.491 0 1.403.439 9.031-28.057 2.718-10.345 5.173-19.376 5.436-19.99.175-.526-.263-1.052-.964-1.052-.702 0-1.666.526-2.105 1.052Z"/><path fill="#000" d="M119.115 329.718c.263.877 2.63 9.82 5.348 19.903 2.63 10.171 5.085 18.675 5.436 19.026.526.439 35.071-8.241 40.419-10.17.965-.351-19.026-20.868-22.007-22.446-1.227-.701-27.53-7.803-28.758-7.803-.526 0-.701.701-.438 1.49ZM199.077 331.034c-1.228 7.452-1.315 7.189 2.981 7.891 2.192.263 6.049.613 8.592.613l4.559.088v-9.381l-6.312-.614c-3.508-.351-7.102-.789-7.891-1.052-1.14-.351-1.579.263-1.929 2.455ZM305.517 330.507c-4.121 1.14-10.171 2.806-13.415 3.595-5.786 1.403-6.225 1.754-17.272 12.363-6.313 5.962-11.398 11.222-11.398 11.661 0 .438.526.789 1.227.789.702 0 9.469 2.192 19.552 4.91 9.996 2.718 18.763 4.997 19.465 5.085.789.088 1.666-1.578 2.367-4.296.701-2.455 2.718-10.083 4.647-17.097 4.559-16.834 4.998-19.289 3.507-19.202-.701 0-4.559.965-8.68 2.192ZM146.821 329.894c0 1.754 7.453 6.05 8.593 4.998.613-.702-3.42-3.858-6.138-4.823-1.403-.526-2.455-.526-2.455-.175ZM222.925 329.718l-4.209.351v9.82l7.979-.526c4.384-.263 8.154-.614 8.329-.877.175-.175.088-2.367-.263-4.822l-.526-4.56-3.595.176c-2.016.087-5.436.263-7.715.438ZM283.598 331.121c-4.297 2.28-5.962 4.735-2.543 3.683 2.718-.877 6.927-3.858 6.927-4.91s-.088-1.052-4.384 1.227ZM360.052 336.031c-2.455 2.894-4.559 5.612-4.559 5.962 0 .439 1.753 2.455 3.858 4.56l3.857 3.77 5.349-6.488 5.436-6.401-3.77-3.244c-2.105-1.841-4.209-3.332-4.647-3.332-.526 0-2.981 2.368-5.524 5.173ZM158.219 334.014c1.929 2.28 3.945 2.981 23.936 8.33 20.253 5.523 28.67 7.014 28.67 5.348 0-.526-2.104-1.578-4.559-2.279-13.502-3.858-47.346-12.801-48.135-12.801-.701 0-.614.438.088 1.402ZM257.733 337.522c-9.645 2.543-21.569 5.787-26.567 7.102-6.663 1.753-8.592 2.542-7.54 3.156 2.28 1.315 7.365.351 28.934-5.523 14.291-3.771 21.042-6.05 22.796-7.541 1.578-1.227 2.016-2.016 1.227-2.016-.701 0-9.206 2.192-18.85 4.822ZM163.48 347.079c8.855 8.943 13.151 11.924 13.151 9.294 0-.526-3.595-4.472-7.978-8.856-6.839-6.926-11.837-10.521-14.555-10.521-.351 0 3.858 4.559 9.382 10.083ZM273.427 340.415c-1.841 1.315-6.401 5.611-9.995 9.381-5.962 6.313-6.401 6.927-4.56 7.19 1.666.263 4.034-1.666 11.662-9.382 6.488-6.663 9.03-9.732 7.978-9.732-.964 0-3.244 1.14-5.085 2.543ZM72.032 343.922l-3.682 3.419 4.471 5.086c6.488 7.452 6.664 7.54 10.872 3.419 1.929-1.841 3.507-3.858 3.507-4.384 0-1.052-9.732-10.96-10.784-10.96-.35 0-2.367 1.579-4.384 3.42ZM172.423 348.13l7.628 7.628 10.17-2.542c5.524-1.403 10.083-2.806 10.083-3.069 0-.526-33.054-9.644-34.72-9.644-.439 0 2.63 3.419 6.839 7.627ZM261.24 342.344c-2.893.877-10.083 2.805-15.957 4.384-5.962 1.49-10.785 3.068-10.785 3.331 0 .351 4.56 1.754 10.171 3.157l10.083 2.542 7.54-7.628c8.066-8.241 7.979-8.592-1.052-5.786ZM203.636 342.343c.35.264 3.594 1.14 7.189 2.017 6.576 1.578 6.664 1.578 13.853-.351 3.946-1.052 7.19-2.016 7.19-2.104 0-.088-6.488-.088-14.379-.088-7.979 0-14.204.263-13.853.526ZM346.901 350.41l-5.436 5.524 3.77 4.208 3.77 4.296 5.962-5.874 5.962-5.962-3.77-3.858c-2.104-2.104-4.033-3.858-4.296-3.858-.263 0-2.981 2.455-5.962 5.524ZM213.543 349.183c-1.665 1.052.176 2.016 3.946 2.016 3.595 0 4.822-.789 2.981-1.929-1.666-1.052-5.348-1.052-6.927-.087ZM195.57 354.181c-6.05 1.578-11.486 3.156-11.925 3.419-1.402.877-.087 2.192 1.929 2.192 2.543 0 26.128-6.4 26.128-7.102 0-1.666-6.225-1.052-16.132 1.491ZM223.1 352.514c0 .965 23.936 7.453 26.391 7.102 3.77-.613 1.403-2.104-6.839-4.471-9.03-2.631-19.552-4.033-19.552-2.631ZM85.885 357.776l-3.42 4.033 5.524 5.173c3.07 2.805 6.05 5.085 6.751 5.085 1.14 0 6.489-6.313 6.489-7.716 0-.789-10.697-10.696-11.486-10.696-.175.087-1.929 1.841-3.858 4.121ZM201.444 358.301c-7.277 2.017-13.502 3.858-13.765 4.121-.263.263 6.312 7.277 14.642 15.607l15.168 15.08 15.168-15.343c9.645-9.645 14.73-15.432 14.029-15.695-4.998-1.753-28.233-7.54-29.811-7.452-1.14 0-8.066 1.666-15.431 3.682ZM332.521 363.035l-5.962 4.823 2.806 3.945c1.578 2.192 3.156 4.121 3.595 4.384 1.139.701 12.888-8.329 12.888-9.907 0-.614-6.225-7.716-6.926-7.979-.263-.088-3.157 2.104-6.401 4.734ZM176.631 359.792c0 1.315 3.332 2.806 3.946 1.754.263-.439.263-1.316 0-1.754-.702-1.14-3.946-1.14-3.946 0ZM253.261 359.879c-.263.526-.087 1.315.614 1.666 1.227.789 4.296-.438 4.296-1.754 0-1.227-4.121-1.139-4.91.088Z"/><path fill="#000" d="M181.015 364c0 .965 35.422 36.124 36.386 36.124 1.316 0 35.51-34.458 35.51-35.773 0-3.156-4.647.526-19.377 15.256l-16.308 16.308-16.133-16.308c-11.485-11.661-16.658-16.308-18.061-16.308-1.14 0-2.017.263-2.017.701ZM163.041 368.647c-6.751 1.929-17.185 4.647-23.234 6.137-6.05 1.578-11.311 3.069-11.749 3.507-.789.702 12.888 7.541 23.147 11.574 16.571 6.488 43.751 12.012 59.445 12.012h4.384l-18.5-18.413c-10.171-10.17-19.114-18.412-19.815-18.324-.789 0-6.927 1.578-13.678 3.507ZM237.567 383.552l-18.413 18.5 9.557-.614c9.996-.614 24.375-2.806 33.844-5.173 11.573-2.981 29.81-9.907 38.841-14.817 4.997-2.806 6.225-4.121 3.595-4.121-.702 0-11.662-2.806-24.375-6.138-12.625-3.419-23.322-6.137-23.848-6.137-.438 0-9.118 8.329-19.201 18.5ZM100.878 370.489c-1.841 2.455-2.981 4.647-2.543 4.997 3.507 2.455 11.398 7.804 12.187 8.242 1.228.702 6.927-7.716 6.05-9.031-.438-.701-8.154-6.225-11.486-8.154-.526-.263-2.455 1.491-4.208 3.946ZM316.652 374.346l-5.875 3.946 2.368 4.121c1.227 2.279 2.63 4.471 2.981 4.91.613.701 12.274-6.313 13.414-8.067.702-1.139-4.647-8.943-5.962-8.855-.526 0-3.595 1.841-6.926 3.945ZM117.537 381.098c-1.666 2.542-2.806 4.822-2.543 5.173.351.701 10.346 6.4 12.713 7.277 1.228.438 2.017-.439 3.946-4.472 1.402-2.893 2.104-5.173 1.578-5.348-.526-.175-3.595-1.841-6.839-3.77l-5.962-3.42-2.893 4.56ZM300.87 383.377c-3.244 1.841-6.05 3.507-6.313 3.77-.263.263.526 2.631 1.754 5.436l2.192 4.91 7.189-3.594c4.033-2.017 7.453-3.771 7.628-3.946.438-.351-5.173-9.995-5.874-9.995-.351.088-3.244 1.578-6.576 3.419ZM134.721 390.041c-1.052 2.191-1.928 4.559-1.928 5.173 0 1.227 12.625 7.014 14.203 6.488.789-.263 4.209-8.067 4.209-9.557 0-.526-12.538-6.05-13.853-6.05-.351 0-1.578 1.754-2.631 3.946ZM283.159 391.181c-3.331 1.227-6.312 2.367-6.488 2.455-.438.35 1.578 8.417 2.455 9.82.614.964 2.017.701 7.19-1.14 9.644-3.332 9.293-2.981 6.926-8.68-1.052-2.718-2.367-4.91-2.981-4.823-.526 0-3.682 1.053-7.102 2.368ZM152.958 397.055c-.613 2.192-1.49 4.208-1.841 4.471-.438.263-.789.79-.789 1.14 0 .789 13.064 5.349 15.256 5.349 1.403 0 4.647-9.294 3.682-10.346-.526-.439-13.327-4.472-14.642-4.56-.35 0-1.052 1.754-1.666 3.946ZM265.01 396.88c-3.77 1.052-6.839 2.367-6.839 2.981 0 3.068 2.017 9.907 2.981 9.907 1.14 0 13.678-3.419 14.642-4.033.789-.438-2.104-10.258-3.156-10.521-.526-.088-3.946.701-7.628 1.666ZM171.546 402.841c-.614 2.455-1.052 4.91-1.052 5.524 0 1.49 14.642 4.734 15.782 3.507.35-.439.964-2.981 1.315-5.611l.614-4.91-7.365-1.491c-3.946-.789-7.541-1.49-7.804-1.49-.263 0-.964 2.016-1.49 4.471ZM244.581 401.351l-5.261.964.264 5.261c.175 2.893.526 5.436.701 5.611.175.263 4.033-.175 8.505-.877 9.03-1.402 8.68-.964 6.663-8.943-.964-3.682-1.578-3.858-10.872-2.016ZM191.186 402.841c-.176.702-.614 3.244-.877 5.699l-.439 4.472 4.034.614c2.192.263 6.049.526 8.504.526h4.472l.263-5.699.263-5.699h-3.858c-2.104 0-5.699-.263-7.891-.527-3.069-.438-4.208-.263-4.471.614ZM223.012 403.367l-3.244.351.351 5.436.263 5.436 8.154-.263c4.472-.088 8.154-.351 8.329-.526.176-.088 0-2.63-.263-5.611l-.613-5.436-4.91.175c-2.718.088-6.313.263-8.067.438ZM209.949 409.33v5.699h7.014v-11.398h-7.014v5.699Z"/></svg>