<svg xmlns="http://www.w3.org/2000/svg" fill="none" viewBox="0 0 71 71"><path fill="#000" d="M31.941.03C16.531 1.682 3.748 13.2.717 28.166c-.632 3.174-.79 4.97-.69 8.302C.2 42.959 1.91 48.718 5.27 54.134c2.485 4.035 6.363 8.086 10.24 10.7 10.744 7.267 24.374 8.172 35.893 2.398C61.859 61.99 69.01 52.037 70.734 40.374c.345-2.326.36-7.353.015-9.766-1.307-9.379-6.32-17.867-13.975-23.67-3.188-2.413-7.67-4.596-11.763-5.745C41.722.274 40.157.06 36.106.016 34.14-.014 32.257 0 31.941.03Zm9.336.89c9.752 1.753 17.91 7.038 23.382 15.182 1.25 1.867 2.93 5.199 3.777 7.468 1.437 3.907 2.184 8.761 2.026 13.07-.374 9.566-4.367 18.226-11.347 24.617-5.414 4.941-11.95 7.943-19.49 8.948-1.996.259-6.736.216-8.833-.086C20.48 68.654 11.39 62.809 5.96 54.162 2.197 48.188.416 41.624.602 34.486c.201-7.641 2.629-14.492 7.253-20.467 1.164-1.494 3.878-4.294 5.372-5.558C18.038 4.454 24.43 1.667 31.007.748c2.198-.316 8.101-.215 10.27.173Z"/><path fill="#000" d="M33.09 1.093c-9.378.69-17.982 5.127-24.114 12.41C5.27 17.925 2.627 23.684 1.55 29.745c-.387 2.169-.531 7.066-.273 9.278.762 6.65 3.088 12.395 7.167 17.724.948 1.235 3.605 3.95 5.113 5.213 2.73 2.298 7.182 4.826 10.542 5.99 8.201 2.814 17.164 2.513 25.006-.877 10.958-4.74 18.628-14.707 20.495-26.628.359-2.341.359-7.77 0-9.982-1.077-6.506-3.404-11.777-7.34-16.66C55.28 5.157 44.107.289 33.09 1.093Zm6.75 2.959a31.444 31.444 0 0 1 17.968 8.89c2.758 2.729 4.453 5.113 6.176 8.617a31.69 31.69 0 0 1-1.005 29.73c-4.826 8.36-13.142 14.033-22.794 15.541-2.283.36-7.195.36-9.393 0-5.486-.89-10.47-3.045-14.707-6.334C9.435 55.34 5.184 47.9 4.078 39.541c-.43-3.346-.23-7.957.503-11.13C7.726 14.78 19.518 4.697 33.29 3.82c2.097-.129 4.51-.042 6.55.23Z"/><path fill="#000" d="M32.99 4.353c-1.106.058-1.15.144-.704 1.12.287.661 1.135 1.451 1.824 1.738 1.178.489 2.901.015 3.763-1.034.46-.546.876-1.565.718-1.723-.115-.1-4.366-.187-5.601-.1Z"/><path fill="#000" d="M31.08 4.612c-.072.028-.46.086-.833.143l-.704.1.1.518c.259 1.422 1.293 2.987 2.514 3.763 2.657 1.709 5.96 1.135 7.842-1.35.66-.862 1.364-2.73 1.12-2.959-.072-.057-.531-.158-1.02-.215l-.89-.1-.173.66c-.474 1.91-2.7 3.174-4.667 2.686-1.35-.345-2.614-1.595-2.844-2.815-.1-.489-.144-.532-.445-.431ZM27.058 5.473c-4.438 1.25-8.057 3.203-11.849 6.363-1.077.92-1.22 1.106-.546.819.259-.1 3.648-1.523 7.512-3.146l7.038-2.944-.03-.445c-.028-.604-.171-1.15-.3-1.135-.058 0-.877.216-1.825.488ZM41.736 5.071c-.042.072-.114.417-.172.805l-.1.675.545.23c1.15.473 10.27 4.28 12.553 5.242 1.307.545 2.413.99 2.47.99.144 0-1.062-1.09-2.254-2.039-3.16-2.513-7.167-4.524-11.06-5.572-1.694-.46-1.88-.489-1.982-.33ZM28.064 7.642c-.633.273-3.735 1.566-6.895 2.887-3.16 1.307-5.802 2.441-5.888 2.513-.072.058 2.226.115 5.098.115h5.243l2.384-2.384 2.399-2.384-.388-.632c-.201-.345-.474-.618-.59-.618-.114 0-.732.23-1.363.503ZM40.745 7.743l-.387.603 2.398 2.398 2.399 2.413h5.127c3.332 0 5.142-.057 5.142-.143 0-.087-.057-.144-.144-.144-.129 0-1.666-.632-10.987-4.539-1.58-.66-2.93-1.206-3.016-1.206-.072 0-.316.273-.532.618Z"/><path fill="#000" d="M28.595 10.902c-1.12 1.12-2.04 2.083-2.04 2.14 0 .072 3.979.115 8.833.115 4.855 0 8.819-.043 8.819-.115-.014-.057-.977-1.034-2.154-2.168l-2.126-2.069-.46.388c-1.192 1.006-3.203 1.638-4.639 1.45-1.192-.143-2.485-.631-3.274-1.234-.417-.302-.79-.56-.833-.546-.044 0-.991.919-2.126 2.04ZM58.31 15.312a737.193 737.193 0 0 0 1.782 3.95c.488 1.105 1.623 3.619 2.499 5.572 2.183 4.883 1.896 4.424 2.628 4.208.33-.1.632-.258.66-.359.03-.086-.114-.761-.33-1.494-1.393-4.883-3.963-9.522-7.138-12.81l-.962-1.006.862 1.939ZM24.272 15.254l-1.623 1.58.402.79c.56 1.049.589 2.686.072 3.835l-.345.761 1.207 1.22c.66.662 1.25 1.207 1.321 1.207.072 0 .43-.258.79-.588 1.465-1.293 3.835-2.457 6.161-3.031 1.882-.46 4.884-.43 6.866.086 1.738.46 3.95 1.523 5.328 2.571l1.034.776 1.02-1.02 1.034-1.034-.402-.776c-.69-1.335-.618-3.203.172-4.366.201-.287.36-.589.36-.66 0-.087-.618-.762-1.365-1.509l-1.364-1.364-9.508-.043-9.523-.029-1.637 1.594ZM49.435 13.732l-3.634.072 1.178 1.177 1.192 1.178.847-.416a4.336 4.336 0 0 1 4.754.603c1.02.89 1.422 1.795 1.422 3.203.015.976-.043 1.264-.402 1.982l-.402.833 1.178 1.149c.646.617 1.206 1.134 1.235 1.134.029 0 .043-2.456.029-5.457l-.043-5.473-1.853-.028c-1.02-.015-3.505 0-5.501.043ZM13.916 19.19c0 3.001.03 5.457.058 5.457.029 0 .502-.46 1.063-1.034l.99-1.02-.402-.66c-1.077-1.695-.919-3.72.388-5.185.862-.948 1.595-1.321 2.815-1.408 1.178-.086 2.069.144 2.873.719l.589.43 1.379-1.378 1.378-1.38H13.916v5.459ZM12.02 14.981c-2.11 2.528-3.46 4.596-4.782 7.397-.69 1.45-1.867 4.84-2.01 5.788l-.101.575.675.186c.373.1.703.158.718.144.043-.043 2.973-6.837 5.544-12.811.546-1.264.962-2.313.933-2.341-.014-.03-.46.46-.976 1.062ZM13.04 15.455c-.129.273-1.134 2.6-2.255 5.17-1.106 2.572-2.413 5.56-2.872 6.636l-.862 1.982.733.446.718.445 2.427-2.428 2.413-2.412-.029-5.17c-.043-4.87-.057-5.143-.273-4.669ZM57.435 20.152v5.142l2.57 2.57 2.572 2.571.69-.474c.387-.258.717-.488.746-.502.029-.03-1.968-4.51-4.768-10.686-.834-1.853-1.523-3.404-1.523-3.476 0-.057-.057-.158-.144-.2-.1-.058-.143 1.665-.143 5.055Z"/><path fill="#000" d="M17.536 16.26c-1.393.689-2.112 1.938-2.011 3.49.072 1.077.36 1.78 1.005 2.441 1.02 1.034 2.672 1.437 3.936.948 2.398-.905 3.26-3.849 1.738-5.845-1.049-1.365-3.088-1.824-4.668-1.035Zm2.958 1.608c.575.417.934 1.336.82 2.068-.202 1.135-1.451 1.997-2.543 1.767-.589-.13-1.35-.848-1.551-1.45-.316-.949.187-2.198 1.048-2.586.618-.273 1.68-.187 2.226.201Z"/><path fill="#000" d="M18.268 18.04c-1.264.762-1.163 2.514.187 3.16.718.345 1.25.302 1.853-.172.79-.618.99-1.551.502-2.341-.545-.876-1.694-1.178-2.542-.646ZM49.32 16.23c-1.752.805-2.6 3.031-1.824 4.827.345.804 1.35 1.738 2.226 2.082 1.379.517 3.117.029 4.108-1.177 1.594-1.94.847-4.884-1.494-5.875-.775-.316-2.169-.258-3.016.144Zm2.485 1.437c1.465.761 1.68 2.571.416 3.576-1.694 1.365-4.05-.517-3.202-2.542.416-1.005 1.824-1.537 2.786-1.034Z"/><path fill="#000" d="M49.765 18.227c-.862.819-.876 1.853-.014 2.686 1.608 1.551 4.093-.847 2.57-2.485-.775-.833-1.795-.919-2.556-.2ZM33.521 21.344c-1.264.187-2.987.718-4.165 1.293-.991.473-3.375 2.053-3.375 2.24 0 .029 1.178.058 2.614.058h2.6l1.78-1.753c.963-.962 1.767-1.81 1.767-1.867 0-.129-.187-.129-1.22.029ZM37.988 23.082l1.853 1.853h2.542c1.407 0 2.556-.043 2.556-.115-.014-.288-2.642-1.954-3.978-2.528-1.048-.431-2.858-.89-3.978-.991l-.862-.086 1.867 1.867ZM33.765 23.11c-.876.891-1.608 1.667-1.608 1.724 0 .058 1.537.1 3.404.1h3.418l-1.724-1.723c-.947-.948-1.752-1.723-1.795-1.723-.043 0-.804.732-1.695 1.622ZM21.744 23.082c-1.235.933-2.988 1.077-4.481.345l-.776-.388-1.278 1.206-1.264 1.192-.014 9.781L13.916 45l1.307 1.25 1.307 1.25.92-.389c.79-.33 1.048-.373 2.025-.316 1.12.072 2.068.403 2.456.877.143.172.373 0 1.378-1.02l1.192-1.221-.804-1.092c-1.967-2.657-2.887-5.486-2.901-8.847 0-3.677 1.207-7.009 3.49-9.652.302-.344.546-.675.546-.732 0-.115-2.341-2.47-2.442-2.47-.043 0-.33.2-.646.445ZM46.907 23.757c-.531.531-.962 1.02-.962 1.077 0 .072.33.488.732.934 3.52 3.935 4.568 9.953 2.586 15.037-.546 1.422-1.508 3.06-2.384 4.08l-.661.775.976.976.977.991.862-.445c.804-.416.948-.43 2.111-.388 1.092.058 1.336.115 1.982.517.402.259.761.46.776.46.029 0 .703-.66 1.493-1.48l1.465-1.464V25.58l-1.422-1.422-1.436-1.436-.56.402c-.675.46-1.723.804-2.47.804-.718 0-1.867-.359-2.5-.79-.287-.2-.545-.359-.56-.344-.014 0-.459.43-1.005.962ZM25.694 27.98v2.484l2.441-2.442c1.35-1.335 2.442-2.456 2.442-2.47 0-.029-1.092-.043-2.442-.043h-2.441v2.47ZM28.523 28.353l-2.83 2.83v8.186l2.916 2.915 2.901 2.902h8.029l2.916-2.916 2.915-2.916V31.327l-2.915-2.916-2.901-2.901H31.366l-2.844 2.844Zm9.336-.33c1.35.416 2.269.99 3.217 1.953 4.021 4.136 2.384 10.973-3.088 12.883-1.364.474-3.433.488-4.84.043-1.94-.618-3.778-2.226-4.654-4.065-1.465-3.088-.89-6.448 1.508-8.89a7.72 7.72 0 0 1 7.857-1.924Z"/><path fill="#000" d="M33.55 28.166c-1.278.345-2.298.962-3.332 2.01-1.077 1.078-1.637 2.055-2.01 3.462-1.092 4.209 1.852 8.546 6.261 9.264 2.226.36 4.625-.46 6.334-2.169 4.093-4.079 2.284-10.9-3.318-12.552-.948-.273-2.958-.288-3.935-.015Zm3.734.417c2.686.718 4.754 2.987 5.214 5.702.531 3.13-1.049 6.176-3.921 7.526-2.729 1.306-5.702.833-7.914-1.236a7.01 7.01 0 0 1-.158-10.11c.905-.92 2.198-1.667 3.318-1.925.862-.201 2.628-.173 3.461.043Z"/><path fill="#000" d="M34.627 28.97c-2.542.316-4.898 2.47-5.486 4.998-.115.474-.158 1.25-.101 1.968.273 4.51 5.214 7.411 9.25 5.444 1.005-.503 2.37-1.767 2.9-2.715 2.026-3.533.288-8.086-3.604-9.407-.991-.345-1.839-.431-2.959-.288Zm2.815 2.571c1.623.819 2.399 2.083 2.399 3.95 0 .962-.072 1.264-.388 1.867-.489.92-1.293 1.695-2.198 2.111-1.005.46-2.585.446-3.59-.028-1.494-.733-2.37-2.026-2.485-3.663-.086-1.48.302-2.499 1.321-3.461.934-.89 1.68-1.178 3.045-1.192.862-.015 1.15.057 1.896.416Z"/><path fill="#000" d="M34.756 31.7c-1.824.344-3.03 1.852-3.03 3.748a3.813 3.813 0 0 0 5.084 3.62c.963-.331 1.982-1.365 2.313-2.342.933-2.815-1.465-5.587-4.367-5.027ZM42.857 27.95l2.442 2.442.043-2.255c.014-1.235 0-2.34-.029-2.441-.058-.144-.646-.187-2.485-.187h-2.413l2.442 2.442ZM24.229 26.816c-.89 1.164-1.796 2.873-2.255 4.251-.287.833-.804 3.62-.69 3.72.015.029.891-.804 1.94-1.852l1.895-1.91-.028-2.643-.044-2.643-.818 1.077ZM45.916 28.425l.058 2.614 1.81 1.824c1.005 1.02 1.852 1.838 1.91 1.838.129 0-.13-1.666-.446-2.901-.502-1.954-1.896-4.582-2.973-5.602l-.416-.402.057 2.629ZM11.073 28.324l-2.17 2.082.633.862c1.838 2.514 1.766 5.76-.201 8.043l-.503.59 2.255 2.225 2.255 2.227V35.29c0-4.984-.029-9.063-.043-9.063-.029 0-1.034.948-2.226 2.097ZM57.435 35.276c0 4.998.014 9.062.043 9.033.014-.028 1.091-1.134 2.384-2.455l2.341-2.385-.373-.488c-1.566-2.054-1.652-5.084-.216-7.296l.546-.848-2.255-2.226c-1.25-1.235-2.312-2.283-2.37-2.326-.057-.058-.1 3.992-.1 8.99Z"/><path fill="#000" d="M4.94 29.545c-.144.388-.33 1.637-.273 1.738.043.072.215.115.402.115.532 0 1.781.718 2.298 1.321 1.853 2.154.804 5.486-1.967 6.248l-.848.244.1.646c.159 1.15.187 1.192.69 1.092 1.379-.273 2.183-.704 3.203-1.71 1.35-1.35 1.695-2.182 1.709-4.107 0-1.235-.043-1.45-.46-2.327-.588-1.264-1.536-2.27-2.671-2.815-1.077-.531-2.068-.732-2.183-.445ZM65.076 29.66c-1.537.531-2.787 1.68-3.505 3.26-.273.589-.33.948-.33 2.212 0 1.393.029 1.58.46 2.47.76 1.623 2.441 2.973 3.95 3.217.574.101.588.072.746-1.091l.1-.66-.617-.159c-.833-.23-1.738-1.034-2.197-1.982-.345-.69-.388-.919-.33-1.824.028-.603.157-1.278.315-1.58.36-.747 1.307-1.623 2.054-1.91l.646-.258-.086-.747c-.1-.833-.215-1.221-.359-1.221-.043.014-.43.13-.847.273Z"/><path fill="#000" d="M4.495 32.302c-.13.546-.144 6.09-.015 6.22.173.186 1.106-.115 1.781-.56 1.307-.877 1.839-2.672 1.207-4.051-.431-.962-1.408-1.738-2.485-1.996-.345-.072-.388-.043-.488.387ZM23.324 33.552 21.6 35.276l1.767 1.766 1.752 1.752v-3.49c0-1.91-.014-3.475-.043-3.475-.014 0-.804.775-1.752 1.723ZM45.873 35.347c0 1.853.029 3.376.072 3.376s.833-.762 1.752-1.68l1.695-1.696-1.68-1.68c-.934-.934-1.724-1.695-1.767-1.695-.043 0-.072 1.523-.072 3.375ZM65.435 32.389c-1.94 1.235-2.155 3.82-.445 5.328.301.259.732.546.976.647.388.172.46.158.546-.044.115-.301.144-5.084.029-5.816-.058-.288-.173-.532-.259-.532-.1 0-.474.187-.847.417ZM21.328 36.74c.158 1.523.732 3.577 1.407 4.927.575 1.163 1.867 3.073 2.24 3.303.101.058.144-.804.144-2.614l-.014-2.7-1.853-1.91c-1.034-1.034-1.896-1.896-1.939-1.896-.043 0-.028.402.015.89ZM47.683 37.775l-1.781 1.78.029 2.7c.014 1.494.057 2.73.071 2.758.029.029.388-.402.79-.933 1.006-1.336 1.94-3.189 2.384-4.711.388-1.35.632-3.375.417-3.375-.072 0-.934.804-1.91 1.78ZM59.977 42.557l-2.542 2.528.029 5.17.043 5.185.962-2.154c1.22-2.729 2.786-6.176 4.28-9.465.646-1.422 1.206-2.657 1.235-2.757.072-.144-1.077-1.049-1.336-1.049-.057 0-1.263 1.15-2.671 2.542ZM25.694 42.687v2.499h2.441c1.35 0 2.442-.03 2.442-.072 0-.029-1.092-1.163-2.442-2.5l-2.441-2.44v2.513ZM7.597 40.719c-.36.23-.632.46-.618.531.044.23 6.176 13.99 6.277 14.09.043.043.086-2.226.086-5.07v-5.156L10.929 42.7c-1.321-1.321-2.47-2.399-2.542-2.384-.086 0-.43.187-.79.402ZM42.814 42.644c-1.279 1.278-2.327 2.384-2.327 2.441 0 .058 1.077.086 2.413.072l2.398-.043.044-2.413c.014-1.321-.015-2.399-.072-2.399-.072 0-1.164 1.049-2.456 2.342Z"/><path fill="#000" d="M64.085 42.198c-.259.575-.977 2.183-1.594 3.562-2.96 6.52-3.548 7.813-4.28 9.494-.92 2.111-.216 1.608-5.731 4.079-9.336 4.208-11.06 4.984-11.117 5.027-.029.043.259 1.45.345 1.608.043.086 2.585-.589 3.734-.99a31.858 31.858 0 0 0 7.54-3.75c6.162-4.136 10.873-10.814 12.711-18.053.201-.776.36-1.48.36-1.551 0-.072-.187-.173-.417-.216-.23-.043-.56-.129-.761-.172-.302-.072-.374.014-.79.962ZM5.615 41.452c-.259.057-.517.143-.56.186-.13.144.531 2.629 1.134 4.338 3.103 8.56 9.94 15.497 18.399 18.657 1.393.517 3.849 1.235 4.265 1.235.144 0 .273-.259.403-.747.086-.402.158-.747.129-.761-.029-.03-2.284-1.049-9.724-4.38-2.255-1.006-4.581-2.07-5.184-2.342l-1.092-.488-.618-1.422a198.58 198.58 0 0 0-1.364-3.074c-.417-.905-1.666-3.748-2.8-6.32-2.026-4.58-2.241-5.04-2.428-5.012-.043.015-.302.072-.56.13ZM26.34 46.277c1.609 1.45 3.95 2.6 6.32 3.088 1.22.259 2.37.36 2.37.201 0-.172-3.706-3.705-3.994-3.82-.186-.072-1.479-.13-2.872-.13l-2.542.015.718.646ZM32.157 45.717c0 .172 3.203 3.347 3.375 3.347.158 0 3.375-3.175 3.375-3.318 0-.058-1.522-.1-3.375-.115-1.853-.014-3.375.029-3.375.086ZM37.844 47.642l-2.025 2.025 1.078-.086c2.7-.202 5.931-1.58 7.899-3.361l.646-.575-2.786-.014-2.786-.014-2.026 2.025Z"/><path fill="#000" d="M13.916 51.19v5.486h10.987l-1.335-1.336c-.79-.79-1.365-1.264-1.436-1.178-.244.374-1.078.805-1.896 1.02-1.092.273-1.925.187-2.973-.316-2.284-1.092-3.074-4.323-1.551-6.32.2-.258.359-.517.359-.588 0-.072-.489-.604-1.077-1.192l-1.078-1.063v5.486ZM55.525 47.024l-1.264 1.264.273.359c.388.488.747 1.609.747 2.341 0 1.609-.862 3.03-2.313 3.835-.819.43-1.034.488-1.996.488-.905-.014-1.221-.072-1.953-.445l-.877-.445-1.106 1.077c-.603.589-1.091 1.092-1.091 1.12 0 .029 2.456.058 5.458.058h5.457v-5.458c0-3.002-.014-5.458-.043-5.458-.014 0-.603.575-1.292 1.264ZM23.654 47.038l-1.134 1.12.344.518c.79 1.163.862 2.944.201 4.294l-.387.761 1.479 1.465 1.494 1.48h19.36l1.35-1.35 1.35-1.365-.373-.574c-.948-1.437-.89-3.39.172-4.984l.288-.431-.963-.962-.976-.963-.92.762c-1.235 1.02-2.67 1.867-4.05 2.398-2.01.776-2.844.92-5.357.92-1.953.014-2.499-.044-3.59-.331-2.212-.56-4.381-1.695-6.133-3.203-.446-.373-.862-.69-.92-.69-.057 0-.617.504-1.235 1.135Z"/><path fill="#000" d="M18.44 47.326c-1.737.445-2.93 1.91-2.944 3.59 0 1.092.244 1.796.905 2.542 1.422 1.623 3.648 1.781 5.271.388 1.566-1.335 1.724-3.734.36-5.314-.776-.905-2.5-1.494-3.591-1.206Zm2.054 2.025c.56.416.963 1.393.834 2.025-.273 1.407-1.91 2.183-3.117 1.48-1.422-.834-1.48-2.687-.115-3.62.632-.445 1.709-.388 2.398.115Z"/><path fill="#000" d="M18.268 49.494c-.976.59-1.192 1.81-.474 2.643.848.962 2.026.991 2.787.072 1.35-1.594-.532-3.806-2.313-2.715ZM50.038 47.383c-1.35.445-2.01 1.034-2.528 2.183-1.02 2.313.532 4.94 3.102 5.2 2.614.272 4.755-2.413 3.907-4.898-.632-1.853-2.772-3.045-4.481-2.485Zm1.781 1.752c1.077.546 1.508 1.666 1.034 2.73-.359.818-.99 1.22-1.939 1.22-1.58 0-2.556-1.594-1.838-3.016.502-1.006 1.78-1.436 2.743-.934Z"/><path fill="#000" d="M50.182 49.35c-.575.23-.977.834-1.049 1.552-.057.632-.014.747.388 1.206.618.704 1.12.891 1.853.704 1.106-.301 1.695-1.48 1.264-2.499-.36-.89-1.537-1.35-2.456-.962ZM35.202 57.25l-8.948.072 2.355 2.327c1.293 1.292 2.427 2.34 2.514 2.34.1 0 .445-.2.775-.43.33-.244 1.006-.56 1.523-.718 1.795-.56 4.122-.259 5.457.718.33.23.647.43.718.43.13 0 4.769-4.638 4.769-4.782 0-.057-.043-.086-.1-.072-.072.029-4.137.072-9.063.115ZM16.07 57.739c.59.258 3.821 1.723 7.182 3.245 3.36 1.509 6.176 2.787 6.248 2.816.086.043.387-.259.675-.632l.517-.704-2.614-2.614-2.6-2.6h-5.242l-5.242.015 1.077.474ZM42.685 59.864l-2.614 2.629.359.502c.2.273.416.589.474.704.1.158.703-.072 2.9-1.063 8.044-3.634 11.692-5.285 11.75-5.328.028-.03-2.256-.058-5.1-.058h-5.156l-2.613 2.614Z"/><path fill="#000" d="M34.34 61.142c-1.034.201-2.14.79-2.973 1.58-.876.819-1.652 2.212-1.652 2.945 0 .46 0 .46.848.56.933.1 1.163.043 1.163-.33 0-.647 1.178-1.94 2.14-2.37.718-.316 1.968-.374 2.83-.13 1.034.302 2.498 1.867 2.498 2.686 0 .158.144.216.618.201 1.005-.029 1.321-.172 1.278-.574-.086-.59-.718-1.867-1.278-2.542-.747-.92-2.01-1.68-3.203-1.954-1.077-.244-1.35-.258-2.27-.072Z"/><path fill="#000" d="M34.67 63.843a3.27 3.27 0 0 0-1.738 1.062c-.474.532-.861 1.35-.718 1.494.144.144 4.223.23 5.444.115l1.077-.086-.172-.532c-.216-.732-1.178-1.651-2.026-1.938-.732-.259-1.163-.288-1.867-.115Z"/></svg>