<svg xmlns="http://www.w3.org/2000/svg" fill="none" viewBox="0 0 97 98"><path fill="#000" d="M44.066.072C32.541 1.337 22.735 5.884 14.728 13.693c-4.31 4.191-7.196 8.165-9.805 13.444C1.463 34.154.02 40.422 0 48.487c0 4.824.297 7.493 1.384 11.764.949 3.776 1.858 6.247 3.558 9.687 5.912 11.94 16.113 20.718 28.745 24.79 9.549 3.085 20.126 3.085 29.674 0 10.953-3.518 20.541-11.05 26.57-20.916 4.825-7.888 7.098-16.072 7.078-25.522-.02-5.852-.712-10.083-2.57-15.52-4.072-12-13.087-22.24-24.475-27.775C65.101 2.622 60.693 1.219 55.73.448 53.635.112 45.925-.126 44.066.072Zm11.17 1.344c15.578 2.294 29.022 12.08 35.882 26.116 2.194 4.488 3.44 8.323 4.29 13.246.395 2.214.455 3.281.455 7.809 0 4.606-.06 5.535-.455 7.769-1.443 8.026-4.409 14.748-9.37 21.37-1.74 2.314-6.624 7.078-9.055 8.858-6.722 4.883-13.68 7.769-21.648 8.975-3.302.514-10.735.514-13.839 0-3.914-.633-7.611-1.66-10.972-3.045-16.033-6.563-27.302-21.43-29.279-38.59-.355-3.044-.296-8.718.1-11.664C3.261 28.026 11.367 15.571 23.644 8c6.03-3.737 12.75-6.03 20.125-6.84 2.293-.258 8.936-.1 11.466.256Z"/><path fill="#000" d="M45.252 1.357c-5.99.356-12.553 2.155-18.05 4.962-2.53 1.285-6.701 3.974-8.58 5.536C7.513 21.087 1.266 34.254 1.266 48.488c0 18.168 10.24 34.537 26.59 42.504 6.504 3.163 13.167 4.705 20.56 4.725 10.478.02 20.185-3.222 28.745-9.608 2.452-1.838 7.038-6.445 8.877-8.896 4.982-6.662 7.967-13.74 9.252-21.944.554-3.5.514-10.26-.099-13.997-2.51-15.598-12.06-28.448-26.214-35.309-7.394-3.598-15.163-5.1-23.724-4.606Zm7.631 3.934C62.63 6.28 72.08 10.728 79 17.608c2.432 2.412 3.776 4.052 5.694 6.939 3.677 5.496 6.089 12.02 6.919 18.702.257 2.155.277 8.323 0 10.379-1.898 14.768-10.596 27.163-23.644 33.687-5.931 2.946-11.486 4.33-18.267 4.508-5.654.158-10.38-.554-15.42-2.274C19.077 84.31 7.867 70.768 5.534 54.814c-2.49-16.982 5.477-34.201 19.968-43.157 5.713-3.539 12.652-5.871 19.156-6.425 1.839-.158 6.327-.119 8.224.06Z"/><path fill="#000" d="M44.956 5.489C28.765 6.873 14.45 17.409 8.5 32.336c-2.373 5.93-3.203 10.715-3.025 17.397.178 6.92 1.483 12.139 4.606 18.327C15.638 79.05 25.898 87.294 37.74 90.28c4.053 1.009 6.484 1.305 10.873 1.285 7.018 0 12.672-1.304 18.781-4.329 6.188-3.045 11.19-7.117 15.243-12.395 5.713-7.454 8.659-15.737 8.916-25.167.118-4.448-.198-7.513-1.206-11.585-4.27-17.18-18.682-30.03-36.297-32.383-2.175-.296-6.94-.415-9.094-.217Zm7.868.613c14.59 1.581 27.223 10.28 33.727 23.249 1.937 3.835 3.143 7.492 3.974 12.02.435 2.352.612 9.271.316 11.9-1.147 9.807-5.259 18.327-12.277 25.385-6.247 6.267-13.957 10.26-22.992 11.901-3.262.574-10.36.633-13.68.08-13.82-2.274-25.622-10.993-31.632-23.368-3.005-6.188-4.33-11.882-4.33-18.781 0-4.172.317-6.722 1.266-10.478C11.17 22.273 24.04 9.957 39.836 6.794c4.31-.87 9.034-1.127 12.988-.692Z"/><path fill="#000" d="M44.363 6.813c-3.46.336-7.809 1.404-11.19 2.729-5.278 2.075-9.766 5.021-13.997 9.153-3.38 3.321-5.851 6.662-7.947 10.755-1.008 1.996-2.49 5.515-2.352 5.654.02.04 4.171-2.946 9.212-6.603 5.041-3.658 11.269-8.185 13.82-10.024 2.55-1.858 5.278-3.835 6.029-4.388.77-.574 3.321-2.432 5.694-4.152 2.352-1.7 4.29-3.143 4.29-3.183 0-.099-2.531-.06-3.56.06ZM49.898 7.268c.495.376 1.879 1.384 3.065 2.274 2.431 1.799 7.117 5.239 12.455 9.153 1.957 1.443 5.021 3.697 6.82 5.021 1.8 1.325 5.93 4.35 9.193 6.742 3.262 2.392 6.129 4.527 6.386 4.745.632.573.553.217-.475-2.294-3.36-8.244-9.311-15.341-16.745-19.947-5.792-3.598-12.751-5.832-19.473-6.208l-2.115-.138.89.652ZM47.427 8.098c-.553.455-3.183 2.373-12.554 9.154-2.234 1.62-5.654 4.112-7.61 5.535-1.958 1.424-5.378 3.915-7.612 5.536-6.544 4.744-9.173 6.662-9.371 6.84-.119.099 3.4.178 8.165.178h8.362l.376-.455c.198-.237.732-.929 1.166-1.522 2.412-3.321 6.742-6.702 10.439-8.165.77-.316.83-.395.83-1.048 0-1.502 1.542-2.767 3.183-2.61 1.087.12 1.858.554 2.313 1.345.297.534.356.534 1.601.435.712-.04 1.325-.119 1.364-.139.02-.02.02-3.538 0-7.808l-.059-7.77-.593.494ZM50.412 11.558c2.056 6.425 4.014 12.178 4.172 12.317.079.079.91.395 1.838.692 3.618 1.186 6.663 3.044 9.727 5.99l1.997 1.917 1.107-.059c1.324-.079 2.273.435 2.847 1.542.474.91.355 2.373-.257 3.203-.416.573-.416.632-.12 1.403.16.455.396 1.068.495 1.364l.198.514 2.036-.652c1.127-.356 4.35-1.384 7.177-2.273 2.826-.89 5.219-1.68 5.298-1.76.099-.099-1.285-1.206-3.065-2.49-1.779-1.286-4.33-3.164-5.693-4.152-2.51-1.839-3.994-2.907-18.781-13.641a1433.859 1433.859 0 0 1-9.134-6.643c-.395-.316-.77-.573-.81-.573-.06 0 .375 1.482.968 3.301ZM48.91 16.382v6.82l2.234.218c1.206.118 2.254.197 2.293.138.099-.079-.06-.593-2.55-8.085L48.93 9.541l-.02 6.84Z"/><path fill="#000" d="M41.16 22.689c-1.127.89-1.206 2.49-.138 3.538 1.087 1.087 2.53.969 3.519-.296.77-.989.356-2.729-.81-3.361-.693-.396-1.998-.336-2.57.119Z"/><path fill="#000" d="M45.687 24.21c-.079.06-.138.376-.138.693 0 1.324-1.107 2.451-2.669 2.649-.593.099-.969.257-1.107.494-.158.316-.04.435.85.89 2.194 1.107 3.42 2.57 4.132 4.863.395 1.265.652 1.581 1.107 1.404.198-.08.257-1.187.257-5.615v-5.516h-1.147c-.632 0-1.225.06-1.285.139ZM48.91 29.608v5.535h8.461l-1.68-5.1c-.93-2.788-1.78-5.18-1.878-5.299-.198-.257-2.689-.672-4.014-.672h-.89v5.536ZM54.84 25.021c0 .08.258.91.554 1.819l.554 1.64 1.285-.039c3.578-.118 6.544 2.155 7.315 5.654.237 1.048.237 1.048 1.008 1.048.593 0 .751-.079.751-.375 0-.198.218-.692.494-1.088.277-.395.495-.81.495-.91 0-.316-3.678-3.597-5.14-4.566-1.78-1.186-3.816-2.194-5.753-2.847-1.622-.553-1.562-.553-1.562-.336ZM38.056 26.346c-2.075.988-4.606 2.708-6.326 4.349-1.542 1.463-3.835 4.31-3.637 4.527.079.06.91.119 1.878.119 1.562 0 1.74-.04 1.74-.356 0-.672.75-2.59 1.383-3.5 1.384-2.016 4.033-3.32 6.505-3.241 1.126.04 1.304 0 1.463-.376.158-.336.059-.534-.534-1.087-.396-.376-.712-.771-.712-.91 0-.316-.138-.277-1.76.475Z"/><path fill="#000" d="M38.392 28.837c-3.064.434-5.693 2.985-6.109 5.91l-.078.495h6.504l.83-2.57c.474-1.423.85-2.59.85-2.61.02-.02-.277-.099-.613-.158-2.273-.435-5.496 1.8-6.148 4.191-.119.475-.297.85-.395.85-.08 0-.1-.197-.04-.454.89-2.926 3.005-4.646 5.93-4.844.97-.06 1.503-.178 1.563-.356.197-.494-.732-.672-2.294-.454ZM56.56 28.955c-.197.06-.335.238-.296.416.06.257.376.355 1.443.454 1.68.139 2.946.672 3.934 1.66.83.811 1.503 2.215 1.483 3.026 0 .395-.079.276-.316-.455-.751-2.432-2.926-4.033-5.536-4.053-.83 0-.81.08.1 2.867l.73 2.174 3.026.06 3.004.059v-.494c0-.85-.75-2.57-1.502-3.44-1.424-1.66-4.29-2.728-6.07-2.274ZM41.318 29.311c-.079.237.257.554 1.206 1.147 1.483.91 2.748 2.61 2.946 3.934.119.633.198.751.633.751.434 0 .474-.06.355-.632-.395-1.997-1.818-3.895-3.657-4.884-1.344-.711-1.325-.711-1.483-.316Z"/><path fill="#000" d="M40.33 32.514c-.396 1.285-.712 2.451-.712 2.57 0 .297 5.061.356 5.516.08.533-.357-.514-2.57-1.82-3.797-.454-.415-1.778-1.166-2.075-1.166-.099 0-.494 1.048-.91 2.313ZM68.383 33.265c-.89.474-1.285 1.087-1.285 2.036 0 .969.415 1.72 1.206 2.135 1.581.811 3.34-.296 3.34-2.095 0-1.621-1.858-2.807-3.261-2.076ZM11.842 36.132c-.06.079 11.486 3.894 12.475 4.112.158.04.336-.1.395-.297.079-.198.474-1.107.89-2.016.434-.91.77-1.72.77-1.82 0-.177-14.431-.157-14.53.02ZM27.282 36.369c-.415.633-1.898 3.835-1.898 4.072 0 .12.732.435 1.64.712.89.277 3.243 1.028 5.24 1.68 2.392.772 3.657 1.088 3.697.95.316-.97 2.254-7.058 2.352-7.414l.139-.435h-5.437c-5.437 0-5.456 0-5.733.435ZM37.938 39.947c-.712 2.214-1.285 4.073-1.285 4.132 0 .138 2.313.949 2.708.949.139 0 .475-.415.732-.95.652-1.264 1.977-2.727 3.202-3.518 1.206-.771 3.144-1.463 4.132-1.463h.692V35.934H39.243l-1.305 4.013ZM48.91 37.496v1.542l1.107.118c2.59.277 5.694 2.491 6.9 4.963.296.612.652 1.087.77 1.028.12-.06.732-.257 1.345-.455.731-.218 1.147-.475 1.147-.653 0-.158-.594-2.056-1.305-4.19l-1.305-3.915h-8.66v1.562ZM58.557 36.053c-.118.118 1.562 5.397 1.8 5.674.078.079.691-.376 1.364-.989 1.245-1.186 2.115-2.708 2.352-4.132.099-.652.08-.712-.336-.632-.376.04-.514.257-.712.988-.296 1.186-.81 2.017-1.937 3.124-1.246 1.206-1.147.79.158-.593.949-1.048 1.7-2.491 1.7-3.302 0-.198-.494-.257-2.135-.257-1.186 0-2.194.06-2.254.119Z"/><path fill="#000" d="M64.647 36.25a2.85 2.85 0 0 0-.119.752c0 .257-.316 1.087-.692 1.858-.652 1.305-1.404 2.155-2.748 3.123-.573.416-.593.455-.356 1.226l.237.81.95-.276c2.293-.692 9.548-3.025 9.647-3.104.04-.06-.099-.593-.336-1.206l-.415-1.087-1.226.02c-1.087.04-1.325-.04-1.977-.534-.415-.316-.87-.87-1.028-1.226-.257-.593-.356-.672-1.048-.672-.514 0-.81.099-.89.316ZM88.093 36.547c-.395 1.285-4.646 14.372-8.837 27.262-5.496 16.883-5.832 17.93-5.832 18.208 0 .612 5.911-5.002 7.81-7.434 8.125-10.379 11.03-23.605 7.927-36.119-.633-2.51-.791-2.807-1.068-1.917ZM8.204 37.041c-1.245 4.784-1.482 6.702-1.482 11.644 0 3.42.079 4.587.435 6.643 1.72 9.687 6.504 18.287 13.581 24.494 2.037 1.78 2.471 2.096 2.471 1.82 0-.1-.89-2.887-1.957-6.189A3348.145 3348.145 0 0 1 17.2 63.018c-6.169-19.058-8.62-26.57-8.7-26.65-.058-.039-.177.258-.296.673ZM9.41 36.547c.06.158.277.85.514 1.561.218.712 1.107 3.46 1.977 6.129.87 2.669 2.037 6.227 2.57 7.908 1.265 3.914 8.462 26.056 8.936 27.44.178.573.395 1.068.474 1.087.08.02.594-1.344 1.127-3.025.554-1.68 1.7-5.258 2.57-7.947l1.582-4.883-.751-1.048c-2.67-3.657-4.25-7.453-4.804-11.446-.119-.91-.257-1.938-.317-2.254-.059-.435-.256-.712-.77-.969-1.108-.593-1.543-1.482-1.444-2.906.08-.988.178-1.265.732-1.838.356-.356.929-.752 1.265-.85.534-.139.692-.337.969-1.246.415-1.245.454-1.186-1.523-1.78-.75-.236-3.835-1.205-6.82-2.174-6.9-2.214-6.405-2.076-6.287-1.76ZM84.85 37.219c-.058.06-2.747.949-5.97 1.957-3.242 1.028-5.93 1.918-5.99 1.977-.118.099.653 4.25.81 4.409.04.04 2.057-1.364 4.489-3.124 2.431-1.78 5.001-3.618 5.713-4.092 1.621-1.127 1.74-1.226 1.364-1.226-.178 0-.356.04-.415.099ZM86.175 37.595c-.316.257-1.878 1.384-3.46 2.53a674.061 674.061 0 0 0-5.97 4.31l-3.123 2.254v2.352c0 3.934-1.127 8.264-3.045 11.645-.692 1.225-.85 1.66-.692 1.858.396.474.574 1.72.356 2.53-.415 1.543-2.135 2.531-3.677 2.116-.81-.237-.949-.158-2.293 1.008l-.732.653 2.59 3.558c1.443 1.957 3.163 4.33 3.855 5.278 2.195 3.045 2.55 3.5 2.689 3.52.079 0 1.127-3.045 2.333-6.781 1.225-3.717 2.906-8.897 3.756-11.506.85-2.61 2.036-6.267 2.63-8.106.592-1.858 2.115-6.524 3.38-10.399 1.265-3.894 2.293-7.117 2.293-7.176 0-.217-.296-.099-.89.356ZM46.735 39.908c-2.313.454-4.843 2.352-5.99 4.468l-.554 1.028 1.048.316c.989.296 1.325.217 1.345-.336 0-.06.336-.554.75-1.088.87-1.087 2.65-2.135 3.955-2.352l.83-.139v-1.047c0-1.167.06-1.127-1.384-.85ZM48.91 40.758v1.048l.81.138c1.68.277 3.579 1.601 4.627 3.282l.494.77.89-.296c.494-.178.889-.395.889-.494 0-.415-1.384-2.313-2.313-3.183-1.206-1.107-2.214-1.64-3.855-2.036-.692-.158-1.305-.297-1.384-.297-.099 0-.158.475-.158 1.068Z"/><path fill="#000" d="M25.009 41.648c-.1.177-.238.652-.317 1.047-.118.672-.099.752.376.87.731.178 1.819 1.463 1.977 2.333.079.435.04 1.028-.1 1.443-.177.573-.177.751.08 1.008.297.277.395.238 1.206-.514 1.64-1.522 4.21-2.392 6.148-2.095.81.118.91.079 1.068-.336.118-.317.099-.554-.04-.692-.138-.139-1.265-.554-2.51-.93-1.246-.375-3.5-1.087-5.002-1.581-2.452-.81-2.728-.85-2.886-.553ZM66.505 43.07c-2.768.89-5.081 1.642-5.14 1.681-.139.139 2.431 7.79 2.63 7.79.078 0 1.68-1.088 3.518-2.432 1.858-1.325 3.816-2.729 4.37-3.104l.988-.672-.119-1.088c-.218-1.779-.731-3.776-.969-3.776-.138.02-2.51.732-5.278 1.602ZM46.043 43.13c-1.245.573-2.728 2.194-3.143 3.42-1.305 3.836 1.503 7.81 5.575 7.829 2.293.02 4.21-1.166 5.338-3.321.454-.83.533-1.226.533-2.57-.02-1.364-.078-1.72-.593-2.65-.711-1.304-2.016-2.47-3.202-2.866-1.384-.475-3.322-.415-4.508.158Zm4.211 2.827c1.147.85 1.602 2.728.95 3.974-.752 1.483-2.947 2.076-4.271 1.186-.93-.613-1.66-2.115-1.502-3.005.177-.949.89-1.938 1.7-2.353.87-.454 2.392-.355 3.123.198Z"/><path fill="#000" d="M47.091 46.372c-1.74 1.068-1.423 3.757.534 4.488 2.748 1.068 4.685-2.59 2.352-4.428-.652-.514-2.115-.554-2.886-.06ZM23.11 44.336c-1.779.91-1.917 3.045-.236 4.053 1.581.968 3.518-.139 3.499-2.017-.02-.83-.376-1.463-1.107-1.957-.692-.455-1.364-.474-2.155-.079ZM36.257 45.087c0 .04-.573 1.878-1.285 4.092-.712 2.215-1.245 4.073-1.186 4.112.08.08 3.005 2.235 5.614 4.132l1.266.91.652-.771c1.246-1.483 1.246-1.503.119-2.748-1.068-1.167-1.878-2.67-2.195-4.073-.257-1.087-.276-3.44-.04-4.25l.179-.613-1.325-.415c-1.265-.415-1.799-.514-1.799-.376ZM58.894 45.483l-1.206.434.158.791c.553 3.065-.336 6.01-2.53 8.383l-1.009 1.087.79 1.048c.416.573.85 1.047.95 1.047.079 0 1.72-1.126 3.637-2.49 3.262-2.353 3.48-2.531 3.361-3.045-.336-1.562-2.49-7.611-2.708-7.65-.139-.02-.791.157-1.444.395ZM31.335 46.53c-1.127.396-2.135 1.048-2.887 1.859-.553.593-.573.652-.217.87.198.118 1.087.751 1.977 1.403.87.672 1.878 1.404 2.214 1.641l.633.435.81-2.55c.455-1.404.81-2.61.81-2.669 0-.198-1.936-.138-2.846.099-.474.118-1.305.553-1.878.988-1.206.91-1.582.91-.474 0 1.166-.968 2.016-1.285 3.617-1.364 1.503-.079 1.977-.257 1.977-.751 0-.395-2.59-.356-3.736.04Z"/><path fill="#000" d="M39.895 46.689c-.06.296-.099 1.364-.04 2.372.06 1.582.158 2.017.712 3.124.336.711.988 1.7 1.443 2.214.89 1.008.989 1.008 1.78-.119l.415-.553-.653-.732c-.336-.415-.87-1.226-1.146-1.838-.435-.91-.514-1.345-.495-2.808 0-1.68 0-1.7-.494-1.818-.277-.06-.712-.159-.949-.238-.356-.099-.455-.02-.573.396ZM56.323 46.313c-.099.04-.435.119-.711.178-.514.118-.514.138-.495 1.839.02 2.016-.375 3.103-1.68 4.645l-.79.95.533.691c.277.376.633.692.771.692.257 0 1.522-1.423 2.096-2.372.731-1.167 1.166-2.788 1.166-4.31 0-2.194-.138-2.57-.89-2.313ZM72.534 47.4c-.059.1-.77.653-1.6 1.206-.811.574-1.444 1.088-1.404 1.147.494.89.968 2.175 1.126 3.005.514 2.669-1.008 5.713-3.44 6.939-.454.217-.83.435-.87.455-.02.02.04.257.139.533.158.416.356.514 1.147.593.514.06 1.087.178 1.265.238.336.158.988-.89 2.115-3.42 1.147-2.55 2.017-6.643 2.017-9.45 0-1.147-.218-1.7-.495-1.246ZM25.048 49.259c-.613.237-1.048.533-1.048.711 0 .159.139 1.147.277 2.175.553 3.578 2.076 7.394 4.092 10.28l1.028 1.463.574-1.66c.652-1.958.652-1.977.217-1.977-.455 0-2.036-1.266-2.807-2.234-1.66-2.136-1.997-5.496-.771-7.908.296-.593.336-.83.138-1.048-.277-.336-.415-.336-1.7.198Z"/><path fill="#000" d="M26.847 50.702c-.277.692-.376 1.443-.376 2.728 0 1.522.08 1.937.534 2.906.613 1.325 1.8 2.669 2.887 3.282.731.395.79.415.929.099.079-.257-.08-.514-.633-.95-1.7-1.344-2.471-2.47-2.847-4.23-.217-1.068 0-2.788.494-3.776.198-.395.218-.613.06-.771-.415-.415-.672-.218-1.048.712ZM68.62 50.188c-.316.178-.316.257.099 1.028.514 1.028.712 3.4.356 4.33-.554 1.403-1.246 2.174-3.124 3.42-.02.02 0 .177.08.355.316.83 2.708-1.008 3.538-2.728.751-1.522.85-3.064.316-4.804-.454-1.542-.731-1.878-1.265-1.601Z"/><path fill="#000" d="M27.895 51.374c-.85 2.61-.1 5.12 1.996 6.8l1.127.89.83-2.629c.475-1.423.85-2.708.85-2.807-.02-.178-3.736-2.986-4.25-3.183-.138-.06-.356.296-.553.929ZM65.971 52.145l-1.799 1.384.731 2.333c.416 1.285.811 2.451.89 2.59.099.158.415.039 1.008-.396 1.582-1.147 2.392-2.827 2.215-4.606-.12-1.206-.692-2.689-1.009-2.67-.118 0-1.028.633-2.036 1.365ZM33.39 54.32c-.197.316-3.261 9.884-3.261 10.18 0 .297 3.321 3.52 3.558 3.421.139-.04 4.211-5.536 6.11-8.244l.474-.672-.475-.356c-.454-.356-5.1-3.736-5.891-4.29-.277-.198-.415-.198-.514-.04ZM44.264 54.873c-.277.396-.494.791-.494.87 0 .237 1.581.988 2.669 1.265 1.206.336 2.51.356 3.894.06.87-.178 2.392-.791 2.709-1.088.079-.059-.91-1.66-1.028-1.66-.02 0-.514.178-1.088.395-1.482.573-3.538.534-5.04-.079l-1.148-.475-.474.712ZM61.364 55.526c-1.027.75-1.897 1.443-1.937 1.542-.06.197.712.77 1.7 1.285 1.305.672 3.796.83 3.796.237 0-.475-1.305-4.35-1.483-4.389-.118-.04-1.047.554-2.075 1.325Z"/><path fill="#000" d="M42.702 57.048c-.217.296-.593.81-.85 1.166l-.474.613 1.047.79c4.666 3.44 5.734 4.192 5.912 4.192.276 0 6.9-4.745 6.9-4.923 0-.079-.357-.652-.792-1.265l-.79-1.087-1.147.573c-2.392 1.186-5.713 1.186-8.105-.04-.613-.316-1.167-.573-1.226-.573-.06.02-.277.257-.475.554ZM58.597 57.582c0 .276 1.147 1.166 2.273 1.72.91.474 2.828.81 3.777.652.75-.099.85-.178.672-.474-.139-.297-.356-.337-1.147-.258-1.265.12-2.886-.355-4.191-1.245-1.127-.751-1.384-.83-1.384-.395Z"/><path fill="#000" d="M57.114 58.55c-.553.455-.573.514-.316.95.336.553 5.278 7.373 5.871 8.105l.435.533 1.009-.79.988-.791-.415-.692c-.475-.79-.534-2.135-.158-2.866.138-.258.494-.752.81-1.068.376-.415.534-.732.455-1.008-.099-.376-.277-.435-2.017-.514-2.135-.1-3.182-.455-4.784-1.641-.514-.376-1.028-.692-1.107-.692-.099 0-.435.217-.77.474ZM39.46 61.476c-3.934 5.378-4.982 6.84-4.982 6.999 0 .158 1.66 1.265 1.898 1.265.08 0 .297-.217.514-.494.87-1.127 2.65-1.423 3.895-.672.632.375.672.375 1.087.04.217-.198.435-.357.474-.376.04-.02-.118-.594-.336-1.285-.514-1.523-.533-3.559-.079-5.18l.317-1.186-.534-.475c-.297-.237-.613-.454-.712-.454-.119 0-.79.83-1.542 1.818ZM52.33 61.99c-1.76 1.266-3.183 2.373-3.163 2.452.079.277 8.698 6.484 8.995 6.484.316 0 3.064-1.423 3.776-1.957l.474-.356-3.202-4.428c-1.78-2.432-3.322-4.448-3.44-4.468-.139-.02-1.68.988-3.44 2.273Z"/><path fill="#000" d="M42.623 61.377c-.395.752-.672 2.531-.573 3.5.217 1.898.692 3.024 1.186 2.827.277-.1.257-.237-.08-1.127-.454-1.186-.493-3.104-.098-4.409.138-.494.217-.949.158-1.008-.198-.217-.415-.119-.593.218Z"/><path fill="#000" d="M43.335 62.168c-.376.87-.297 3.598.099 4.35.197.355.395.652.434.652.178 0 3.658-2.63 3.658-2.768 0-.138-3.638-2.768-3.835-2.768-.08 0-.238.238-.356.534ZM66.11 62.267c-.455.297-.791.751-.99 1.285-.256.751-.236.91.06 1.542.376.771 1.364 1.483 2.116 1.483.632 0 1.66-.633 2.095-1.285.475-.732.277-1.977-.474-2.709-.81-.81-1.898-.929-2.808-.316ZM46.557 66.181c-2.57 1.82-2.471 1.72-1.74 2.373 1.384 1.186 2.966 1.6 4.627 1.206.929-.238 2.827-1.424 2.827-1.78 0-.178-3.341-2.708-3.816-2.886-.118-.06-.988.435-1.898 1.087ZM28.527 69.206c-.672 2.076-1.68 5.259-2.273 7.038-.593 1.78-1.048 3.262-1.008 3.302.02.04 1.838-2.412 4.033-5.417l3.973-5.477-.929-.77a34.066 34.066 0 0 1-1.74-1.641l-.83-.85-1.226 3.815Z"/><path fill="#000" d="M43.473 68.336c-.197.336 1.088 1.582 2.234 2.135.95.475 1.364.554 2.61.534 1.048-.02 1.74-.138 2.372-.415 1.226-.553 2.57-1.582 2.57-1.937 0-.574-.593-.534-1.285.079-1.087.949-1.858 1.265-3.36 1.364-1.622.099-3.025-.376-3.974-1.364-.554-.593-.95-.712-1.167-.396ZM38.294 69.147c-1.048.454-1.523 1.324-1.384 2.451.118.91 1.028 1.878 1.779 1.918 1.443.079 2.096-.237 2.59-1.265.435-.93.395-1.483-.119-2.234-.77-1.107-1.7-1.404-2.866-.87Z"/><path fill="#000" d="M42.346 69.186c-.257.218-.296.514-.217 1.661l.099 1.404 1.225.237c2.096.435 7.078.494 9.114.138 1.997-.356 4.448-1.047 4.448-1.265-.02-.079-.731-.652-1.601-1.285l-1.562-1.147-1.008.89c-2.55 2.293-6.544 2.293-8.995.02-1.048-.989-1.068-.989-1.503-.653Z"/><path fill="#000" d="M31.77 71.974a889.269 889.269 0 0 1-4.607 6.326c-1.403 1.938-2.57 3.559-2.57 3.598 0 .06 10.537.1 23.427.1 12.89 0 23.427-.06 23.407-.16 0-.078-.514-.474-1.127-.889-.612-.395-2.807-1.996-4.883-3.519a348.65 348.65 0 0 0-5.634-4.132l-1.878-1.344-1.68.554c-3.757 1.245-9.193 1.542-12.91.692l-1.542-.356-.415.455c-.475.513-1.522.988-2.175.988-1.483-.02-2.926-1.463-3.005-2.966-.04-.731-.138-.85-1.127-1.482-.573-.376-1.107-.672-1.166-.672-.06 0-1.008 1.265-2.115 2.807ZM61.562 70.076c-.593.376-1.482.87-1.957 1.087-.83.376-.87.415-.494.692.198.139 2.886 2.115 5.97 4.37 3.084 2.253 5.674 4.131 5.793 4.15.099.04-1.621-2.411-3.816-5.456-2.214-3.064-4.092-5.555-4.21-5.555-.1.02-.693.316-1.286.712ZM24.712 82.966c.099.099.93.652 1.858 1.206a42.945 42.945 0 0 0 17.477 5.95c2.55.297 9.133.12 11.446-.316 5.615-1.028 10.952-3.084 15.361-5.93l1.68-1.068-24-.02c-14.51 0-23.94.079-23.822.178Z"/></svg>