<svg width="122" height="127" viewBox="0 0 122 127" fill="none" xmlns="http://www.w3.org/2000/svg">
<path d="M49.179 95.2364L92.4579 70.259L72.7962 58.812L29.5463 83.9945L49.179 95.2364ZM94.448 44.1477L74.7657 32.7008V55.3646L94.4521 66.8157L94.448 44.1477ZM96.4134 17.8064L76.7351 29.2533L96.4134 40.7003L116.087 29.2491L96.4134 17.8064ZM35.8064 75.7523L47.2261 69.1042V19.1745L27.5396 30.6298V80.5595L35.8064 75.7523ZM25.5701 4.28424L5.89188 15.7354L25.5701 27.1865L45.2359 15.7354L25.5701 4.28424ZM3.91827 19.1787V96.3786L47.2137 121.574V98.6839L24.573 85.7308C24.4985 85.6764 24.4405 85.6178 24.3619 85.5676C24.304 85.5132 24.2378 85.4714 24.1799 85.4253L24.1757 85.4128C24.1137 85.35 24.0599 85.2831 24.0144 85.2078L24.0102 85.2036C23.9523 85.1492 23.9068 85.0864 23.8654 85.0153L23.8613 85.0111H23.8489C23.8158 84.9484 23.7827 84.8647 23.7496 84.781L23.7454 84.7643C23.7165 84.7015 23.6834 84.6304 23.6544 84.5509L23.6503 84.5384C23.6337 84.4547 23.6172 84.3501 23.6089 84.2455V84.2371C23.5965 84.1744 23.5841 84.0991 23.5758 84.0238V84.0196V30.6382L12.1686 23.9859L3.91827 19.1787ZM94.4521 96.3744V73.6897L51.1568 98.6839V121.569L94.4521 96.3744ZM118.053 55.3646V32.7008L98.3746 44.1519V66.8157L118.053 55.3646ZM121.926 28.7345C121.971 28.8935 122 29.0734 122 29.2617V56.5109C122 57.2473 121.607 57.8874 121.019 58.2305L121.011 58.2347L98.387 71.4095V97.5208C98.387 98.2529 97.9939 98.8931 97.4105 99.2403L97.4022 99.2445L50.1679 126.732C50.0686 126.787 49.9527 126.837 49.8327 126.87L49.8203 126.874L49.6962 126.929C49.5472 126.975 49.3735 127 49.1956 127C49.0176 127 48.8439 126.975 48.6784 126.925L48.6908 126.929C48.6287 126.912 48.5791 126.891 48.5294 126.862L48.5335 126.866C48.4053 126.82 48.2977 126.778 48.1943 126.728L48.2108 126.736L0.988876 99.2487C0.393068 98.8973 0 98.2571 0 97.525V15.7395C0 15.5555 0.0289631 15.3756 0.0786138 15.2082L0.0744761 15.2208C0.0910263 15.158 0.128264 15.1162 0.148952 15.0534C0.18619 14.9321 0.227566 14.8317 0.273079 14.7354L0.268941 14.748C0.302042 14.681 0.343417 14.6225 0.38893 14.5723L0.562708 14.3338L0.757173 14.1915C0.831649 14.1288 0.89785 14.066 0.972326 14.0116H0.976464L24.5936 0.267765C24.875 0.100412 25.2143 0 25.5742 0C25.9342 0 26.2735 0.100412 26.5631 0.271949L26.5548 0.267765L50.1803 14.0116C50.2589 14.066 50.3251 14.1246 50.3913 14.1873L50.5899 14.3296C50.6561 14.4049 50.6933 14.4886 50.7637 14.5681C50.8133 14.6183 50.8547 14.6769 50.892 14.7396L50.8961 14.7438C50.9375 14.8275 50.9788 14.9279 51.0161 15.0325L51.0202 15.0492L51.0864 15.2166C51.1319 15.363 51.1609 15.5345 51.1609 15.7103C51.1609 15.7186 51.1609 15.727 51.1609 15.7354V66.8115L70.8391 55.3604V29.2491C70.8391 29.2449 70.8391 29.2408 70.8391 29.2408C70.8391 29.0608 70.8639 28.8851 70.9095 28.7178L70.9053 28.7303C70.9219 28.6759 70.9591 28.6257 70.9715 28.563C71.0129 28.4375 71.0543 28.337 71.1039 28.2366L71.0956 28.2534C71.1329 28.1906 71.1908 28.1488 71.228 28.0777C71.2901 27.9982 71.3398 27.9187 71.4018 27.8517C71.4597 27.7973 71.5218 27.7471 71.588 27.7053L71.5921 27.7011C71.6666 27.6467 71.7287 27.5798 71.8073 27.5338H71.8114L95.4286 13.7857C95.71 13.6184 96.0492 13.5179 96.4092 13.5179C96.7692 13.5179 97.1085 13.6184 97.3981 13.7899L97.3898 13.7857L121.007 27.5338C121.09 27.5881 121.148 27.6467 121.226 27.6969C121.288 27.7513 121.359 27.7931 121.417 27.8434C121.483 27.9187 121.532 28.0023 121.595 28.0777C121.64 28.1279 121.681 28.1864 121.719 28.245L121.723 28.2492C121.772 28.3412 121.814 28.4458 121.847 28.5546L121.851 28.5672C121.884 28.6174 121.909 28.6718 121.93 28.7303L121.926 28.7345Z" fill="#FF2718"/>
</svg>
