<svg width="84" height="84" viewBox="0 0 84 84" fill="none" xmlns="http://www.w3.org/2000/svg">
<g clip-path="url(#clip0_2001_9)">
<path d="M74.025 20.65L44.975 4.20001C44.0441 3.76295 43.0284 3.53636 42 3.53636C40.9716 3.53636 39.9559 3.76295 39.025 4.20001L9.975 20.65C9.08182 21.1656 8.33798 21.9044 7.81643 22.7941C7.29489 23.6838 7.01355 24.6938 7 25.725V58.275C7.01355 59.3062 7.29489 60.3162 7.81643 61.2059C8.33798 62.0956 9.08182 62.8345 9.975 63.35L17.675 67.725C19.6865 68.9136 21.989 69.5195 24.325 69.475C29.75 69.475 32.9 66.15 32.9 60.55V28.525C32.9 28.2929 32.8078 28.0704 32.6437 27.9063C32.4796 27.7422 32.2571 27.65 32.025 27.65H28.35C28.1179 27.65 27.8954 27.7422 27.7313 27.9063C27.5672 28.0704 27.475 28.2929 27.475 28.525V60.55C27.475 63.175 24.85 65.625 20.65 63.525L12.6 58.975C12.4913 58.8935 12.4031 58.7878 12.3424 58.6663C12.2816 58.5448 12.25 58.4109 12.25 58.275V25.725C12.262 25.4017 12.3857 25.0925 12.6 24.85L41.475 8.57501H42.525L71.4 24.85C71.6143 25.0925 71.7379 25.4017 71.75 25.725V58.275C71.75 58.4109 71.7184 58.5448 71.6576 58.6663C71.5969 58.7878 71.5087 58.8935 71.4 58.975L42.525 75.25C42.3654 75.3422 42.1843 75.3907 42 75.3907C41.8157 75.3907 41.6346 75.3422 41.475 75.25L34.125 71.05C34.0287 70.9639 33.9041 70.9163 33.775 70.9163C33.6459 70.9163 33.5213 70.9639 33.425 71.05L29.05 72.975C28.525 73.15 27.825 73.325 29.225 74.2L39.025 79.625C39.9089 80.2047 40.9429 80.5135 42 80.5135C43.057 80.5135 44.0911 80.2047 44.975 79.625L74.025 63.35C74.9182 62.8345 75.662 62.0956 76.1836 61.2059C76.7051 60.3162 76.9864 59.3062 77 58.275V25.725C76.9864 24.6938 76.7051 23.6838 76.1836 22.7941C75.662 21.9044 74.9182 21.1656 74.025 20.65Z" fill="#90CA51"/>
<path d="M50.925 53.025C43.225 53.025 41.65 51.275 40.95 47.6C40.95 47.4144 40.8763 47.2363 40.745 47.105C40.6137 46.9738 40.4357 46.9 40.25 46.9H36.4C36.2144 46.9 36.0363 46.9738 35.905 47.105C35.7738 47.2363 35.7 47.4144 35.7 47.6C35.7 52.325 38.325 58.1 50.925 58.1C60.025 58.1 65.275 54.6 65.275 48.475C65.275 42.35 61.075 40.6 52.15 39.55C43.225 38.5 42.35 37.8 42.35 35.7C42.35 33.6 43.05 31.85 49.7 31.85C56.35 31.85 57.925 33.075 58.8 36.925C58.8409 37.1256 58.9509 37.3055 59.1108 37.4334C59.2706 37.5613 59.4703 37.6291 59.675 37.625H63.35L64.05 37.275C64.1133 37.204 64.1615 37.1208 64.1916 37.0305C64.2217 36.9403 64.2331 36.8448 64.225 36.75C63.7 29.925 58.975 26.775 49.7 26.775C40.425 26.775 36.575 30.275 36.575 35.875C36.575 41.475 41.475 43.75 49.35 44.625C57.225 45.5 59.675 46.725 59.675 48.65C59.675 50.575 57.05 53.025 50.925 53.025Z" fill="#90CA51"/>
</g>
<defs>
<clipPath id="clip0_2001_9">
<rect width="84" height="84" fill="white"/>
</clipPath>
</defs>
</svg>
