<svg width="47" height="47" viewBox="0 0 47 47" fill="none" xmlns="http://www.w3.org/2000/svg">
<path fill-rule="evenodd" clip-rule="evenodd" d="M29.9484 43.3763C28.8157 43.3763 27.8992 42.4552 27.8992 41.3166C27.8992 40.178 28.8157 39.2592 29.9484 39.2592C31.0811 39.2592 31.9976 40.178 31.9976 41.3166C31.9976 42.4552 31.0811 43.3763 29.9484 43.3763ZM23.6692 47C35.6025 47 34.8576 41.7986 34.8576 41.7986L34.8434 36.4101H23.4577V34.7922H39.3649C39.3649 34.7922 47 35.6639 47 23.562C47 11.46 40.3378 11.8865 40.3378 11.8865H36.3592V17.5045C36.3592 17.5045 36.5731 24.2011 29.8027 24.2011H18.5086C18.5086 24.2011 12.1636 24.1004 12.1636 30.3676V40.728C12.1636 40.728 11.2001 47 23.6692 47ZM17.0539 3.62368C18.1866 3.62368 19.1008 4.54475 19.1008 5.68337C19.1008 6.822 18.1866 7.74077 17.0539 7.74077C15.9212 7.74077 15.0048 6.822 15.0048 5.68337C15.0048 4.54475 15.9212 3.62368 17.0539 3.62368ZM23.3308 0C11.3999 0 12.1448 5.20144 12.1448 5.20144L12.1589 10.5899H23.5447V12.2078H7.63513C7.63513 12.2078 0 11.3361 0 23.438C0 35.54 6.6646 35.1134 6.6646 35.1134H10.6408V29.4955C10.6408 29.4955 10.427 22.7989 17.1996 22.7989H28.4914C28.4914 22.7989 34.8364 22.8996 34.8364 16.6324V6.27202C34.8364 6.27202 35.7999 0 23.3308 0Z" fill="#4581B1"/>
</svg>
