<svg width="54" height="31" viewBox="0 0 54 31" fill="none" xmlns="http://www.w3.org/2000/svg">
<path fill-rule="evenodd" clip-rule="evenodd" d="M16.2326 15.5047C10.4921 15.5047 6.90401 18.3487 5.46835 24.0367C7.62078 21.1917 10.1326 20.1253 13.004 20.8376C14.6403 21.2438 15.8133 22.4216 17.1028 23.7243C19.2122 25.8488 21.6557 28.3043 26.9937 28.3043C32.7342 28.3043 36.3223 25.4603 37.7579 19.7723C35.6055 22.6173 33.0936 23.6837 30.2223 22.9714C28.5859 22.5653 27.413 21.3875 26.1235 20.0847C24.011 17.9603 21.5706 15.5047 16.2326 15.5047ZM26.9968 2.69565C21.2563 2.69565 17.6683 5.53967 16.2326 11.2277C18.385 8.38265 20.8969 7.31628 23.7682 8.02858C25.4046 8.43472 26.5775 9.61253 27.8671 10.9153C29.9827 13.0491 32.4263 15.5047 37.7674 15.5047C43.5079 15.5047 47.096 12.6607 48.5316 6.97262C46.3792 9.81768 43.8673 10.8841 40.996 10.1717C39.3596 9.76561 38.1867 8.5878 36.8972 7.28503C34.7752 5.16373 32.3348 2.69565 26.9968 2.69565Z" fill="#38BDF8"/>
</svg>
