<?xml version="1.0" encoding="UTF-8"?>
<!DOCTYPE svg PUBLIC "-//W3C//DTD SVG 1.1//EN" "http://www.w3.org/Graphics/SVG/1.1/DTD/svg11.dtd">
<!-- Creator: CorelDRAW 2018 (64-Bit) -->
<svg xmlns="http://www.w3.org/2000/svg" xml:space="preserve" width="297mm" height="210mm" version="1.1" style="shape-rendering:geometricPrecision; text-rendering:geometricPrecision; image-rendering:optimizeQuality; fill-rule:evenodd; clip-rule:evenodd"
viewBox="0 0 29700 21000"
 xmlns:xlink="http://www.w3.org/1999/xlink">
 <defs>
  <style type="text/css">
   <![CDATA[
    .fil0 {fill:#F7954E}
   ]]>
  </style>
 </defs>
 <g id="Layer_x0020_1">
  <metadata id="CorelCorpID_0Corel-Layer"/>
  <g id="_2290627404512">
   <path class="fil0" d="M7092.21 9939.52c12.44,-51.49 360.56,-206.18 436.37,-253.11 132.47,-82.01 667.52,-487.35 759.67,-594.66 105.08,-122.37 194.93,-264.62 299.81,-391.75 440.57,-534.12 820.08,-1047.15 963.55,-1745.12 144.1,-701.07 156.27,-1583.84 -479.88,-2060.24 -285.88,-214.1 -739.18,-271.45 -1028.1,-38.45 -222.45,179.39 -449.11,499.29 -650,718.75 -422.38,461.43 -826.28,952.85 -1244.4,1420.61 -533.63,596.99 -1254.94,1716.55 -1607.49,2470.32 -143.94,307.75 -329.58,567.45 -473.58,866.39 -76.41,158.59 -125.91,328.44 -185.79,493.52 -142.3,392.25 -261.78,446.65 -353.07,955.87 -41.76,232.91 -28.22,310.98 -219.44,472.09 -52.58,-238.26 54.87,-723.55 134.06,-960.92 109.1,-327.02 147.46,-637.05 242.5,-953.35 95.22,-316.89 159.43,-618.86 225.78,-941.25 69.43,-337.33 200.77,-597.84 281.77,-915.36 51.69,-202.67 219.38,-670.56 313.28,-852.42 305.64,-591.83 427.94,-952.44 804.16,-1558.74 144.15,-232.32 395.44,-442.29 489.05,-678.97 51.1,-129.21 36.84,-352.42 -25.24,-475.66 -88.6,-175.87 -97.74,-233.44 -297.32,-282.43 -379.1,-93.05 -552.9,154.36 -767.31,389.59 -93.9,103.02 -202.42,182.78 -296.68,288.73 -201,225.95 -530.64,811.63 -645.47,1076.04 -118.15,272.03 -216.61,534.47 -325.67,808.72 -114.31,287.4 -250.12,524.12 -371.55,797.86 -166.38,374.98 -398.19,1327.31 -490.06,1783.93 -63.54,315.7 -123.6,649.47 -204.39,959.9 -38.85,149.27 -94.07,290.29 -127.51,439.39 -100.57,448.32 -185.69,1157.31 -177.51,1596.78 3.49,186.78 -36.72,331.76 -45.96,512.23 -20.95,409.82 89.83,1109.65 566.21,1245.55 98.32,28.04 406.4,28.52 489.41,-15.52 170.7,-90.57 159.65,-253.01 185.93,-419.2 144.32,-912.83 824.58,-2539.37 1235.69,-3403.62 123.12,-258.84 249.91,-516.8 416.51,-750.35 154.94,-217.18 319.32,-453.47 459.99,-679.38 302.48,-485.81 563.09,-962.13 900.39,-1428.75 421.97,-583.79 747.98,-1122.6 1304.49,-1624.18 115.05,-103.68 463.76,-593.9 688.73,-362.77 79.33,81.5 53.06,425.05 29.01,533.69 -139.38,629.54 -208.8,757.21 -531.01,1226.04 -85.31,124.14 -148.2,242.41 -242.48,362.65 -186.25,237.56 -300.33,454.09 -515.58,680.26 -175.19,184.09 -398.69,447.34 -591.16,604.7 -116.6,95.35 -217.51,165.54 -340.01,250.7 -140.75,97.83 -157.79,172.09 -341.72,263.4 -131.15,65.09 -267.6,127.48 -400.24,190.47 -61.59,29.26 -138.42,66.88 -174.92,127.65 -80.37,133.75 2.48,325.25 84.61,426.67 123.3,152.27 366.03,286.87 573.67,333.86 335.94,76.03 146.64,36.04 351.75,-9.84 225.23,-50.4 397.94,-143.76 644.09,-107.24 77.43,11.48 191.34,-1.19 254.51,33.76 203.01,112.31 291.09,381.81 317.06,594.8 43.6,357.63 -12.23,648.77 -172.23,967.37 -693.77,1381.44 -2769.25,2473.49 -4222.42,2954.02 -157.1,51.95 -305.25,93.88 -468.11,124.82 -174.1,33.08 -831.96,59.76 -768.27,331.15 34.4,146.57 246.07,201.46 371.81,229.39 598.44,132.92 1572.36,65.97 2165.13,-105.2 521.37,-150.55 1190.94,-462.66 1676.5,-715.17 1076.6,-559.92 1880,-1199.37 2394.71,-2327.73 263.99,-578.68 402.49,-1357.93 134.77,-1957.03 -140.57,-314.61 -264.05,-427.32 -533.28,-631.91 -357.08,-271.34 -580.33,-80.88 -877.12,-291.35z"/>
   <path class="fil0" d="M15124.2 10957.04c65.47,-119.4 110.6,-308.32 172.73,-389.18 32.24,-41.98 246.44,-265.13 284.54,-292.56 147.6,-106.24 282.7,6.35 330.83,153 46.96,143.18 30.05,319.09 81.9,494.4 125.19,423.23 -43.89,491.23 -265.38,797.45 -85.38,118.03 -137.5,248 -215.83,360.47 -75.5,108.43 -182.06,195.99 -265.52,311.04 -76.79,105.86 -106.1,199.23 -195.79,306.41 -87.64,104.69 -189.11,193.6 -279.97,298.15 -48.04,55.27 -247.49,330.64 -296.38,124.06 -22.21,-93.89 29.45,-420.26 50.26,-528.65 81.64,-425.19 309.24,-1052.47 519.65,-1454.23 29.22,-55.8 58.07,-142.25 78.96,-180.36zm-4062.97 3486.67c0,-323.49 -11.47,-135.49 51.2,-323.39 22.53,-67.58 87.03,-202.61 121.9,-267.12 18.04,-33.4 131.76,-391.07 213.25,-550.35l225.5 -538.11c52.44,-154.02 183.2,-389.13 223.31,-510.34 56.28,-170.05 152.2,-350.86 214.55,-521.39 34.63,-94.71 22.72,-231.33 -20.69,-320.99 -69.53,-143.55 -62.47,-111.38 -188.53,-200.49 -299.47,-211.68 -1109.09,101.42 -1217.81,-279.78 -26.05,-91.37 56.87,-165.48 94.72,-242.92 48.58,-99.4 61.04,-159.45 125.14,-258.95 99.11,-153.83 234.17,-361.76 70.69,-524.31 -134.66,-133.89 -379.22,-162.51 -551.68,-105.9 -192.59,63.26 -304.36,196.53 -441.3,336.96 -181.33,185.93 -191.49,225.8 -249.01,485.73 -37.49,169.37 30.14,485.46 93.48,647.86 245.3,629.05 898.24,416.47 1024.46,524.57 26.78,83 -114.17,362.61 -160.97,447.36 -61.12,110.66 -133.33,310.06 -185.06,434.46 -37.37,89.87 -65.63,120.34 -98.56,218.43 -15.78,47.02 -34.26,64.92 -51.87,106.59 -20.13,47.62 -19.09,85.19 -41.21,131.68 -27.69,58.18 -80.58,125.35 -110.22,181.27 -6.08,11.45 -93.17,221.03 -95.98,232.08 -117.11,461.41 -178.95,541.12 -84.39,1057.25 55.55,303.17 250.66,604.61 544.34,723.48 288.99,116.96 697.4,-104.03 904.07,-301.44 284.47,-271.76 419.25,-230.77 853.27,-760.41 48.65,-59.39 105.13,-105.25 155.31,-161.66 101.97,-114.58 202.73,-229.36 298.23,-350.11 84.91,-107.38 209,-235.5 272,-351.21 56.1,-103.04 156.94,-389.61 294.41,-309.08 39.05,63.13 25.17,245.45 41.74,337.03 19.26,106.4 61.7,183.72 111.92,277.11 122.59,227.93 102.41,272.26 336.11,427.49 117.6,78.12 514.91,63.64 652.91,-12.17 476.06,-261.55 516.65,-463.39 778.44,-734.39 177.59,-183.83 370.27,-420.37 502.82,-635.38 43.39,-70.42 81.83,-187.26 123.07,-265.94 46.85,-89.43 108.82,-149.96 159.34,-229.67 54,-85.2 89.94,-174.06 197.88,-191.13 -0.82,280.52 -178.83,415.47 -222.09,1074.61 -24.44,372.14 6.13,760.12 170.95,1100.83 144.12,297.92 378.82,534.18 728.26,549.5 400.72,17.54 585.2,-207.27 863.55,-449.47 210.14,-182.85 376.88,-515.7 564.92,-731.79 245.37,-281.99 278.16,-520.02 476.08,-783.82 290.48,-387.19 287.42,-605.77 426.18,-864.07 82.48,-153.55 102.42,-90.13 233.28,-405.21 41.81,-100.66 98.74,-294.62 -33.03,-350.18 -153.03,-64.53 -132.88,-96.37 -275.09,104.23 -21.21,29.91 -96.58,155.69 -113.83,188.73 -84.73,162.36 -172.54,220.32 -261.57,357.96 -225.68,348.9 -198.33,372.54 -475.44,749.22 -86.24,117.25 -176.41,227.97 -261.48,343.65 -90.38,122.84 -139.19,239.32 -253.95,365.59 -94.77,104.26 -197.92,206.91 -291.59,313.54 -132.13,150.41 -156.5,242.31 -381.86,237.66 0,-109.71 -13.71,-458.8 7.11,-540.38 42,-164.5 27.78,-323.66 78.27,-484.49 26.63,-84.79 49.24,-330.18 58.88,-429.87 4.71,-48.85 26.05,-62.3 53.34,-220.66 31.84,-184.65 266.34,-821.36 363.05,-976.88 72.3,-116.24 151.4,-237.25 177.53,-370.49 24.2,-123.22 26.09,-84.15 -5.34,-217.11 -89.2,-377.48 -600.34,-546.6 -892.97,-392.51 -180.92,95.26 -374.59,373.17 -451.82,352.39 -38.24,-10.3 -96.57,-121.84 -125.38,-160.93 -186.74,-253.28 -99.31,-436.62 -420.27,-689.12 -479.25,-377 -884.38,19.21 -1195.4,177.81 -400.88,204.41 -505.03,512.69 -752.32,876.58 -167.55,246.54 -218.36,507.16 -355.67,738.47 -67.65,113.96 -156.61,195.56 -228.34,319.17 -258.28,445.15 -472.26,584.49 -731.83,939.46 -172.27,235.57 -270.76,412.48 -483.34,626.04 -191.12,192.01 -293.46,413.06 -501.13,608.26 -248.67,233.76 -289.26,400.94 -674.44,420.56z"/>
   <path class="fil0" d="M24085.82 10683.3c0.17,-0.32 448.44,-622.04 633.09,-346.18 84.42,126.15 68.19,298.94 84.45,430.21 61.78,498.84 252.74,355.86 -341.99,1213.59 -65.29,94.17 -169.1,233.52 -250.03,311.87 -143.54,138.96 -131.9,228.71 -227.81,348.53 -80.81,100.96 -180.38,198.53 -266.62,295.85 -76.01,85.79 -166.46,248.45 -293.44,237.14 -158.82,-14.18 -72.68,-305.68 -65.5,-423.78 7.61,-124.89 64.07,-350.09 106.92,-469.36 97.95,-272.77 183.73,-543.61 296.11,-813.3 72.22,-173.28 217.5,-410.08 271.12,-578.97 10.46,-32.95 46.66,-191.78 53.7,-205.6zm965.33 1541.63c-11.85,200.9 -92.69,321 -128.8,505.13 -34.53,176.09 -21.17,374.83 -58.97,574.84 -58.26,308.29 92.22,714.18 208.05,1001.33 122.9,304.69 418.15,495.28 744.02,494.82 283.52,-0.39 626.11,-249.93 805.71,-458.88 122.28,-142.28 835.48,-1197.1 1020.32,-1457.56 96.08,-135.41 182.26,-241.97 232.1,-401.84 116.96,-375.16 641.07,-948.5 462.54,-1324.01l-187.31 0c-57.94,82.63 -83.04,63.72 -135.66,167.9 -118.25,234.14 -240.92,303.71 -356.61,535.63 -127.86,256.38 -799.8,1232.89 -999.75,1435.19 -137.31,138.92 -428.56,639.85 -632.71,591.13 -96.49,-91.04 -20.84,-200.08 -20.47,-322.28 0.39,-129.64 -19.37,-259.17 22.14,-381.69 40.09,-118.43 55.32,-509.32 102,-675.55 44.86,-159.7 92.03,-505.28 152.98,-653.84 75.18,-183.26 136.21,-374.41 227.44,-550.57 66.6,-128.6 207.57,-414.23 224.3,-546.69 5.97,-47.26 -58.44,-239.6 -84.36,-288.51 -169.09,-319.02 -623.94,-338.62 -843.31,-213.95 -329.93,187.47 -305.88,335.3 -494.31,326.91 -250.9,-473.75 -96.83,-701.9 -704.05,-938.34 -434.07,-169.01 -832.39,219.27 -1166.48,450.95 -412.27,285.94 -434.7,586.79 -659.8,981.87 -51.55,90.46 -115.38,164.33 -157.04,261.6 -43.49,101.58 -80.79,209.59 -121.24,312.76 -170.57,435.09 -263.31,916.11 -255.33,1381.56 3.49,203.32 38.22,541.09 115.26,728.81 184.09,448.6 763.77,556.24 1139.41,284.75 331.36,-239.5 547.4,-592.83 825.31,-874.8 328.79,-333.62 286.17,-402.72 489.7,-776.66 76.61,-140.76 78.99,-132.85 234.92,-170.01z"/>
   <path class="fil0" d="M19931.26 10088.91c-22.71,81.84 76.39,298.48 115.07,383.6 19.57,43.05 26.36,98.77 42.12,145.17 43.8,129.09 195.41,456.45 154.87,574.24 -134.33,31.23 -107.68,-33.21 -187.58,-219.87 -36.14,-84.43 -67.35,-179.19 -110.64,-268.65 -45.83,-94.69 -155.55,-431.01 -203.13,-502.84 -42.02,-63.46 -3.7,-32.86 -50.51,-50.35 0.08,82.67 71.28,327.35 98.53,430.34 0.59,2.28 1.7,6.3 2.21,8.53l32.83 118.95c14.82,50.86 21.45,86.87 32.82,140.25l81.58 293.03c5.06,22.94 15.95,51 21.83,65.21 15.56,37.51 24.2,-2.21 14.66,78.2 -30.46,54.43 -142.23,69.29 -192.5,-145.89l-112.24 -377.63c-64.57,-168.67 -33.44,-116.82 -73.26,-243.7 -12.1,-38.56 -19.1,-34.05 -31.42,-69.44 -6.22,-17.87 -15.12,-53.69 -22.75,-78.1 -16.25,-52.05 -15.33,-83.89 -45.74,-111.52 -24.4,-22.18 -2.14,-11.59 -26.36,-11.08 -39.14,106.66 183.34,1190.24 250.13,1342.11 136.6,310.68 282.84,209.91 429.33,391.94 113.28,140.78 142.91,276.99 173.67,431.43l338 1104.05c84.67,183.74 -276.67,604.01 -200.26,947.38 44.31,199.13 281.97,135.13 362.09,-11.22 31.17,-56.94 18.97,-116.1 78.34,-140.24 35.93,29.43 27.84,62.59 59.58,113.3 10.76,17.17 56.17,88.61 78.14,109.17 61.84,57.86 230.64,62.43 282.16,-16.54 94.41,-144.71 -22.82,-392.77 -80.85,-542.01 -84.5,-217.36 -170.45,-279 -88.25,-518.95 64.81,-189.1 121.81,-385.18 171.5,-578.82 47.84,-186.44 99.25,-365.24 155.2,-549.26 68.61,-225.71 88.78,-337.62 323.29,-427.44 383.31,-146.77 512.72,-521.33 556.22,-898.94 153.52,-1333.06 -776.05,-1072.24 -1172.05,-134.72 -282.09,667.82 151.74,835.88 105.37,1124.69 -34.04,211.98 -203.07,598.81 -293.1,820.15 -28.73,70.62 -51.69,204.48 -98.45,247.12 -49.76,-13.51 -31,-10.94 -55.86,-73.8l-121.92 -267.06c-47.81,-110.87 -75.21,-242.97 -138.34,-351.56 -42.92,-73.84 -122.32,-303.24 -129.67,-388.97 -21.56,-251.31 63.61,-251.48 94.39,-437 44.3,-266.92 -267.13,-872.36 -416.59,-1142.65 -46.75,-84.54 -122.07,-283.31 -202.46,-310.61z"/>
  </g>
 </g>
</svg>
