<svg xmlns="http://www.w3.org/2000/svg" viewBox="0 0 800 400">
  <rect width="100%" height="100%" fill="none" />
  
  <g fill="#FF9E42">
    <path d="M110,340 C80,345 40,335 30,325 C25,315 50,150 65,80 C70,50 95,20 130,25 C160,30 185,80 180,140 C175,200 130,230 90,225 C85,225 80,220 80,220 L75,260 C100,280 160,285 185,240 C200,210 195,160 170,120 C195,80 190,40 160,20 C110,0 50,50 40,120 C30,190 10,310 40,345 C60,365 110,355 130,345 Z" />
    
    <path d="M240,240 C240,200 245,165 250,150 C260,130 285,135 295,145 L290,165 C280,155 265,155 260,175 C255,190 250,220 250,245 L240,245 Z" />
    
    <path d="M360,245 L360,225 C350,240 330,245 315,240 C295,235 290,210 305,195 C320,185 350,185 360,195 L360,185 C360,165 340,165 325,170 L325,160 C350,150 375,155 375,190 L375,245 Z M360,205 C350,200 325,195 318,205 C310,215 325,230 340,230 C355,230 360,215 360,205 Z" />
    
    <path d="M420,155 L450,245 L490,140" fill="none" stroke="#FF9E42" stroke-width="12" stroke-linecap="round" stroke-linejoin="round" />
    <path d="M485,130 L488,105 M492,130 L495,105 M499,130 L502,105" stroke="#FF9E42" stroke-width="3" />
    <ellipse cx="530" cy="135" rx="12" ry="18" transform="rotate(15, 530, 135)" />
    
    <path d="M590,245 L590,225 C580,240 560,245 545,240 C525,235 520,210 535,195 C550,185 580,185 590,195 L590,185 C590,165 570,165 555,170 L555,160 C580,150 605,155 605,190 L605,245 Z M590,205 C580,200 555,195 548,205 C540,215 555,230 570,230 C585,230 590,215 590,205 Z" />
  </g>
</svg>