<svg xmlns="http://www.w3.org/2000/svg" width="37" height="29" fill="none"><g clip-path="url(#a)"><path fill="url(#b)" d="M4.082 3.79C4.012 1.818 5.574 0 7.685 0h21.633c2.11 0 3.672 1.818 3.603 3.79-.068 1.894.02 4.347.648 6.348.628 2 1.692 3.272 3.431 3.438v1.848c-1.739.163-2.802 1.431-3.431 3.438-.63 2.007-.715 4.454-.648 6.353.07 1.971-1.492 3.79-3.603 3.79H7.685c-2.11 0-3.673-1.819-3.603-3.79.066-1.894-.02-4.348-.648-6.353C2.807 16.857 1.74 15.59 0 15.424v-1.848c1.739-.163 2.804-1.431 3.434-3.438.63-2.007.714-4.454.648-6.348Z"/><path fill="url(#c)" stroke="#fff" d="M19.302 22.21c3.419 0 5.48-1.647 5.48-4.362 0-2.052-1.467-3.539-3.65-3.773v-.086c1.602-.257 2.861-1.721 2.861-3.357 0-2.33-1.87-3.85-4.72-3.85h-6.417V22.21h6.446ZM15.35 8.74h3.317c1.804 0 2.829.791 2.829 2.223 0 1.53-1.191 2.384-3.351 2.384H15.35V8.74Zm0 11.512v-5.08h3.295c2.36 0 3.585.856 3.585 2.524 0 1.668-1.19 2.556-3.436 2.556H15.35Z"/></g><defs><linearGradient id="b" x1="3.726" x2="35.642" y1="2.964" y2="28.721" gradientUnits="userSpaceOnUse"><stop stop-color="#9013FE"/><stop offset="1" stop-color="#6610F2"/></linearGradient><linearGradient id="c" x1="13.668" x2="20.72" y1="7.983" y2="20.107" gradientUnits="userSpaceOnUse"><stop stop-color="#fff"/><stop offset="1" stop-color="#F1E5FC"/></linearGradient><clipPath id="a"><path fill="#fff" d="M0 0h37v29H0z"/></clipPath></defs></svg>