<svg xmlns="http://www.w3.org/2000/svg" width="122" height="127" fill="none"><path fill="#FF2718" d="M49.179 95.236 92.458 70.26 72.796 58.812l-43.25 25.183L49.18 95.236Zm45.269-51.088L74.766 32.7v22.664l19.686 11.45-.004-22.667Zm1.965-26.342L76.735 29.253 96.413 40.7l19.674-11.45-19.674-11.444ZM35.806 75.752l11.42-6.648v-49.93L27.54 30.63v49.93l8.266-4.808ZM25.57 4.284 5.892 15.735 25.57 27.186l19.666-11.45L25.57 4.283ZM3.918 19.18v77.2l43.296 25.195v-22.89L24.573 85.73c-.075-.055-.133-.113-.211-.163-.058-.055-.124-.097-.182-.143l-.004-.012a1.1 1.1 0 0 1-.162-.205l-.004-.004a.813.813 0 0 1-.145-.189l-.004-.004h-.012c-.033-.063-.066-.146-.1-.23l-.004-.017c-.029-.063-.062-.134-.09-.213l-.005-.013a2.613 2.613 0 0 1-.041-.292v-.009a2.592 2.592 0 0 1-.033-.213V30.638l-11.407-6.652-8.25-4.807Zm90.534 77.195V73.69L51.157 98.684v22.885l43.295-25.195Zm23.601-41.01V32.702L98.375 44.15v22.665l19.678-11.451Zm3.873-26.63c.045.16.074.34.074.528V56.51c0 .736-.393 1.376-.981 1.72l-.008.004-22.624 13.174v26.112a2 2 0 0 1-.977 1.72l-.008.004-47.234 27.487c-.1.055-.215.105-.335.138l-.013.004-.124.055a1.785 1.785 0 0 1-1.018-.004l.013.004a.645.645 0 0 1-.162-.067l.004.004a3.42 3.42 0 0 1-.339-.138l.017.008L.989 99.249A1.996 1.996 0 0 1 0 97.525V15.739c0-.184.029-.363.079-.53l-.005.012c.017-.063.054-.105.075-.168a2.31 2.31 0 0 1 .124-.318l-.004.013a.768.768 0 0 1 .12-.176l.174-.238.194-.143c.075-.062.14-.125.215-.18h.004L24.594.269a1.924 1.924 0 0 1 1.97.004l-.01-.004L50.18 14.012c.079.054.145.113.211.175l.199.143c.066.075.103.159.174.238.05.05.09.109.128.172l.004.004c.041.084.083.184.12.289l.004.016.066.168c.046.146.075.317.075.493v51.101l19.678-11.45V29.24c0-.18.025-.356.07-.523l-.004.012c.017-.054.054-.104.067-.167.04-.125.082-.226.132-.326l-.008.016c.037-.062.095-.104.132-.175.062-.08.112-.16.174-.226.058-.055.12-.105.186-.147l.004-.004c.075-.054.137-.121.215-.167h.004L95.43 13.786a1.925 1.925 0 0 1 1.97.004l-.01-.004 23.618 13.748c.083.054.141.113.219.163.062.054.133.096.191.146.066.076.115.16.178.235.045.05.086.108.124.167l.004.004c.049.092.091.197.124.306l.004.012c.033.05.058.105.079.163l-.004.005Z"/></svg>