<svg xmlns="http://www.w3.org/2000/svg" width="800" height="800" viewBox="0 0 32 32"><path d="m13.143 23.585 10.46-5.97-4.752-2.736-10.453 6.019zm10.941-12.211-4.757-2.736v5.417l4.758 2.737zm.475-6.296-4.756 2.736 4.756 2.736 4.755-2.737zM9.911 18.928l2.76-1.589V5.405L7.913 8.143v11.934zM7.437 1.846 2.681 4.583 7.437 7.32l4.753-2.737zm-5.233 3.56v18.452l10.464 6.022v-5.471l-5.472-3.096c-.018-.013-.032-.027-.051-.039-.014-.013-.03-.023-.044-.034l-.001-.003a.263.263 0 0 1-.039-.049l-.001-.001a.194.194 0 0 1-.035-.045l-.001-.001h-.003c-.008-.015-.016-.035-.024-.055l-.001-.004c-.007-.015-.015-.032-.022-.051l-.001-.003a.62.62 0 0 1-.01-.07v-.002a.61.61 0 0 1-.008-.051V8.145l-2.757-1.59zm21.881 18.451v-5.422l-10.464 5.974v5.47zm5.704-9.802V8.638l-4.756 2.737v5.417zm.936-6.365a.456.456 0 0 1 .018.126v6.513a.473.473 0 0 1-.237.411l-.002.001-5.468 3.149v6.241a.477.477 0 0 1-.236.411l-.002.001-11.416 6.57a.392.392 0 0 1-.081.033l-.003.001-.03.013a.421.421 0 0 1-.246-.001l.003.001a.152.152 0 0 1-.039-.016l.001.001a.821.821 0 0 1-.082-.033l.004.002-11.413-6.57a.476.476 0 0 1-.239-.412V4.584c0-.044.007-.087.019-.127l-.001.003c.004-.015.013-.025.018-.04a.547.547 0 0 1 .03-.076l-.001.003a.184.184 0 0 1 .029-.042l.042-.057.047-.034c.018-.015.034-.03.052-.043h.001L7.201.886a.469.469 0 0 1 .476.001L7.675.886l5.71 3.285a.422.422 0 0 1 .051.042l.048.034c.016.018.025.038.042.057a.21.21 0 0 1 .031.041l.001.001c.01.02.02.044.029.069l.001.004.016.04a.4.4 0 0 1 .018.118v12.214l4.756-2.737V7.811c0-.043.006-.085.017-.125l-.001.003c.004-.013.013-.025.016-.04.01-.03.02-.054.032-.078l-.002.004c.009-.015.023-.025.032-.042.015-.019.027-.038.042-.054a.302.302 0 0 1 .045-.035l.001-.001c.018-.013.033-.029.052-.04h.001l5.708-3.286a.469.469 0 0 1 .476.001l-.002-.001 5.708 3.286c.02.013.034.027.053.039.015.013.032.023.046.035.016.018.028.038.043.056a.298.298 0 0 1 .03.04l.001.001a.399.399 0 0 1 .03.073l.001.003a.176.176 0 0 1 .019.039v.001z"/></svg>