<svg xmlns="http://www.w3.org/2000/svg" width="84" height="84" fill="none"><g fill="#90CA51" clip-path="url(#a)"><path d="M74.025 20.65 44.975 4.2a7 7 0 0 0-5.95 0L9.975 20.65A5.95 5.95 0 0 0 7 25.725v32.55a5.95 5.95 0 0 0 2.975 5.075l7.7 4.375a12.6 12.6 0 0 0 6.65 1.75c5.425 0 8.575-3.325 8.575-8.925V28.525a.875.875 0 0 0-.875-.875H28.35a.875.875 0 0 0-.875.875V60.55c0 2.625-2.625 5.075-6.825 2.975l-8.05-4.55a.874.874 0 0 1-.35-.7v-32.55a1.4 1.4 0 0 1 .35-.875L41.475 8.575h1.05L71.4 24.85a1.4 1.4 0 0 1 .35.875v32.55a.874.874 0 0 1-.35.7L42.525 75.25a1.05 1.05 0 0 1-1.05 0l-7.35-4.2a.525.525 0 0 0-.7 0l-4.375 1.925c-.525.175-1.225.35.175 1.225l9.8 5.425a5.425 5.425 0 0 0 5.95 0l29.05-16.275A5.95 5.95 0 0 0 77 58.275v-32.55a5.951 5.951 0 0 0-2.975-5.075Z"/><path d="M50.925 53.025c-7.7 0-9.275-1.75-9.975-5.425a.7.7 0 0 0-.7-.7H36.4a.7.7 0 0 0-.7.7c0 4.725 2.625 10.5 15.225 10.5 9.1 0 14.35-3.5 14.35-9.625s-4.2-7.875-13.125-8.925c-8.925-1.05-9.8-1.75-9.8-3.85s.7-3.85 7.35-3.85c6.65 0 8.225 1.225 9.1 5.075a.875.875 0 0 0 .875.7h3.675l.7-.35a.7.7 0 0 0 .175-.525c-.525-6.825-5.25-9.975-14.525-9.975s-13.125 3.5-13.125 9.1 4.9 7.875 12.775 8.75 10.325 2.1 10.325 4.025c0 1.925-2.625 4.375-8.75 4.375Z"/></g><defs><clipPath id="a"><path fill="#fff" d="M0 0h84v84H0z"/></clipPath></defs></svg>