<svg xmlns="http://www.w3.org/2000/svg" width="47" height="47" fill="none"><path fill="#4581B1" fill-rule="evenodd" d="M29.948 43.376a2.053 2.053 0 0 1-2.049-2.06c0-1.138.917-2.057 2.05-2.057 1.132 0 2.049.919 2.049 2.058 0 1.138-.917 2.06-2.05 2.06ZM23.67 47c11.933 0 11.189-5.201 11.189-5.201l-.015-5.389H23.458v-1.618h15.907S47 35.664 47 23.562s-6.662-11.676-6.662-11.676h-3.979v5.619s.214 6.696-6.556 6.696H18.509s-6.345-.1-6.345 6.167v10.36S11.2 47 23.669 47ZM17.054 3.624c1.133 0 2.047.92 2.047 2.06a2.05 2.05 0 0 1-2.047 2.057 2.051 2.051 0 0 1-2.05-2.058c0-1.138.917-2.06 2.05-2.06ZM23.33 0C11.4 0 12.145 5.201 12.145 5.201l.014 5.389h11.386v1.618H7.635S0 11.336 0 23.438s6.665 11.675 6.665 11.675h3.976v-5.617s-.214-6.697 6.559-6.697H28.49s6.345.1 6.345-6.167V6.272S35.8 0 23.331 0Z" clip-rule="evenodd"/></svg>