<svg xmlns="http://www.w3.org/2000/svg" width="54" height="31" fill="none"><path fill="#38BDF8" fill-rule="evenodd" d="M16.233 15.505c-5.74 0-9.329 2.844-10.765 8.532 2.153-2.845 4.665-3.912 7.536-3.2 1.636.407 2.81 1.585 4.099 2.887 2.11 2.125 4.553 4.58 9.89 4.58 5.741 0 9.33-2.844 10.765-8.532-2.153 2.845-4.664 3.912-7.536 3.2-1.636-.407-2.809-1.585-4.099-2.887-2.112-2.125-4.552-4.58-9.89-4.58Zm10.764-12.81c-5.74 0-9.329 2.845-10.764 8.533 2.152-2.845 4.664-3.912 7.535-3.2 1.637.407 2.81 1.585 4.1 2.887 2.115 2.134 4.558 4.59 9.9 4.59 5.74 0 9.328-2.844 10.764-8.532-2.153 2.845-4.665 3.911-7.536 3.199-1.636-.406-2.81-1.584-4.099-2.887-2.122-2.121-4.562-4.59-9.9-4.59Z" clip-rule="evenodd"/></svg>